<svg width="90" height="66" viewBox="0 0 90 66" fill="none" xmlns="http://www.w3.org/2000/svg">
<path d="M4.739 57.059C5.844 57.059 6.195 57.085 6.273 57.085C6.403 57.085 6.416 57.072 6.416 56.942V56.006C6.416 55.876 6.403 55.863 6.273 55.863C6.195 55.863 5.844 55.889 4.739 55.889H4.401V53.991C4.817 53.874 5.207 53.744 5.584 53.601C5.805 53.523 5.974 53.484 6.143 53.458C6.299 53.432 6.39 53.367 6.39 53.276C6.39 53.185 6.338 53.12 6.26 53.029C6.026 52.769 5.753 52.522 5.389 52.223C5.181 52.366 5.025 52.444 4.713 52.574C3.907 52.912 2.386 53.367 0.812999 53.575C0.981999 53.77 1.112 54.004 1.229 54.29C1.385 54.667 1.385 54.667 1.801 54.602C2.243 54.524 2.685 54.433 3.101 54.342V55.889H2.438C1.346 55.889 0.981999 55.863 0.903999 55.863C0.773999 55.863 0.773999 55.876 0.773999 56.006V56.942C0.773999 57.072 0.773999 57.085 0.903999 57.085C0.981999 57.085 1.346 57.059 2.438 57.059H2.815C2.152 58.697 1.398 59.776 0.500999 60.725C0.682999 60.972 0.877999 61.401 1.008 61.765C1.073 61.921 1.125 61.986 1.177 61.986C1.242 61.986 1.307 61.921 1.398 61.791C2.061 60.868 2.672 59.828 3.127 58.567C3.114 61.544 3.049 63.663 3.049 63.897C3.049 64.014 3.062 64.027 3.192 64.027H4.297C4.427 64.027 4.44 64.014 4.44 63.897C4.44 63.663 4.375 61.557 4.375 58.45C4.661 59.087 4.973 59.594 5.415 60.127C5.506 60.244 5.584 60.309 5.636 60.309C5.701 60.309 5.753 60.231 5.805 60.088C5.922 59.763 6.117 59.399 6.299 59.139C5.649 58.541 5.051 57.917 4.596 57.059H4.739ZM9.549 58.515C9.406 58.58 9.38 58.619 9.445 58.749C9.887 59.633 10.264 60.491 10.602 61.388C9.562 61.596 8.561 61.739 7.573 61.869C8.301 59.308 8.834 56.76 9.354 53.978C9.419 53.614 9.484 53.432 9.588 53.276C9.64 53.185 9.679 53.133 9.679 53.029C9.679 52.938 9.575 52.873 9.432 52.834C8.99 52.717 8.548 52.639 8.015 52.561C8.028 53.081 7.963 53.614 7.872 54.186C7.443 56.851 6.975 59.243 6.156 62.025C5.753 62.051 5.376 62.064 4.986 62.064C5.077 62.597 5.194 63.052 5.324 63.442C5.363 63.572 5.428 63.624 5.519 63.624C5.597 63.624 5.662 63.585 5.74 63.533C5.831 63.481 5.987 63.429 6.195 63.39C7.989 63.104 9.497 62.818 10.992 62.506L11.33 63.611C11.369 63.754 11.382 63.741 11.577 63.663L12.461 63.273C12.63 63.195 12.643 63.169 12.604 63.039C12.11 61.401 11.447 59.802 10.576 58.203C10.511 58.073 10.498 58.073 10.316 58.151L9.549 58.515ZM18.597 54.875C18.688 54.55 18.779 54.108 18.909 53.64C18.974 53.432 19.078 53.302 19.182 53.12C19.247 53.029 19.247 52.964 19.247 52.912C19.247 52.834 19.208 52.743 19.104 52.704C18.688 52.535 18.155 52.444 17.466 52.34C17.466 52.756 17.44 53.146 17.388 53.536C17.297 54.069 17.193 54.641 17.063 55.161C16.309 55.252 15.607 55.291 14.957 55.291C14.424 55.291 14.268 55.291 13.995 55.252C14.06 55.72 14.125 56.162 14.177 56.435C14.203 56.604 14.255 56.643 14.45 56.643C15.061 56.643 15.971 56.578 16.725 56.5C16.088 58.671 15.464 60.387 14.476 62.662C14.437 62.753 14.476 62.857 14.58 62.922C14.853 63.078 15.49 63.351 15.62 63.403C15.763 63.442 15.841 63.455 15.906 63.273C16.738 61.115 17.401 59.126 18.285 56.24C19.078 56.11 19.741 55.967 20.547 55.746C20.716 55.707 20.755 55.668 20.742 55.499C20.729 55.226 20.69 54.849 20.651 54.563C20.638 54.459 20.586 54.394 20.443 54.433C19.806 54.615 19.104 54.784 18.597 54.875ZM18.831 60.842C18.857 61.596 19 62.207 19.416 62.623C20.001 63.234 20.885 63.468 22.588 63.468C23.069 63.468 23.914 63.39 24.356 63.325C24.564 63.312 24.577 63.273 24.564 63.117C24.564 62.766 24.512 62.324 24.46 61.986C24.447 61.882 24.408 61.856 24.304 61.869C23.784 61.934 22.848 62.051 22.12 62.051C20.872 62.051 20.235 61.778 20.131 60.829C20.118 60.699 20.066 60.647 19.936 60.647C19.767 60.647 19.234 60.738 18.831 60.842ZM19.845 58.385C20.69 58.216 21.678 58.086 22.458 58.086C23.017 58.086 23.615 58.151 24.07 58.242C24.252 58.281 24.317 58.229 24.317 58.008C24.33 57.657 24.33 57.293 24.304 56.968C24.304 56.812 24.265 56.799 24.083 56.773C23.628 56.695 23.069 56.643 22.562 56.643C21.808 56.643 20.846 56.773 20.027 56.942C19.832 56.981 19.793 57.02 19.793 57.202C19.793 57.462 19.819 57.93 19.845 58.385ZM29.79 54.888C28.789 54.966 27.983 55.005 26.969 55.005C27.021 55.434 27.112 55.98 27.151 56.136C27.177 56.253 27.255 56.318 27.398 56.318C28.061 56.318 28.88 56.253 29.582 56.201C29.361 57.501 29.179 58.463 28.893 59.607C28.841 59.802 28.789 59.997 28.724 60.218C28.685 60.335 28.672 60.426 28.672 60.478C28.672 60.595 28.75 60.647 28.958 60.738C29.218 60.855 29.647 60.998 29.933 61.024C30.05 61.037 30.089 60.985 30.18 60.829C30.297 60.66 30.427 60.504 30.544 60.335C31.272 59.373 32.559 58.723 33.963 58.723C34.951 58.723 35.445 59.282 35.445 59.958C35.445 60.777 34.964 61.375 33.963 61.791C32.923 62.22 32.13 62.389 30.232 62.506C30.531 62.753 30.726 63 30.934 63.429C31.038 63.676 31.129 63.741 31.259 63.741C31.584 63.741 31.896 63.702 32.221 63.65C33.638 63.429 34.756 63.117 35.536 62.61C36.537 61.973 37.018 61.128 37.018 59.984C37.018 58.645 35.848 57.527 34.119 57.527C32.702 57.527 31.402 58.021 30.388 58.905C30.622 57.995 30.804 57.124 30.986 56.045C32.078 55.902 32.78 55.759 33.898 55.512C34.015 55.486 34.054 55.447 34.054 55.304C34.054 54.992 34.015 54.641 33.963 54.342C33.937 54.173 33.872 54.16 33.69 54.212C32.962 54.407 31.896 54.602 31.246 54.693C31.311 54.238 31.363 53.978 31.428 53.627C31.454 53.484 31.558 53.263 31.649 53.146C31.688 53.094 31.74 53.003 31.74 52.938C31.74 52.834 31.649 52.756 31.48 52.704C31.142 52.6 30.661 52.509 29.92 52.431C29.985 52.782 29.998 53.12 29.946 53.692C29.907 54.004 29.855 54.433 29.79 54.888ZM40.892 53.094C40.892 53.64 40.827 54.069 40.658 55.031C40.359 56.708 40.216 58.125 40.216 59.295C40.216 60.608 40.45 62.259 40.814 63.169C40.84 63.26 40.892 63.325 40.983 63.312C41.36 63.273 41.724 63.195 42.049 63.104C42.166 63.078 42.218 63.026 42.218 62.935C42.218 62.831 42.192 62.727 42.192 62.571C42.192 62.389 42.205 62.246 42.231 62.168C42.426 61.44 42.673 60.881 42.972 60.205C43.011 60.14 43.037 60.088 43.037 59.997C43.037 59.945 42.985 59.867 42.946 59.802C42.764 59.516 42.595 59.308 42.491 58.983C42.114 59.893 41.88 60.322 41.607 60.92C41.555 60.465 41.529 60.036 41.529 59.399C41.529 58.411 41.711 56.812 42.075 55.2C42.192 54.693 42.257 54.511 42.387 54.277C42.556 54.017 42.582 53.978 42.582 53.887C42.582 53.77 42.504 53.692 42.283 53.575C41.893 53.367 41.477 53.237 40.892 53.094ZM43.882 59.802C43.882 60.413 44.012 61.076 44.337 61.492C44.896 62.259 45.793 62.571 47.717 62.571C48.328 62.571 48.952 62.532 49.836 62.428C50.057 62.402 50.057 62.389 50.057 62.233C50.057 61.895 50.018 61.388 49.979 61.115C49.953 60.946 49.927 60.933 49.797 60.946C48.926 61.05 48.289 61.115 47.314 61.115C45.897 61.115 45.273 60.79 45.195 59.893C45.195 59.75 45.169 59.685 45.065 59.698L43.882 59.802ZM44.298 56.11C45.533 55.889 46.378 55.811 47.249 55.811C47.912 55.811 48.588 55.837 49.368 55.889C49.485 55.902 49.524 55.85 49.537 55.733C49.563 55.369 49.563 55.018 49.563 54.628C49.563 54.498 49.537 54.472 49.264 54.459C48.718 54.407 48.12 54.381 47.34 54.381C46.742 54.381 45.286 54.472 44.519 54.615C44.389 54.641 44.35 54.68 44.337 54.836C44.311 55.057 44.311 55.382 44.298 56.11ZM52.124 56.201C52.397 56.76 52.722 57.267 52.956 57.553C53.099 57.748 53.203 57.826 53.333 57.826C53.398 57.826 53.502 57.787 53.684 57.631C53.84 57.514 54.165 57.371 54.581 57.163C56.557 56.292 58.104 55.824 59.274 55.824C60.717 55.824 61.51 56.578 61.51 57.8C61.51 58.996 60.821 59.828 59.716 60.387C58.832 60.816 57.909 61.063 56.193 61.349C56.622 61.622 56.947 62.012 57.103 62.376C57.194 62.623 57.298 62.636 57.558 62.584C58.754 62.324 59.768 62.116 60.86 61.505C62.407 60.673 63.148 59.594 63.148 57.891C63.148 55.85 61.653 54.446 59.326 54.446C58.273 54.446 56.648 54.849 54.646 55.525C53.177 56.019 52.696 56.136 52.124 56.201ZM65.631 53.965C65.761 54.563 65.787 54.953 65.787 55.668C65.787 56.864 65.891 58.216 66.099 59.451C66.45 61.648 67.516 62.844 68.53 62.844C69.44 62.844 70.246 62.142 70.74 60.816C70.805 60.634 70.805 60.478 70.649 60.335C70.389 60.088 70.103 59.789 69.817 59.334C69.31 60.686 68.985 61.141 68.569 61.141C68.023 61.141 67.685 60.257 67.503 59.23C67.295 58.034 67.269 57.098 67.269 56.266C67.269 55.707 67.334 55.148 67.386 54.992C67.451 54.836 67.49 54.706 67.49 54.628C67.49 54.537 67.399 54.446 67.282 54.394C66.892 54.199 66.255 54.043 65.631 53.965ZM72.287 55.811C73.613 57.137 74.276 58.489 74.718 60.348C74.744 60.504 74.835 60.543 74.991 60.491C75.342 60.374 75.667 60.192 76.005 59.971C76.109 59.906 76.187 59.854 76.148 59.685C75.823 58.06 74.783 56.266 73.6 55.239C73.548 55.187 73.509 55.161 73.457 55.161C73.418 55.161 73.366 55.187 73.314 55.213C73.106 55.317 72.781 55.499 72.287 55.811ZM84.338 55.161C82.765 56.188 81.842 57.436 81.842 59.282C81.842 61.986 84.351 63.299 86.639 63.299C86.795 63.299 86.847 63.221 86.886 63.026C86.977 62.701 87.029 62.246 87.029 61.908C87.029 61.765 86.951 61.713 86.743 61.713C84.481 61.57 83.285 60.66 83.285 58.983C83.285 57.423 84.39 55.902 86.6 55.148C87.159 54.966 87.575 54.901 88.186 54.862C88.355 54.862 88.433 54.823 88.433 54.667C88.42 54.303 88.355 53.822 88.29 53.523C88.277 53.432 88.212 53.354 88.017 53.38C84.663 53.822 81.803 54.251 80.204 54.485C79.19 54.628 78.8 54.68 78.137 54.706C78.306 55.304 78.449 55.759 78.618 56.11C78.67 56.227 78.774 56.305 78.865 56.305C78.969 56.305 79.06 56.24 79.151 56.201C79.346 56.136 79.476 56.11 79.97 55.993C81.361 55.707 82.752 55.434 84.338 55.135V55.161Z" fill="#17B942"/>
<path d="M54.4715 3.74541C54.4989 3.74541 54.5447 3.76563 54.552 3.78953C54.6124 3.97337 54.6508 4.16825 54.735 4.34106C54.7753 4.43666 54.832 4.61683 55.0058 4.44402C55.0205 4.42931 55.1504 4.53226 55.2236 4.58742C55.2236 4.58742 55.1833 4.64992 55.1632 4.68486C55.1544 4.70112 55.1477 4.71841 55.1431 4.73633C55.1998 4.76207 55.2766 4.8209 55.3114 4.80252C55.4944 4.70876 55.5694 4.84296 55.6591 4.9404C55.692 4.97717 55.6792 5.05255 55.692 5.1077C55.7048 5.16285 55.7323 5.24926 55.7561 5.31912C55.7604 5.32335 55.7656 5.32667 55.7713 5.32888C55.7769 5.33109 55.7829 5.33215 55.789 5.33199C55.972 5.1794 56.0928 5.22904 56.1458 5.47723C56.1458 5.49929 56.0946 5.53422 56.0653 5.55996C56.036 5.5857 56.0232 5.58937 56.0013 5.60592C56.0269 5.6243 56.0525 5.66107 56.08 5.66291C56.263 5.66291 56.3069 5.71071 56.3142 5.8872C56.3142 5.90191 56.3453 5.93133 56.3544 5.92765C56.3915 5.91793 56.4255 5.89896 56.4533 5.87249C56.4734 5.84676 56.4716 5.80263 56.4807 5.7677C56.5037 5.80611 56.5227 5.84676 56.5374 5.88904C56.5942 6.17032 56.6472 6.45161 56.7058 6.73289C56.7058 6.77334 56.7515 6.80643 56.7753 6.8432C56.7918 6.80827 56.8101 6.77334 56.8284 6.73841C56.8376 6.71956 56.845 6.69986 56.8503 6.67957C56.8723 6.60971 56.8924 6.53985 56.9126 6.46999C56.9382 6.53066 56.9912 6.59501 56.9858 6.65384C56.9877 6.88869 57.0349 7.12094 57.1248 7.33774C57.2017 7.5988 57.2182 7.88928 57.4725 8.0529C57.3883 8.20549 57.5311 8.29557 57.5732 8.42059C57.586 8.45736 57.6463 8.47942 57.6537 8.51435C57.6625 8.56891 57.6594 8.62474 57.6445 8.67797C57.6445 8.72026 57.5823 8.76254 57.5896 8.79563C57.6181 8.90264 57.6536 9.00766 57.6958 9.11001C57.698 9.11596 57.7017 9.12125 57.7065 9.12542C57.7113 9.12959 57.717 9.13251 57.7232 9.13391C57.769 9.13391 57.8147 9.13391 57.8604 9.13391C57.833 9.18538 57.7726 9.24605 57.7836 9.28466C57.8071 9.39592 57.8609 9.49842 57.9391 9.58065C58.0489 9.66338 58.0434 9.70383 57.9666 9.80126C57.9311 9.86926 57.9094 9.9436 57.9025 10.02C57.8965 10.0529 57.8922 10.086 57.8897 10.1193L57.8165 10.0642L57.7433 10.0164C57.7269 10.0586 57.6848 10.1175 57.6994 10.1395C57.7606 10.223 57.8266 10.3028 57.897 10.3785C57.919 10.3363 57.9391 10.294 57.9629 10.2517C57.9867 10.2094 58.0123 10.1763 58.0379 10.1377C58.0617 10.1708 58.113 10.2186 58.1038 10.2333C57.994 10.4282 58.2447 10.6892 57.9904 10.8639C57.9684 10.8786 58.0233 11.0054 58.0434 11.0808C58.0636 11.1562 58.091 11.2647 58.113 11.3492C58.1221 11.3842 58.1276 11.4209 58.1349 11.4577C58.1708 11.4338 58.2028 11.4047 58.2301 11.3713C58.2447 11.3474 58.2301 11.3033 58.2301 11.2702C58.2301 11.2371 58.2502 11.1727 58.2612 11.1249C58.2923 11.1691 58.3435 11.2095 58.349 11.2573C58.3801 11.5349 58.4552 11.8089 58.3673 12.092C58.3509 12.1471 58.4039 12.2225 58.4149 12.2887C58.4259 12.3549 58.435 12.4321 58.4149 12.4523C58.2868 12.5479 58.3637 12.6692 58.3655 12.7722C58.3673 12.8752 58.4716 12.8752 58.5631 12.8549C58.5869 12.8549 58.6198 12.8752 58.6491 12.8862C58.6236 12.8911 58.5989 12.8998 58.5759 12.9119C58.5485 12.934 58.5027 12.9708 58.5082 12.991C58.5595 13.2171 58.6217 13.4414 58.6766 13.6675C58.6766 13.6859 58.6363 13.7135 58.6308 13.7411C58.618 13.8146 58.6144 13.8918 58.6052 13.9672C58.6057 14.1994 58.6192 14.4314 58.6455 14.6621C58.6455 14.7007 58.607 14.7375 58.5851 14.7761C58.5667 14.742 58.5465 14.7088 58.5247 14.6768C58.4954 14.6401 58.4606 14.607 58.4295 14.5702C58.4267 14.6148 58.4317 14.6596 58.4442 14.7026C58.5284 14.8754 58.7022 15.0133 58.6491 15.2394C58.64 15.2798 58.6363 15.3221 58.6253 15.3626C58.61 15.4404 58.5898 15.5171 58.565 15.5924C58.5433 15.6532 58.5124 15.7102 58.4735 15.7615C58.4331 15.8117 58.413 15.8752 58.4171 15.9396C58.4212 16.0039 58.4491 16.0644 58.4954 16.109C58.5192 16.1402 58.5155 16.1936 58.5247 16.2377C58.5338 16.2818 58.5631 16.3645 58.5778 16.4307C58.5924 16.4969 58.5887 16.5153 58.5942 16.5576C58.5997 16.5999 58.5942 16.6605 58.6144 16.6679C58.7443 16.7194 58.6546 16.7377 58.6144 16.7727C58.5617 16.8031 58.5162 16.8444 58.4808 16.894C58.4624 16.942 58.4543 16.9934 58.457 17.0448C58.4893 17.0348 58.5223 17.0274 58.5558 17.0227C58.5686 17.0227 58.5814 17.0503 58.5924 17.065C58.4094 17.144 58.5375 17.3205 58.4716 17.4327C58.3509 17.6496 58.2594 17.8518 58.1679 18.0633C58.1496 18.1074 58.1679 18.1699 58.177 18.225C58.1953 18.1828 58.21 18.1405 58.2319 18.1C58.2539 18.0596 58.2978 17.9897 58.3326 17.9346C58.3618 17.9769 58.4112 18.0173 58.4149 18.0633C58.4307 18.1375 58.4223 18.2148 58.3911 18.2839C58.3179 18.3868 58.1917 18.4567 58.1313 18.5652C58.1054 18.6559 58.1054 18.7521 58.1313 18.8428C58.1477 18.9568 58.1917 19.0542 58.0361 19.124C58.0108 19.1337 57.9886 19.1502 57.9721 19.1718C57.9556 19.1933 57.9453 19.219 57.9425 19.2461C57.9396 19.2732 57.9443 19.3005 57.956 19.325C57.9677 19.3495 57.9859 19.3704 58.0087 19.3851C58.0709 19.4347 58.0727 19.4642 58.0087 19.5138C57.8897 19.5984 57.7214 19.6609 57.7854 19.8649C57.7854 19.8649 57.7671 19.8852 57.758 19.8944C57.6898 19.9642 57.6402 20.0501 57.6137 20.1442C57.5871 20.2383 57.5845 20.3376 57.6061 20.433C57.6061 20.4808 57.5658 20.5378 57.5439 20.5911C57.5347 20.5451 57.5193 20.5006 57.4981 20.4588C57.4469 20.3871 57.3847 20.3246 57.3279 20.2584C57.3279 20.3209 57.3078 20.4036 57.3389 20.4422C57.5219 20.6867 57.2859 20.8099 57.1834 20.9533C57.0875 21.0928 57.0249 21.2526 57.0004 21.4203C56.9894 21.4644 57.1431 21.7365 56.8723 21.5526C56.8061 21.5985 56.7541 21.6623 56.7223 21.7365C56.6875 21.878 56.704 22.0306 56.6692 22.1722C56.6509 22.2476 56.6216 22.4075 56.4697 22.277C56.4484 22.2651 56.4246 22.2582 56.4002 22.2568C56.4002 22.2862 56.4002 22.3138 56.4148 22.3432C56.4313 22.4461 56.4551 22.5491 56.4642 22.652C56.4642 22.6686 56.402 22.7017 56.3673 22.7054C56.1843 22.7329 56.1641 22.7936 56.2282 22.9535C56.2369 22.9914 56.2374 23.0308 56.2295 23.0689C56.2216 23.107 56.2055 23.1429 56.1824 23.1742C56.0995 23.2713 56.0027 23.3556 55.8951 23.4242C55.84 23.4503 55.7962 23.4956 55.772 23.5518C55.7477 23.608 55.7447 23.6711 55.7634 23.7294C55.779 23.8064 55.779 23.8858 55.7634 23.9629C55.7451 24.0805 55.7305 24.0805 55.628 24.0051C55.5973 23.9862 55.564 23.972 55.5292 23.9629C55.5296 23.9982 55.5253 24.0335 55.5164 24.0676C55.4779 24.1596 55.3572 24.2258 55.4322 24.3508L55.1888 24.3912C55.1431 24.3912 55.0955 24.4004 55.0479 24.4041C55.0644 24.439 55.0955 24.4739 55.0918 24.5052C55.0879 24.5605 55.0696 24.6137 55.0388 24.6596C54.974 24.7348 54.903 24.8043 54.8265 24.8674C54.8155 24.7552 54.7387 24.6964 54.6691 24.7626C54.5996 24.8288 54.391 24.6835 54.5227 24.9041C54.5355 24.9262 54.4898 24.9832 54.4733 25.0255C54.4421 25.0733 54.4192 25.1262 54.4056 25.1817C54.404 25.2974 54.3619 25.4087 54.2865 25.4962C54.2112 25.5836 54.1076 25.6416 53.9939 25.6597C53.8544 25.7039 53.7195 25.7618 53.5913 25.8326C53.5602 25.8473 53.5401 25.9098 53.5364 25.9502C53.5218 26.1984 53.4998 26.4374 53.2162 26.5404C53.1942 26.5404 53.1942 26.6139 53.1833 26.6525C53.4413 26.6727 53.1558 26.7316 53.1833 26.7683L52.9289 26.9007C52.9051 26.9117 52.8612 26.9172 52.8612 26.9301C52.8191 27.2371 52.4952 27.182 52.3378 27.3548C52.228 27.4953 52.1522 27.6596 52.1164 27.8346C52.1154 27.9178 52.0864 27.9982 52.0341 28.0626C51.9902 28.1086 51.895 28.0957 51.8255 28.1196C51.8035 28.1196 51.7962 28.1711 51.7779 28.195C51.7084 28.2851 51.7907 28.445 51.5949 28.4965C51.4851 28.5259 51.4119 28.6693 51.3131 28.763C51.3046 28.7724 51.2967 28.7822 51.2893 28.7925C51.4723 28.912 51.218 29.0737 51.3259 29.2024C51.3309 29.2118 51.3335 29.2222 51.3335 29.2328C51.3335 29.2434 51.3309 29.2538 51.3259 29.2631C51.3053 29.2911 51.2827 29.3175 51.2582 29.3422C51.2512 29.3076 51.247 29.2726 51.2454 29.2374C51.2454 29.1914 51.2564 29.1473 51.26 29.1013C51.224 29.1326 51.1915 29.1677 51.1631 29.2061C51.0189 29.4272 50.8893 29.6575 50.7751 29.8955C50.708 30.0981 50.6578 30.306 50.6251 30.5169C50.6155 30.5444 50.6032 30.5709 50.5885 30.596C50.5629 30.5721 50.5336 30.5519 50.5098 30.5261C50.486 30.5004 50.422 30.4342 50.378 30.3882C50.4372 30.3506 50.4913 30.3055 50.5391 30.254C50.561 30.2228 50.5391 30.1584 50.5391 30.1106C50.5391 30.0922 50.5134 30.0757 50.5006 30.0573C50.4851 30.0732 50.471 30.0904 50.4585 30.1088C50.3579 30.2926 50.1841 30.4618 50.3927 30.6861C50.4128 30.7081 50.3579 30.8056 50.3305 30.8699C50.3305 30.8809 50.2682 30.8846 50.2664 30.8809C50.2401 30.829 50.2222 30.7731 50.2133 30.7155C50.2119 30.663 50.2168 30.6105 50.228 30.5592C50.1804 30.607 50.1145 30.6493 50.0907 30.7063C50.067 30.7633 50.0578 30.8773 50.0907 30.9067C50.2445 31.0409 50.1054 31.1016 50.0487 31.2027C49.9096 31.4545 49.8053 31.7248 49.6662 31.9767C49.6135 32.1031 49.5725 32.2342 49.5436 32.3683C49.5308 32.4087 49.4777 32.4344 49.443 32.4675C49.4166 32.4315 49.3968 32.391 49.3844 32.348C49.3844 32.2763 49.4045 32.2028 49.4045 32.1311C49.3976 32.0908 49.3846 32.0517 49.3661 32.0153C49.3441 32.0447 49.3222 32.0723 49.2984 32.0998C49.174 32.2432 49.2545 32.3572 49.3515 32.4675C49.3681 32.4844 49.3784 32.5064 49.3807 32.53C49.3533 32.6992 49.324 32.8665 49.2893 33.0319C49.2893 33.0503 49.2398 33.054 49.2197 33.0724C49.1996 33.0908 49.0935 33.1643 49.0989 33.1974C49.141 33.4015 48.991 33.4915 48.8867 33.6129C48.8535 33.6648 48.8276 33.7211 48.8098 33.7802L48.9105 33.7122C48.9269 33.7361 48.9599 33.7728 48.9544 33.7839C48.8007 34.0229 48.883 34.2232 49.0312 34.4328C49.066 34.4806 48.9855 34.6056 48.9708 34.6976C48.9562 34.7895 48.9946 34.9016 48.8354 34.8355C48.8354 34.8355 48.808 34.8594 48.8043 34.8741C48.7751 35.0083 48.6964 35.159 48.733 35.2712C48.7897 35.455 48.6836 35.6664 48.8519 35.8227C48.8778 35.8602 48.8889 35.9061 48.883 35.9514C48.8719 35.995 48.854 36.0366 48.8299 36.0746C48.808 36.0396 48.786 36.0029 48.7622 35.9698C48.7385 35.9367 48.7019 35.8834 48.6689 35.8429C48.6579 35.8319 48.6323 35.8429 48.614 35.8429C48.5957 35.8429 48.614 35.8668 48.614 35.8705C48.7805 36.0304 48.5976 36.1738 48.5866 36.3228C48.5661 36.4629 48.5286 36.6 48.4749 36.7309C48.4457 36.8191 48.4548 36.9478 48.292 36.9147C48.2609 36.9147 48.2243 36.9497 48.1913 36.9681C48.2095 36.9924 48.2297 37.0152 48.2517 37.0361C48.2921 37.0782 48.3154 37.1339 48.3171 37.1924C48.3187 37.2509 48.2987 37.3079 48.2609 37.3523C48.2435 37.3607 48.225 37.3663 48.206 37.3688C48.206 37.3505 48.2224 37.3284 48.2188 37.3118C48.215 37.2473 48.1969 37.1845 48.1657 37.128C48.1419 37.0986 48.0687 37.1078 48.0175 37.1004C48.0175 37.3413 47.7686 37.3744 47.668 37.5306C47.6533 37.5592 47.6405 37.5887 47.6295 37.6189C47.6595 37.6183 47.6892 37.6128 47.7174 37.6023C47.7778 37.5656 47.8345 37.5178 47.9004 37.4791C47.9116 37.4768 47.9232 37.4771 47.9343 37.4799C47.9454 37.4828 47.9557 37.4882 47.9644 37.4957C47.9835 37.5203 47.9933 37.5509 47.9919 37.5821C47.9758 37.6329 47.9418 37.676 47.8964 37.7035C47.8509 37.7309 47.797 37.7407 47.7448 37.731C47.6473 37.7241 47.5495 37.739 47.4584 37.7746C47.3672 37.8102 47.2851 37.8657 47.2178 37.9369C47.1519 37.9958 47.0348 37.9957 46.9488 38.0307C46.8628 38.0656 46.7347 38.0123 46.8226 38.1759C46.8226 38.1869 46.8098 38.2256 46.7933 38.2366C46.5133 38.4204 46.226 38.5712 45.8783 38.4664C45.8308 38.4517 45.7356 38.5013 45.7228 38.4829C45.6551 38.38 45.3952 38.6227 45.4447 38.323C45.4447 38.3009 45.355 38.2347 45.3458 38.2421C45.2964 38.2856 45.2538 38.3364 45.2196 38.3929C45.15 38.369 45.0842 38.3322 45.0128 38.3009C44.9414 38.2697 44.8939 38.2586 44.8298 38.2366C44.8408 38.2789 44.8554 38.3193 44.8628 38.3616C44.8701 38.4039 44.8628 38.4149 44.8463 38.4186C44.8118 38.4339 44.7739 38.4396 44.7365 38.4351C44.7182 38.4351 44.6926 38.3873 44.6962 38.3671C44.7328 38.1594 44.5315 38.163 44.44 38.0711C44.4314 38.0873 44.4253 38.1046 44.4217 38.1226C44.4217 38.1612 44.4217 38.198 44.4108 38.2366C44.3815 38.2072 44.3376 38.1833 44.3266 38.1502C44.2552 37.9479 44.1948 37.742 44.1271 37.5398C44.116 37.5041 44.0943 37.4727 44.0649 37.4497C43.8051 37.2916 43.8014 37.0398 43.8106 36.7787C43.8198 36.7382 43.8198 36.6961 43.8106 36.6555C43.6806 36.4 43.7886 36.1352 43.774 35.876C43.774 35.7602 43.7191 35.6186 43.8911 35.5469C43.9167 35.5359 43.8911 35.3796 43.8636 35.2895C43.8728 35.2491 43.8984 35.2105 43.9094 35.1682C43.9204 35.1259 43.9094 35.0745 43.9094 35.0726C43.7264 35.0358 43.7538 34.9311 43.8161 34.806C43.8161 34.7895 43.7849 34.7527 43.774 34.7233C43.759 34.6806 43.7468 34.637 43.7374 34.5928C43.957 34.5505 43.8362 34.3758 43.8563 34.2637C43.8691 34.1846 43.9332 34.0798 43.7868 34.01C43.7337 33.9824 43.7227 33.7692 43.7666 33.6736C43.8246 33.5415 43.8546 33.3987 43.8546 33.2544C43.8546 33.11 43.8246 32.9673 43.7666 32.8352C43.7666 32.815 43.8032 32.7801 43.8161 32.7488C43.8764 32.5944 43.9313 32.4363 43.999 32.2837C44.0332 32.219 44.073 32.1574 44.118 32.0998C44.1436 32.0612 44.2022 32.0208 44.1967 31.9895C44.1912 31.9583 44.1345 31.9197 44.096 31.8884C44.0576 31.8572 43.9807 31.8038 43.9295 31.756C43.9185 31.7469 43.9295 31.6935 43.9295 31.6917C43.9648 31.6748 44.0043 31.6691 44.043 31.6752C44.1271 31.7046 44.1216 31.7101 44.1198 31.6182C44.1198 31.4766 44.1198 31.3369 44.1198 31.1953C44.1293 31.1515 44.1466 31.1097 44.1711 31.0721C44.1948 31.1034 44.2205 31.1346 44.2424 31.1677C44.2644 31.2008 44.279 31.2358 44.2973 31.2689C44.3109 31.2236 44.3219 31.1775 44.3303 31.131C44.354 30.9251 44.3723 30.7173 44.398 30.5114C44.4226 30.4144 44.4385 30.3153 44.4455 30.2154C44.4429 30.1179 44.4641 30.0212 44.5071 29.9337C44.5502 29.8462 44.6138 29.7707 44.6926 29.7135C44.7767 29.6381 44.8939 29.5517 44.6816 29.4819C44.6711 29.4708 44.6634 29.4573 44.6592 29.4426C44.6551 29.4278 44.6546 29.4123 44.6578 29.3973C44.6929 29.3578 44.7336 29.3238 44.7786 29.2962C44.8103 29.2756 44.8433 29.2572 44.8774 29.241C44.9231 29.2135 44.9506 29.1013 45.0238 29.2098C45.0476 29.1932 45.086 29.1785 45.0915 29.1565C45.1574 28.9267 45.2123 28.695 45.2745 28.4689C45.2745 28.4487 45.3769 28.4505 45.43 28.4597C45.4538 28.4597 45.4721 28.5038 45.4941 28.5296C45.5142 28.4965 45.5581 28.4579 45.5508 28.4321C45.5233 28.3163 45.591 28.2906 45.6679 28.2281C45.7448 28.1656 45.9149 28.1104 45.8125 27.9192C45.7704 27.8383 45.8326 27.7004 45.8436 27.5883C45.84 27.5372 45.8431 27.4859 45.8527 27.4357C45.8747 27.3824 45.9168 27.3033 45.957 27.2978C46.2315 27.2647 46.301 27.1967 46.312 26.9411C46.312 26.9007 46.3669 26.8547 46.4072 26.8308C46.4474 26.8069 46.5023 26.8308 46.5408 26.8069C46.5838 26.7796 46.6226 26.7462 46.656 26.7077C46.5993 26.7077 46.5426 26.7077 46.4859 26.7077C46.4648 26.7112 46.4449 26.7194 46.4273 26.7316C46.4273 26.7077 46.4273 26.6727 46.4493 26.6617C46.5257 26.6006 46.6078 26.547 46.6945 26.5018C46.7713 26.4668 46.8409 26.4503 46.7567 26.3528C46.7567 26.3528 46.7567 26.3014 46.7677 26.3014C46.7919 26.303 46.8158 26.3073 46.839 26.3142C46.8846 26.3283 46.9326 26.3327 46.9799 26.3271C47.0074 26.3271 47.022 26.2664 47.0421 26.2333C47.0098 26.2352 46.9775 26.2352 46.9452 26.2333C46.9221 26.2302 46.8994 26.2247 46.8775 26.2168C46.894 26.195 46.913 26.1752 46.9342 26.158C47.0606 26.0956 47.1829 26.025 47.3002 25.9465C47.41 25.8573 47.5128 25.7596 47.6076 25.6542C47.6186 25.6414 47.6076 25.6083 47.6076 25.5844L47.5216 25.6119L47.4228 25.6469C47.4228 25.5972 47.41 25.5237 47.4374 25.498C47.5407 25.4052 47.6536 25.3239 47.7741 25.2553C47.8375 25.2723 47.9025 25.2822 47.9681 25.2847C47.9681 25.2847 47.9809 25.2424 47.9864 25.2185L47.8253 25.2443C47.8119 25.2452 47.7985 25.2452 47.7851 25.2443C47.8554 25.1585 47.9319 25.078 48.0138 25.0034C48.0394 24.9832 48.12 25.0034 48.1602 25.0365C48.2005 25.0696 48.2041 25.1119 48.2261 25.1505C48.2205 25.0943 48.2205 25.0376 48.2261 24.9814C48.2261 24.9391 48.2645 24.8747 48.2956 24.8692C48.5006 24.8288 48.4786 24.6265 48.5555 24.5015C48.5897 24.4674 48.6285 24.4383 48.6707 24.4151C48.6733 24.4474 48.6788 24.4794 48.6872 24.5107C48.6928 24.5193 48.7004 24.5263 48.7093 24.5311C48.7183 24.5359 48.7283 24.5384 48.7385 24.5383C48.782 24.527 48.8248 24.5128 48.8665 24.496C48.8537 24.4721 48.8464 24.4317 48.8281 24.4261C48.7128 24.3802 48.7128 24.3544 48.8281 24.3305C48.8281 24.3305 48.8482 24.2901 48.8409 24.2791C48.8336 24.268 48.7988 24.2147 48.7732 24.2129C48.7476 24.211 48.7019 24.2368 48.6653 24.2496L48.5884 24.2717C48.5976 24.2478 48.6012 24.2092 48.6177 24.2019C48.8116 24.1265 48.9178 23.882 49.1666 23.9132C49.1868 23.9132 49.2362 23.8562 49.2307 23.8452C49.1502 23.6613 49.2691 23.6613 49.3862 23.6705C49.5033 23.6797 49.6241 23.6705 49.6461 23.5014C49.6461 23.4444 49.7339 23.4003 49.7559 23.3415C49.8236 23.1447 50.0688 23.1025 50.1218 22.8947C50.1464 22.7952 50.1852 22.6998 50.2371 22.6116C50.4018 22.3524 50.6891 22.3469 50.9471 22.2843C50.959 22.274 50.968 22.2608 50.9735 22.2461C50.9789 22.2313 50.9805 22.2154 50.9782 22.1998C50.9069 22.0398 50.8941 21.9203 51.1063 21.8486C51.1795 21.8247 51.2198 21.696 51.2692 21.6133C51.2864 21.5723 51.2999 21.5299 51.3094 21.4865C51.2692 21.4865 51.2289 21.5048 51.1887 21.5085C51.1626 21.5078 51.1367 21.5035 51.1118 21.4957C51.1265 21.4773 51.1374 21.4497 51.1557 21.4387C51.3058 21.3504 51.4595 21.2695 51.6041 21.1758C51.6681 21.1335 51.7614 21.0599 51.7578 21.0066C51.7431 20.7878 51.8914 20.6389 51.9828 20.4753C52.0396 20.376 52.1988 20.3374 52.3049 20.2621C52.3555 20.2241 52.3968 20.1751 52.4257 20.1187C52.4796 19.9885 52.5407 19.8614 52.6087 19.7381C52.7514 19.5193 52.9179 19.3152 53.068 19.102C53.0863 19.0726 53.068 19.0174 53.068 18.9751C53.0684 18.9004 53.0764 18.8258 53.0918 18.7527C53.1027 18.7104 53.1521 18.681 53.1851 18.6442C53.1851 18.6828 53.1631 18.7233 53.1759 18.7545C53.1971 18.7919 53.225 18.8249 53.2583 18.852C53.2711 18.817 53.2821 18.7821 53.2967 18.749C53.4083 18.4696 53.4669 18.1442 53.6499 17.9272C53.7903 17.7656 53.8984 17.5784 53.9683 17.3757C54.0232 17.1918 54.0159 16.9694 54.0689 16.7653C54.0689 16.7285 54.0195 16.6789 53.9994 16.6329C53.9097 16.4326 54.1677 16.359 54.1641 16.1825C54.1818 16.0858 54.2087 15.991 54.2446 15.8994C54.2574 15.824 54.2446 15.7431 54.2446 15.6641C54.2556 15.4802 54.2702 15.3111 54.2848 15.1346C54.2848 15.107 54.2848 15.0795 54.2848 15.0537H54.4404C54.4166 15.0096 54.3873 14.9691 54.3672 14.9232C54.3493 14.8798 54.3353 14.8349 54.3251 14.789C54.3205 14.7759 54.3205 14.7616 54.3251 14.7485C54.3471 14.7063 54.3745 14.664 54.3983 14.6235C54.3507 14.6235 54.3031 14.6456 54.2556 14.6511C54.2367 14.6492 54.2185 14.6429 54.2025 14.6327C54.2089 14.6105 54.2188 14.5894 54.2318 14.5702C54.2867 14.5077 54.3708 14.4581 54.3946 14.3864C54.4367 14.2613 54.5776 14.094 54.3141 14.0187C54.3099 13.979 54.3099 13.9389 54.3141 13.8992C54.3891 13.8992 54.4971 13.8992 54.4312 13.7962C54.4001 13.7411 54.2482 13.6896 54.2062 13.719C54.1037 13.7944 54.1202 13.7539 54.111 13.6694C54.0927 13.5002 54.186 13.3017 54.0305 13.1638C54.1915 13.07 54.0634 12.9799 54.0305 12.8825C54.0305 12.8825 54.0781 12.8696 54.0836 12.8568C54.136 12.7591 54.1672 12.6513 54.1751 12.5406C54.1448 12.3766 54.0937 12.2172 54.0232 12.0662C54.0085 12.0313 53.9427 12.0166 53.9024 11.989C53.886 11.973 53.8724 11.9544 53.8621 11.9339C53.8841 11.9339 53.9061 11.9155 53.928 11.91L54.0653 11.8824C53.9646 11.8033 54.1476 11.6158 53.9555 11.5809C53.9335 11.5809 53.8914 11.6728 53.864 11.7243C53.8477 11.7559 53.8348 11.7892 53.8255 11.8236C53.7889 11.8089 53.7432 11.8052 53.7212 11.7794C53.6993 11.7537 53.7212 11.7151 53.7359 11.682C53.7505 11.6489 53.7706 11.5993 53.778 11.5551C53.7853 11.511 53.7505 11.3952 53.8841 11.4761C53.9079 11.4908 54.0781 11.4265 53.9646 11.2757C53.8512 11.1249 53.8072 10.8731 53.6188 10.7242C53.5639 10.6837 53.5657 10.5697 53.5291 10.4962C53.4988 10.4472 53.4618 10.4026 53.4193 10.3638C53.3882 10.3271 53.3223 10.2774 53.3296 10.259C53.4285 10.0311 53.2729 9.91709 53.1467 9.78104C53.0478 9.67809 52.8777 9.52366 52.9014 9.44277C52.9618 9.24421 52.7404 9.12839 52.8118 8.9519C52.8189 8.92859 52.8232 8.90452 52.8246 8.8802C52.7991 8.89416 52.7752 8.9108 52.7532 8.92984C52.734 8.95602 52.7191 8.98521 52.7093 9.01625C52.6581 9.14494 52.6105 9.167 52.5263 9.03647C52.4568 8.93535 52.3433 8.8802 52.4184 8.7129C52.4714 8.5934 52.175 8.31947 52.0359 8.32866C51.8968 8.33786 51.8877 8.29741 51.9298 8.17975C51.9719 8.06209 52.0304 7.92237 51.8932 7.81206C51.8718 7.7998 51.8481 7.79228 51.8236 7.79C51.8236 7.80838 51.8511 7.83412 51.8456 7.84699C51.8306 7.87004 51.8113 7.89001 51.7889 7.90582C51.7889 7.88376 51.7742 7.8617 51.7651 7.83964C51.7139 7.7183 51.712 7.57306 51.5089 7.56387C51.4412 7.56387 51.3826 7.39657 51.3131 7.31384C51.2875 7.28259 51.2289 7.24398 51.2051 7.25501C51.0222 7.34142 50.9636 7.32119 50.8977 7.11529C50.8575 7.05394 50.8 7.00609 50.7324 6.97791C50.6649 6.94973 50.5906 6.94251 50.5189 6.95718C50.5025 6.95718 50.497 6.99579 50.4842 7.01601C50.519 7.03917 50.5573 7.05655 50.5976 7.06749C50.6653 7.06749 50.8501 7.19986 50.8556 7.26604C50.8549 7.29889 50.8506 7.33155 50.8428 7.36348L50.7568 7.33222C50.6633 7.31215 50.5725 7.28131 50.486 7.2403C50.4206 7.18717 50.3627 7.12532 50.314 7.05646C50.2957 7.03623 50.2792 7.00682 50.2554 6.99946C49.9883 6.90754 49.851 6.65751 49.6369 6.50308C49.5852 6.477 49.5283 6.46317 49.4704 6.46264C49.4503 6.46264 49.4265 6.48654 49.4045 6.49941C49.3002 6.31556 49.1008 6.49941 49.0843 6.47918C48.991 6.32659 48.8135 6.40748 48.7183 6.31556C48.6818 6.2617 48.6656 6.19651 48.6726 6.13172C48.6726 6.11517 48.7549 6.10046 48.797 6.08392C48.8512 6.0655 48.9044 6.04401 48.9562 6.01957C48.9637 6.01227 48.9694 6.00333 48.9729 5.99345C48.9764 5.98356 48.9776 5.97299 48.9763 5.96258C48.9763 5.94603 48.9434 5.91846 48.9361 5.92213C48.8318 5.9589 48.7293 6.00119 48.625 6.04347L48.4292 6.11517C48.4054 6.04899 48.3816 5.9828 48.3615 5.91478C48.3543 5.889 48.35 5.86248 48.3487 5.83573C48.3304 5.85595 48.3139 5.87801 48.2938 5.89823L48.195 5.99751C48.1705 5.96264 48.1491 5.92574 48.1309 5.8872C48.1181 5.84392 48.109 5.79965 48.1035 5.75483C48.0742 5.62246 47.9937 5.59673 47.8656 5.60776C47.7263 5.61169 47.5868 5.60555 47.4484 5.58937C47.4044 5.57814 47.3598 5.56955 47.3148 5.56363C47.2311 5.57155 47.1468 5.55895 47.069 5.52693C46.9913 5.49491 46.9224 5.44442 46.8683 5.37979C46.8427 5.34854 46.7768 5.35037 46.7292 5.33751C46.7457 5.37427 46.7658 5.41288 46.7805 5.45149C46.7823 5.47597 46.7823 5.50055 46.7805 5.52503C46.7549 5.52503 46.7256 5.52503 46.7073 5.50848C46.6121 5.4423 46.5243 5.38898 46.4017 5.4662C46.3834 5.47723 46.3193 5.3945 46.2681 5.37611C46.2169 5.35773 46.1418 5.36692 46.0851 5.34486C46.0028 5.31177 45.9204 5.22536 45.882 5.38714L45.6148 5.28787L45.5416 5.25294C45.4886 5.5618 45.2635 5.38714 45.1208 5.38714C44.903 5.38714 44.6853 5.32464 44.4657 5.32096C44.3925 5.32096 44.3156 5.4184 44.2442 5.47723C44.1729 5.53606 44.1528 5.60592 44.0503 5.50848C44.0106 5.48445 43.9657 5.47054 43.9194 5.46798C43.8732 5.46541 43.827 5.47427 43.7849 5.49377C43.6386 5.58753 43.5178 5.51216 43.386 5.49377C43.3409 5.48299 43.2939 5.48299 43.2488 5.49377C43.2085 5.51032 43.1811 5.55812 43.1463 5.59305C43.1866 5.61327 43.225 5.63533 43.2671 5.65372C43.3092 5.6721 43.3531 5.68497 43.3933 5.70703V5.76219C43.3366 5.76219 43.2817 5.76219 43.225 5.74932C43.2122 5.74932 43.1921 5.74932 43.1902 5.73645C43.1152 5.49929 42.8572 5.62247 42.7236 5.50113C42.7108 5.4901 42.6248 5.52687 42.6175 5.55444C42.6154 5.5944 42.6034 5.6332 42.5824 5.66721C42.5615 5.70123 42.5323 5.72936 42.4976 5.749C42.4629 5.76863 42.4238 5.77913 42.384 5.7795C42.3441 5.77988 42.3049 5.77013 42.2698 5.75116C42.2478 5.75116 42.1911 5.79344 42.1746 5.83021C42.1179 5.94419 42.074 6.01406 41.966 5.86514C41.9441 5.83021 41.8508 5.84492 41.783 5.8394C41.7979 5.87559 41.806 5.91424 41.8068 5.95339C41.8068 5.98096 41.7611 6.02509 41.741 6.02325C41.6703 6.01278 41.6005 5.9968 41.5324 5.97545C41.569 5.84308 41.4317 5.91478 41.3988 5.86146C41.375 5.89639 41.3512 5.93316 41.3256 5.96626C41.2743 6.03244 41.2231 6.1023 41.1664 6.16481C41.1096 6.22732 40.9633 6.15378 40.9834 6.30821C40.945 6.29166 40.8919 6.28615 40.8718 6.25673C40.8599 6.23194 40.8418 6.21072 40.8192 6.19521C40.7966 6.1797 40.7704 6.17046 40.7431 6.16841C40.7158 6.16635 40.6885 6.17157 40.6638 6.18353C40.6392 6.19548 40.6181 6.21376 40.6028 6.23651C40.593 6.25848 40.588 6.2823 40.5881 6.30637C40.7583 6.32291 40.7528 6.38175 40.6247 6.46815C40.8077 6.75495 40.4545 6.75679 40.3777 6.9057C40.3649 6.93144 40.2661 6.9057 40.2075 6.9057C40.2441 6.85055 40.1288 6.73289 40.2917 6.72186C40.3356 6.72186 40.374 6.63177 40.4143 6.58398C40.3607 6.58025 40.307 6.58841 40.2569 6.60787C40.191 6.65384 40.105 6.71634 40.0904 6.79172C40.0636 6.90843 40.0013 7.01384 39.9121 7.09326C39.8229 7.17268 39.7112 7.22215 39.5927 7.23479C39.5801 7.2361 39.5678 7.23919 39.5561 7.24398C39.573 7.26942 39.5919 7.2934 39.6128 7.31568C39.661 7.35586 39.7063 7.39948 39.7482 7.44621C39.7482 7.4554 39.6805 7.551 39.6677 7.54549C39.4573 7.46643 39.4426 7.68705 39.3383 7.76426C39.2605 7.83896 39.1928 7.92365 39.137 8.01613C39.1261 8.03267 39.1187 8.05841 39.1041 8.06393C38.8241 8.15034 38.815 8.46655 38.6247 8.63017C38.5997 8.65021 38.5711 8.66519 38.5405 8.67429C38.46 8.69819 38.3923 8.71658 38.471 8.82137C38.4855 8.84258 38.4955 8.86664 38.5002 8.89198C38.505 8.91731 38.5043 8.94337 38.4984 8.96845C38.4655 9.02544 38.5313 9.2148 38.3465 9.10817C38.3157 9.09598 38.2827 9.09034 38.2495 9.09162C38.258 9.12309 38.2647 9.15501 38.2697 9.18722C38.2843 9.30856 38.2989 9.4299 38.3099 9.55491C38.3099 9.56594 38.2806 9.59352 38.2752 9.58984C38.2447 9.57933 38.2176 9.56094 38.1965 9.53653C38.1794 9.50416 38.1671 9.46948 38.1599 9.43357C38.149 9.47578 38.1417 9.51883 38.1379 9.56227C38.1379 9.65235 38.1379 9.68912 38.0482 9.60639C38.0482 9.60639 37.9586 9.62845 37.9421 9.65786C37.8918 9.75405 37.8466 9.85285 37.8067 9.95386C37.7894 9.98893 37.7788 10.027 37.7756 10.066C37.7546 10.2649 37.7589 10.4657 37.7884 10.6635C37.8268 10.8198 37.7207 10.886 37.6841 10.9944C37.66 10.9924 37.6365 10.9862 37.6146 10.976C37.61 10.8977 37.61 10.8191 37.6146 10.7407C37.6146 10.6929 37.642 10.6433 37.6329 10.5992C37.6237 10.555 37.5688 10.5679 37.5322 10.5532C37.5322 10.5918 37.5487 10.647 37.5322 10.669C37.3346 10.8804 37.556 11.1084 37.5176 11.3364C37.4956 11.4724 37.4663 11.614 37.4371 11.7537C37.4297 11.8098 37.4297 11.8667 37.4371 11.9228C37.4371 11.9541 37.4663 12.0074 37.4554 12.0148C37.2431 12.1674 37.4243 12.4008 37.3456 12.5865C37.3145 12.6601 37.4096 12.7851 37.4462 12.888C37.4645 12.9358 37.5103 13.0075 37.4938 13.0277C37.362 13.1895 37.5176 13.2796 37.5761 13.3954C37.6149 13.4475 37.6392 13.509 37.6466 13.5736C37.654 13.6382 37.6442 13.7036 37.6182 13.7631C37.6054 13.8645 37.6246 13.9674 37.6731 14.0573C37.7115 14.1721 37.7739 14.2774 37.8561 14.3661C38.0043 14.4967 37.9714 14.6585 37.9787 14.8166C37.9787 14.8883 37.9348 15.0133 38.0977 14.9471C38.1141 14.9471 38.1599 14.9765 38.1745 15.0004C38.2715 15.153 38.2697 15.1548 38.2971 15.1512C38.3703 15.1512 38.4581 15.107 38.513 15.1364C38.5472 15.1552 38.5766 15.1815 38.5991 15.2133C38.6216 15.2452 38.6366 15.2818 38.643 15.3203C38.6338 15.4471 38.643 15.5427 38.7601 15.6071C38.7839 15.62 38.7894 15.6696 38.804 15.7009C38.8373 15.7838 38.8752 15.8648 38.9174 15.9435C38.9321 15.9693 38.9815 15.9766 39.0163 15.9932C39.01 15.9579 38.9982 15.9237 38.9815 15.8921C38.9595 15.8571 38.9138 15.8369 38.8991 15.8001C38.8911 15.7638 38.8911 15.7261 38.8991 15.6898C38.9282 15.7011 38.9564 15.7146 38.9833 15.7303C39.0148 15.747 39.0424 15.7702 39.0642 15.7985C39.086 15.8268 39.1016 15.8594 39.11 15.8942C39.1183 15.929 39.1191 15.9651 39.1124 16.0003C39.1057 16.0354 39.0917 16.0687 39.0712 16.098C39.0626 16.1183 39.0582 16.1402 39.0582 16.1623C39.0582 16.1844 39.0626 16.2063 39.0712 16.2267C39.1096 16.3149 39.1663 16.3921 39.2066 16.4785C39.2761 16.6311 39.3255 16.7911 39.406 16.9363C39.4518 16.9966 39.4841 17.066 39.5008 17.1399C39.5176 17.2138 39.5183 17.2904 39.503 17.3647C39.4939 17.3959 39.5542 17.4455 39.5799 17.4897C39.6264 17.5573 39.6651 17.6301 39.6951 17.7066C39.6951 17.7213 39.6018 17.7654 39.5561 17.8022C39.5428 17.8188 39.5363 17.8398 39.5378 17.861C39.5378 18.0008 39.5817 18.1644 39.3658 18.2122C39.3292 18.2122 39.3145 18.3354 39.2907 18.396C39.342 18.385 39.3932 18.374 39.4445 18.3666C39.4609 18.3666 39.4792 18.3795 39.4957 18.385C39.4441 18.4612 39.3872 18.5337 39.3255 18.6019C39.3109 18.6148 39.2432 18.5744 39.2011 18.5541C39.159 18.5339 39.1334 18.521 39.1004 18.5045C39.098 18.537 39.0919 18.569 39.0821 18.6001C39.062 18.6516 39.0382 18.7398 39.0089 18.7417C38.8955 18.7545 38.89 18.7784 38.9595 18.8612C38.9723 18.8795 38.9357 18.9641 38.9028 18.9862C38.8817 18.9976 38.8581 19.0036 38.8342 19.0036C38.8102 19.0036 38.7866 18.9976 38.7656 18.9862C38.7033 18.92 38.6796 18.7288 38.5698 18.9531C38.5698 18.9659 38.5167 18.9531 38.4911 18.9531C38.4427 18.9678 38.395 18.985 38.3483 19.0046C38.3941 19.0097 38.439 19.0208 38.4819 19.0376C38.5091 19.0529 38.5303 19.0768 38.5423 19.1057C38.4966 19.1645 38.4527 19.2435 38.3904 19.2674C38.2853 19.2981 38.1774 19.3184 38.0684 19.3281C38.0168 19.3293 37.9664 19.3439 37.922 19.3704C37.8707 19.4182 37.6182 19.2141 37.7591 19.4973C37.7591 19.4973 37.7353 19.5212 37.7225 19.5322C37.7097 19.5432 37.6859 19.5009 37.6786 19.4807C37.6457 19.3888 37.6164 19.3428 37.5103 19.4237C37.4367 19.4645 37.3545 19.4872 37.2705 19.4899C37.0985 19.5101 36.9247 19.5212 36.7509 19.5322C36.6539 19.5322 36.5514 19.5451 36.5679 19.3943C36.5679 19.3722 36.5551 19.33 36.5441 19.3281C36.4196 19.3134 36.2934 19.3005 36.1671 19.2969C36.136 19.2969 36.1049 19.3355 36.0738 19.3557C36.0958 19.3869 36.1122 19.4366 36.1415 19.4458C36.1708 19.455 36.2531 19.4458 36.3025 19.4568C36.3519 19.4678 36.3446 19.5193 36.3629 19.5542C36.3296 19.5647 36.2952 19.5715 36.2604 19.5745C36.1342 19.5634 36.0061 19.5524 35.8798 19.5303C35.8341 19.5303 35.7279 19.5028 35.856 19.4329C35.867 19.4329 35.8414 19.3539 35.8323 19.3116C35.8043 19.3255 35.7748 19.336 35.7444 19.3428C35.7042 19.3428 35.6383 19.363 35.6218 19.3428C35.4571 19.1332 35.2101 19.216 35.0051 19.1682C34.8002 19.1204 34.7508 19.1075 34.791 18.8869C34.791 18.8685 34.7727 18.8317 34.7581 18.8299C34.531 18.7778 34.3291 18.6478 34.1872 18.4622C34.1655 18.4381 34.1353 18.4236 34.103 18.4218C33.737 18.442 33.6712 18.0669 33.4516 17.8978C33.382 17.8426 33.4095 17.6147 33.4516 17.4786C33.4937 17.3426 33.3418 17.3187 33.307 17.2304C33.2516 17.2538 33.1994 17.2841 33.1515 17.3205C33.1222 17.3481 33.1204 17.4033 33.1075 17.4455C33.1402 17.4217 33.1744 17.4002 33.21 17.3812C33.2411 17.3683 33.2979 17.3499 33.3052 17.361C33.3323 17.3964 33.3477 17.4395 33.3491 17.4842C33.3491 17.5044 33.307 17.5411 33.2814 17.5448C33.049 17.5834 33.0161 17.5448 33.0618 17.3095C33.0696 17.2475 33.0627 17.1845 33.0417 17.1257C33.0106 17.0135 32.9172 16.9124 33.0179 16.7837C33.0362 16.7616 32.9813 16.6826 32.9612 16.6293C32.952 16.673 32.9398 16.716 32.9246 16.758C32.9118 16.7874 32.877 16.8352 32.8642 16.8315C32.8184 16.8186 32.7452 16.7929 32.7397 16.7616C32.7196 16.6311 32.608 16.5484 32.6281 16.3719C32.6482 16.1954 32.4762 16.0097 32.3866 15.8112C32.3663 15.7738 32.3486 15.7351 32.3335 15.6953C32.3335 15.6953 32.3701 15.6641 32.3902 15.6475C32.4034 15.6902 32.4232 15.7305 32.4488 15.767C32.4918 15.8139 32.5403 15.8552 32.5934 15.8902C32.5934 15.8902 32.6446 15.8902 32.6446 15.8773C32.6446 15.7726 32.6446 15.6659 32.6446 15.5611C32.6449 15.5547 32.6439 15.5484 32.6417 15.5424C32.6395 15.5364 32.6361 15.5309 32.6318 15.5262C32.554 15.4525 32.4925 15.3631 32.4512 15.264C32.4099 15.1649 32.3898 15.0582 32.3921 14.9508C32.3986 14.7957 32.3807 14.6406 32.339 14.4912C32.2384 14.2301 32.1158 13.9212 32.2329 13.5922C32.2694 13.4331 32.2854 13.27 32.2804 13.1068C32.2804 13.0737 32.2896 13.0204 32.2713 13.0094C32.167 12.9377 32.1652 12.8531 32.1835 12.7373C32.1926 12.695 32.1176 12.6196 32.0663 12.581C31.9675 12.5019 32.0005 12.4155 32.0297 12.3181C32.0828 12.1343 32.1725 11.932 32.0645 11.7169C32.0343 11.6176 32.025 11.5131 32.0371 11.4099C32.0371 11.4099 32.1121 11.3915 32.1194 11.4099C32.1652 11.4798 32.1981 11.557 32.2402 11.6287C32.2621 11.659 32.2866 11.6873 32.3134 11.7133C32.3298 11.6857 32.3573 11.6581 32.361 11.6287C32.3691 11.5889 32.364 11.5475 32.3463 11.511C32.2749 11.4139 32.23 11.2996 32.2162 11.1796C32.2024 11.0596 32.2201 10.9381 32.2676 10.8271C32.2951 10.7573 32.2512 10.6617 32.2457 10.5771C32.2402 10.4925 32.2457 10.3804 32.2457 10.2811C32.2457 10.2811 32.2786 10.2682 32.2969 10.2609C32.2969 10.2885 32.3189 10.3179 32.3262 10.3473C32.3335 10.3767 32.35 10.4558 32.3628 10.5091C32.3976 10.4686 32.436 10.4282 32.4689 10.3859C32.5019 10.3436 32.6519 10.2958 32.5787 10.1542C32.5311 10.0642 32.5055 10.009 32.414 10.1064C32.3939 10.1303 32.3372 10.1616 32.3317 10.1561C32.2713 10.0954 32.2164 10.0274 32.1615 9.96121L32.2841 9.90973C32.3079 9.8987 32.3408 9.89686 32.3518 9.87848C32.4561 9.72956 32.5604 9.58249 32.6556 9.42806C32.694 9.35309 32.7166 9.27096 32.7219 9.18681C32.7273 9.10266 32.7153 9.0183 32.6867 8.93903C32.6789 8.91365 32.6766 8.88686 32.6801 8.86052C32.6836 8.83417 32.6927 8.8089 32.7068 8.78644C32.7488 8.75244 32.7762 8.70354 32.7834 8.64983C32.7905 8.59611 32.7769 8.5417 32.7452 8.4978C32.7452 8.48126 32.7672 8.44265 32.78 8.41323C32.791 8.43699 32.8058 8.45874 32.8239 8.47758C32.8548 8.49374 32.8873 8.50668 32.9209 8.51619C32.9476 8.45455 32.966 8.38964 32.9758 8.32315C32.9675 8.26084 32.9541 8.19934 32.9355 8.1393C32.9355 8.1154 32.963 8.08783 32.9795 8.06209L33.0289 8.12827C33.0545 8.16504 33.0764 8.20549 33.1057 8.24042C33.1141 8.24526 33.1235 8.24781 33.1332 8.24781C33.1428 8.24781 33.1523 8.24526 33.1606 8.24042C33.1716 8.22939 33.1606 8.20365 33.1606 8.18343C33.1606 8.1632 33.1606 8.08783 33.1606 8.04003C33.307 8.05474 33.3125 7.94994 33.3015 7.85618C33.2722 7.62454 33.5028 7.60983 33.5998 7.48849C33.6272 7.4554 33.6821 7.44069 33.7078 7.40576C33.7334 7.37083 33.7206 7.33222 33.7279 7.29546C33.6895 7.29546 33.6327 7.28075 33.6181 7.29546C33.5559 7.38186 33.501 7.34877 33.4754 7.28075C33.4644 7.25133 33.5266 7.15941 33.5504 7.16125C33.7132 7.17228 33.7425 7.07116 33.7828 6.94615C33.7974 6.90203 33.9145 6.89835 33.9767 6.86158C34.0326 6.82387 34.0847 6.78077 34.1323 6.73289C34.0939 6.71267 34.039 6.70347 34.0243 6.67222C33.9783 6.60023 33.953 6.5169 33.9511 6.43138C33.9511 6.37991 34.0536 6.3413 34.1103 6.29901C34.1103 6.29901 34.1305 6.29901 34.1396 6.29901C34.1488 6.29901 34.1396 6.34314 34.1396 6.35417C34.1396 6.3652 34.0847 6.40197 34.0701 6.42955C34.051 6.47033 34.0357 6.51279 34.0243 6.5564C34.0591 6.53618 34.0939 6.51595 34.1268 6.49389C34.2401 6.43138 34.3495 6.362 34.4543 6.28615C34.5678 6.19238 34.716 6.1023 34.7544 5.96809C34.805 5.84192 34.8466 5.71228 34.8789 5.58018C34.9027 5.39634 34.9283 5.30074 35.1131 5.24558C35.1955 5.22168 35.2961 5.21433 35.232 5.06174C35.168 4.90915 35.4022 4.73082 35.5687 4.78229C35.5905 4.78639 35.6129 4.78572 35.6344 4.78033C35.6558 4.77493 35.6759 4.76494 35.6932 4.75104C35.8652 4.60029 36.0372 4.44586 36.1982 4.28407C36.2531 4.22892 36.3812 4.15906 36.2202 4.07081C36.2623 4.03404 36.2989 3.97337 36.3465 3.96602C36.5532 3.92925 36.5971 3.81343 36.6045 3.6112C36.6045 3.51928 36.7692 3.42735 36.8588 3.34095C36.8655 3.38526 36.8759 3.42893 36.8899 3.47148C36.9053 3.5063 36.925 3.53904 36.9485 3.56892C37.1406 3.46596 37.3309 3.35933 37.5194 3.25086C37.5411 3.23362 37.5608 3.21387 37.578 3.19203C37.5472 3.18169 37.5152 3.17551 37.4828 3.17365C37.4188 3.18284 37.3565 3.20306 37.2998 3.21226C37.2633 3.21502 37.2266 3.21502 37.19 3.21226C37.212 3.17733 37.2266 3.12953 37.2577 3.11114C37.406 3.0229 37.5652 2.95303 37.7079 2.8556C37.8049 2.79036 37.8882 2.70667 37.9531 2.60924C38.019 2.50261 38.0354 2.44746 38.1489 2.58351C38.2623 2.71955 38.288 2.56144 38.3319 2.47688C38.3758 2.39231 38.4783 2.27465 38.535 2.16802C38.6418 2.02712 38.7875 1.92097 38.954 1.86283C38.9827 1.85673 39.0098 1.84455 39.0335 1.82712C39.0572 1.80968 39.0769 1.78739 39.0913 1.76172C39.1773 1.57787 39.2615 1.5411 39.4152 1.622C39.4316 1.622 39.4957 1.59258 39.5048 1.565C39.5542 1.41609 39.5744 1.4216 39.7299 1.4786C39.8259 1.4999 39.9262 1.48892 40.0154 1.44734C40.2276 1.36277 40.4326 1.2635 40.643 1.16606C40.6577 1.16606 40.6851 1.17893 40.7052 1.1918C40.7254 1.20467 40.7675 1.23224 40.8004 1.25431C40.8166 1.1938 40.8295 1.13242 40.8388 1.07046C40.8388 1.03185 40.8041 0.96383 40.8114 0.960153C40.8594 0.934719 40.9126 0.920871 40.9669 0.919707C41.1078 0.919707 41.2487 0.919707 41.386 0.919707C41.4609 0.900271 41.5304 0.863788 41.5891 0.813077C41.655 0.763439 41.6989 0.65497 41.7977 0.778147C41.8481 0.770518 41.8952 0.748139 41.9331 0.713801C41.9572 0.678703 41.9939 0.654327 42.0355 0.645763C42.0771 0.637199 42.1204 0.645108 42.1563 0.667839C42.2521 0.694468 42.3533 0.694468 42.4491 0.667839C42.4784 0.667839 42.4985 0.597978 42.5223 0.559371C42.48 0.551753 42.4372 0.54684 42.3942 0.544663C42.3554 0.548721 42.3169 0.555478 42.2789 0.564886C42.2789 0.533633 42.2789 0.48951 42.2881 0.474802C42.3218 0.441048 42.3643 0.41748 42.4107 0.406779C42.5113 0.392072 42.6138 0.390233 42.7163 0.384718C42.7364 0.384718 42.773 0.384718 42.7785 0.395749C42.7907 0.431565 42.7993 0.468519 42.8041 0.506056C42.8407 0.474828 42.8739 0.439691 42.9029 0.401264C42.9637 0.344097 43.0376 0.302802 43.118 0.281004C43.1984 0.259207 43.2829 0.257574 43.3641 0.276249C43.5105 0.325888 43.6623 0.54834 43.8325 0.305665C43.8325 0.292795 43.8691 0.294634 43.8874 0.289119C43.9057 0.283603 43.8874 0.26338 43.8764 0.261542C43.8454 0.246789 43.8119 0.238056 43.7776 0.235803C43.7301 0.235803 43.6752 0.274411 43.6367 0.259703C43.5815 0.231597 43.5314 0.194301 43.4885 0.149396L43.6825 0.0979197C43.7152 0.0925011 43.7486 0.0925011 43.7813 0.0979197C43.9643 0.129173 44.1363 0.160427 44.3101 0.202711C44.3357 0.202711 44.3357 0.292795 44.3632 0.327726C44.3754 0.341263 44.3904 0.351914 44.4072 0.358909C44.4239 0.365903 44.442 0.369067 44.4602 0.368172C44.57 0.347949 44.6779 0.318534 44.7859 0.290957C44.7731 0.267057 44.7639 0.230288 44.7438 0.221096C44.7089 0.202887 44.6692 0.19644 44.6304 0.202711C44.5883 0.202711 44.5498 0.246834 44.5096 0.250511C44.4693 0.254188 44.4565 0.213742 44.4309 0.193519C44.5007 0.12223 44.5794 0.0604236 44.6651 0.00967401C44.696 0.00369668 44.7278 0.0058002 44.7576 0.015782C44.7874 0.0257638 44.8142 0.0432876 44.8353 0.066666C44.8829 0.200873 44.9579 0.154912 45.0549 0.149396C45.2279 0.144207 45.4011 0.152813 45.5727 0.175135C45.71 0.188004 45.8436 0.305665 45.9863 0.175135C46.0101 0.151235 46.0778 0.175135 46.1272 0.175135C46.2608 0.175135 46.3925 0.175135 46.5261 0.175135C46.5717 0.17813 46.617 0.184893 46.6615 0.195358C46.6286 0.230288 46.5975 0.265219 46.5627 0.298311C46.5279 0.331403 46.5188 0.331403 46.4968 0.347949C46.5097 0.35898 46.5225 0.377364 46.5371 0.381041C46.8683 0.439872 47.1959 0.537309 47.5399 0.404941C47.5891 0.401896 47.6383 0.410644 47.6835 0.430461C47.7287 0.450279 47.7685 0.4806 47.7997 0.518925C47.9516 0.724831 48.1657 0.70277 48.3706 0.713801C48.4182 0.713801 48.4786 0.70277 48.5079 0.72667C48.6378 0.8333 48.7256 0.829623 48.8007 0.666001C48.8336 0.594301 48.883 0.597978 48.9837 0.634747C49.1374 0.693578 49.2636 0.862715 49.4613 0.800208C49.4704 0.800208 49.4887 0.827785 49.5033 0.842492L49.5894 0.914192C49.5772 0.881523 49.5686 0.847617 49.5637 0.813077C49.5597 0.778162 49.5609 0.742829 49.5674 0.708285L49.6516 0.745054C49.7632 0.800208 49.8766 0.842492 49.7687 1.00979C49.7174 1.09068 49.8437 1.15135 49.9992 1.10171C50.1968 1.04882 50.4055 1.05521 50.5994 1.1201C50.6296 1.13082 50.6585 1.145 50.6855 1.16238C50.8684 1.26901 51.0642 1.37748 51.2564 1.48227C51.2747 1.48227 51.3131 1.47124 51.3406 1.45837C51.3657 1.44557 51.3933 1.43837 51.4215 1.43728C51.4497 1.43619 51.4778 1.44123 51.5038 1.45205C51.5299 1.46288 51.5533 1.47923 51.5725 1.49999C51.5917 1.52076 51.6062 1.54544 51.615 1.57236C51.6309 1.66794 51.6805 1.75458 51.7548 1.81638C51.829 1.87818 51.923 1.91099 52.0194 1.90879C52.125 1.90839 52.2299 1.92452 52.3305 1.95659C52.3946 1.98233 52.4769 2.07242 52.4751 2.13125C52.4751 2.34083 52.5574 2.43459 52.766 2.39231C52.8612 2.37208 52.8429 2.37576 52.8594 2.46952C52.885 2.62211 53.0259 2.66991 53.1485 2.69014C53.2604 2.69345 53.3724 2.68233 53.4815 2.65704C53.5318 2.64878 53.5831 2.64878 53.6334 2.65704C53.6645 2.65704 53.6901 2.69749 53.7194 2.71955C53.6829 2.73846 53.6442 2.75266 53.6041 2.76184C53.5035 2.77103 53.4028 2.77103 53.3022 2.78022C53.2894 2.78022 53.2638 2.82986 53.2711 2.83905C53.3059 2.89053 53.3498 2.98061 53.39 2.97877C53.5474 2.97877 53.6005 3.06334 53.6426 3.18836C53.6624 3.22742 53.6955 3.25807 53.7359 3.27476C53.7822 3.29073 53.83 3.30182 53.8786 3.30786L53.7981 3.20674C53.772 3.18458 53.7481 3.15995 53.7267 3.1332C53.7076 3.09242 53.6923 3.04995 53.681 3.00635C53.717 3.0239 53.7513 3.04483 53.7835 3.06886C53.9463 3.21961 54.1092 3.3722 54.2684 3.52663C54.283 3.54503 54.2936 3.56633 54.2995 3.58914C54.2208 3.58914 54.1403 3.60385 54.0598 3.60385C54.0598 3.60385 54.0598 3.54502 54.0451 3.51376C54.0305 3.48251 54.0177 3.41816 54.003 3.3722C53.9701 3.38323 53.9244 3.38507 53.9061 3.40897C53.8878 3.43287 53.8384 3.52663 53.853 3.54318C53.9179 3.6182 53.9961 3.68053 54.0836 3.72702C54.1751 3.76931 54.305 3.74173 54.3214 3.89248C54.3214 3.89248 54.3946 3.90719 54.402 3.89248C54.4297 3.84394 54.4512 3.79204 54.466 3.73805L54.4715 3.74541ZM51.8474 27.8971C51.8793 27.8711 51.9081 27.8414 51.9334 27.8089C51.9638 27.7578 51.9913 27.705 52.0158 27.6508C51.9559 27.6687 51.8999 27.698 51.8511 27.7372C51.8218 27.7721 51.8328 27.842 51.8072 27.8971L51.7523 28.0516C51.7669 28.0516 51.7907 28.0424 51.7944 28.0332C51.8051 27.9854 51.823 27.9395 51.8474 27.8971V27.8971ZM45.9387 0.368172C45.968 0.460095 45.9991 0.528117 46.1217 0.454579C46.2018 0.418065 46.2851 0.389138 46.3706 0.368172C46.386 0.359658 46.4007 0.349816 46.4145 0.338757C46.3999 0.320372 46.3834 0.28728 46.3724 0.28728C46.2263 0.305357 46.0815 0.332371 45.9387 0.368172V0.368172ZM51.9097 2.13308L51.8822 2.07793C51.895 2.14412 51.8822 2.23236 51.9261 2.27281C51.9862 2.31822 52.0579 2.34562 52.1329 2.35186C52.1695 2.35186 52.2152 2.33531 52.2573 2.32428C52.2372 2.29487 52.2262 2.25075 52.2006 2.23972C52.1128 2.20478 52.0176 2.18088 51.9097 2.13308V2.13308ZM52.777 26.7518C52.7075 26.8143 52.6343 26.875 52.5666 26.9356C52.5465 26.9629 52.5299 26.9925 52.5172 27.0239C52.5593 27.0331 52.6215 27.0606 52.6398 27.0441C52.7285 26.9531 52.8116 26.8567 52.8886 26.7555C52.8996 26.7426 52.8886 26.7095 52.8886 26.6874C52.8516 26.7038 52.8161 26.7235 52.7825 26.7463L52.777 26.7518ZM34.0591 6.91122L33.7864 7.18331C33.8029 7.19618 33.8285 7.22376 33.8358 7.22008C33.9456 7.15573 34.0518 7.08587 34.1579 7.01785L34.0591 6.91122ZM48.9965 0.919707C49.0257 0.932576 49.0569 0.961992 49.0806 0.958315C49.1296 0.944762 49.1769 0.925641 49.2215 0.901323C49.1793 0.862777 49.1326 0.829448 49.0825 0.802046C49.0186 0.774425 48.9525 0.752285 48.8848 0.735862C48.8854 0.767792 48.8909 0.799435 48.9013 0.829623C48.916 0.855362 48.9507 0.871908 48.9965 0.914192V0.919707ZM51.0313 1.70105C51.0814 1.72805 51.1334 1.7514 51.1868 1.77091C51.2051 1.77091 51.2344 1.75436 51.2582 1.74517L51.1191 1.57603C51.0752 1.61832 51.0331 1.65876 51.0313 1.70105V1.70105ZM44.8225 29.8073C44.7365 29.879 44.6487 29.9488 44.5681 30.0279C44.5517 30.0444 44.5681 30.0996 44.5681 30.1364C44.6011 30.1364 44.6505 30.1364 44.6633 30.1253C44.731 30.0279 44.7834 29.9207 44.8188 29.8073H44.8225ZM50.0304 23.165C49.9681 23.2422 49.9023 23.3176 49.8474 23.3984C49.8327 23.4168 49.8474 23.461 49.862 23.4922C49.862 23.4922 49.9096 23.4922 49.9132 23.4922C49.9662 23.3906 50.0055 23.2824 50.0304 23.1705V23.165ZM48.9965 32.7598L49.0184 32.9271C49.0629 32.8615 49.1027 32.7926 49.1374 32.7212C49.1502 32.6863 49.1227 32.6367 49.1136 32.5944C49.0806 32.6422 49.0495 32.6918 48.9965 32.7598V32.7598ZM35.4224 4.87605C35.4196 4.90356 35.4196 4.93128 35.4224 4.95878C35.4352 5.00842 35.4553 5.05622 35.4699 5.10586L35.6182 4.96982C35.5742 4.94592 35.5303 4.92385 35.4864 4.89628C35.4779 4.88837 35.4677 4.88245 35.4566 4.87896C35.4456 4.87546 35.4339 4.87447 35.4224 4.87605V4.87605ZM44.6377 30.2467C44.6102 30.311 44.5809 30.3754 44.5572 30.4416L44.634 30.4746C44.6508 30.424 44.6649 30.3724 44.6761 30.3202C44.6761 30.3055 44.6651 30.2853 44.6377 30.2467V30.2467ZM52.6123 8.82505L52.6306 8.92616C52.6654 8.8802 52.7368 8.82689 52.7276 8.79379C52.7185 8.7607 52.6489 8.689 52.605 8.63752C52.605 8.68532 52.605 8.73496 52.605 8.82137L52.6123 8.82505ZM56.4478 6.33027C56.4422 6.37729 56.4422 6.42481 56.4478 6.47183C56.4478 6.50124 56.4917 6.52514 56.5136 6.55088C56.5319 6.53066 56.5667 6.50492 56.5612 6.49389C56.5283 6.40197 56.4862 6.31005 56.4459 6.22548C56.4331 6.24938 56.4203 6.27144 56.4093 6.29534L56.4441 6.33027H56.4478ZM55.5145 23.6632C55.4907 23.7 55.467 23.7367 55.445 23.7753C55.423 23.8139 55.4121 23.8415 55.3956 23.8746C55.4249 23.8746 55.4633 23.8746 55.4798 23.8746C55.5148 23.8425 55.5423 23.8029 55.5603 23.7588C55.5603 23.7441 55.5438 23.7147 55.5145 23.6705V23.6632ZM58.521 13.605L58.3637 13.5131V13.6969C58.4228 13.6813 58.4762 13.6487 58.5174 13.6032L58.521 13.605ZM47.4886 0.599817L47.6533 0.621878V0.515248C47.592 0.526787 47.5353 0.556196 47.4905 0.599817H47.4886ZM43.8106 5.29154L43.6038 5.33199L43.6203 5.38714C43.6882 5.36905 43.7509 5.33503 43.8032 5.28787L43.8106 5.29154ZM54.3818 13.3017L54.3306 13.2392C54.3068 13.2943 54.2794 13.3495 54.2611 13.4065C54.2611 13.4065 54.3068 13.4322 54.3306 13.4469C54.355 13.4014 54.3722 13.3524 54.3818 13.3017V13.3017ZM58.2667 12.934L58.2337 12.9138C58.2209 12.9947 58.2081 13.0755 58.199 13.1564C58.199 13.1693 58.2264 13.184 58.2392 13.1987L58.2667 13.0149C58.2667 13.002 58.2667 12.9873 58.2667 12.9321V12.934ZM33.0874 8.38566C33.0759 8.43572 33.0698 8.48687 33.0691 8.53825C33.0691 8.57134 33.1057 8.60259 33.1258 8.63385C33.1367 8.596 33.144 8.55723 33.1478 8.51803C33.1482 8.49284 33.143 8.46788 33.1325 8.44498C33.1221 8.42208 33.1067 8.40181 33.0874 8.38566ZM32.8806 16.1072C32.8806 16.0318 32.8678 15.9582 32.8587 15.8847C32.8587 15.8737 32.8276 15.859 32.8129 15.8608C32.7983 15.8626 32.7763 15.8865 32.78 15.8976C32.7943 15.9752 32.829 16.0476 32.8806 16.1072V16.1072ZM49.5967 0.974861L49.5674 1.11458L49.6918 1.08149C49.67 1.03701 49.6356 0.999934 49.593 0.974861H49.5967ZM53.1906 26.4245L53.0552 26.3197L53.0277 26.3841C53.0784 26.4093 53.134 26.4232 53.1906 26.4245V26.4245ZM36.4343 4.14987C36.4617 4.14987 36.4965 4.1609 36.5148 4.14987C36.5406 4.12326 36.5621 4.09289 36.5788 4.05978L36.4325 4.03037C36.4215 4.07006 36.4215 4.11201 36.4325 4.1517L36.4343 4.14987ZM38.8699 1.94556C38.8977 1.98811 38.9276 2.02922 38.9595 2.06874C38.9595 2.06874 38.9961 2.04852 39.0144 2.03565C38.9746 1.99387 38.9248 1.96289 38.8699 1.94556V1.94556ZM44.3888 30.6162L44.4766 30.721L44.5132 30.585C44.4703 30.5879 44.4281 30.5985 44.3888 30.6162ZM32.5293 13.9727L32.3976 13.8973L32.3664 13.9617C32.4193 13.9828 32.4782 13.9828 32.5311 13.9617L32.5293 13.9727ZM46.4767 5.35405L46.5792 5.32464C46.5591 5.30625 46.5426 5.28051 46.5188 5.27316C46.474 5.25906 46.4281 5.24861 46.3816 5.24191C46.3993 5.2893 46.4329 5.32897 46.4767 5.35405V5.35405ZM32.447 13.8109L32.3317 13.6767L32.2878 13.7337C32.3341 13.7716 32.3886 13.7981 32.447 13.8109V13.8109ZM54.1824 16.6256L54.2665 16.7065L54.3288 16.6072C54.2793 16.6045 54.2297 16.6107 54.1824 16.6256V16.6256ZM47.7576 25.4502C47.7576 25.5108 47.7375 25.5697 47.732 25.634L47.7723 25.6469C47.7875 25.5826 47.7824 25.5151 47.7576 25.4538V25.4502ZM49.1008 6.28798L49.227 6.32659C49.2296 6.30338 49.2296 6.27994 49.227 6.25673C49.2048 6.25089 49.1814 6.25069 49.1591 6.25614C49.1367 6.2616 49.1161 6.27254 49.0989 6.28798H49.1008ZM37.2394 13.5131L37.3639 13.4432C37.3383 13.4322 37.3035 13.4028 37.287 13.412C37.2708 13.423 37.2579 13.4383 37.2495 13.456C37.2412 13.4738 37.2377 13.4935 37.2394 13.5131V13.5131ZM52.7368 2.55225L52.6123 2.51364L52.7349 2.6552C52.7453 2.62168 52.7453 2.58577 52.7349 2.55225H52.7368ZM51.3717 7.15941L51.5217 7.2164L51.5364 7.16309C51.5103 7.15216 51.4823 7.14654 51.454 7.14654C51.4257 7.14654 51.3978 7.15216 51.3717 7.16309V7.15941ZM39.2212 7.4554L39.1242 7.42782L39.1114 7.551C39.1572 7.53174 39.1957 7.49824 39.2212 7.4554V7.4554ZM58.4808 15.2982L58.424 15.1567L58.3655 15.2045C58.3938 15.2465 58.4339 15.2792 58.4808 15.2982V15.2982ZM54.4935 4.56536L54.563 4.59477C54.5959 4.60948 54.6289 4.62786 54.6618 4.64441C54.6618 4.63338 54.6801 4.61499 54.6783 4.61316C54.6514 4.5807 54.6184 4.55384 54.5813 4.5341C54.5652 4.52952 54.5481 4.53007 54.5324 4.53567C54.5167 4.54127 54.5031 4.55164 54.4935 4.56536V4.56536ZM39.0583 16.9988L39.1425 17.0392L39.1791 16.9142C39.1462 16.9363 39.1132 16.9565 39.0583 16.9988V16.9988ZM48.9763 24.268L49.0459 24.3636L49.0971 24.2662C49.0576 24.2551 49.0158 24.2551 48.9763 24.2662V24.268ZM47.4466 25.9686L47.474 26.1138L47.5271 26.0973C47.5125 26.0478 47.4846 26.0033 47.4466 25.9686V25.9686ZM32.694 15.2137L32.5988 15.153C32.5988 15.1695 32.5988 15.1934 32.5988 15.2026C32.6318 15.2431 32.6702 15.2798 32.7086 15.3185C32.7099 15.2824 32.7031 15.2466 32.6885 15.2137H32.694ZM44.0777 33.7508L43.9917 33.6717L44.0283 33.828C44.0419 33.8198 44.0535 33.8086 44.0621 33.7952C44.0706 33.7818 44.076 33.7666 44.0777 33.7508V33.7508ZM37.6127 10.316L37.6255 10.4116L37.7189 10.2976C37.6825 10.2953 37.6462 10.3016 37.6127 10.316ZM39.4298 1.83893L39.32 1.78746L39.3036 1.87938C39.3474 1.87236 39.39 1.85873 39.4298 1.83893V1.83893ZM46.8482 0.704608C46.8939 0.704608 46.9378 0.724831 46.9836 0.732185C46.9877 0.721466 46.9907 0.710386 46.9927 0.699093C46.9551 0.684919 46.9166 0.67325 46.8775 0.664163C46.8628 0.664163 46.8445 0.677032 46.8482 0.704608ZM40.9797 1.16054L41.0785 1.18628V1.08884C41.0399 1.10071 41.0067 1.12616 40.9852 1.16054H40.9797ZM42.6742 0.662324L42.6138 0.735862H42.7639C42.7402 0.702341 42.7061 0.677746 42.6669 0.666001L42.6742 0.662324ZM35.3473 19.0174L35.2522 19.0873L35.351 19.1388C35.3609 19.0989 35.3609 19.0573 35.351 19.0174H35.3473ZM47.0623 5.25477L46.9525 5.28235L46.9946 5.35221C47.0273 5.32816 47.0511 5.29389 47.0623 5.25477V5.25477ZM58.199 11.6691L58.2283 11.8217L58.285 11.7905C58.2587 11.7483 58.23 11.7078 58.199 11.6691V11.6691ZM32.3976 10.6506L32.4909 10.7131L32.522 10.6525C32.5029 10.642 32.4815 10.6365 32.4598 10.6365C32.438 10.6365 32.4166 10.642 32.3976 10.6525V10.6506ZM37.2394 3.58914L37.1516 3.52663L37.1168 3.58362C37.1569 3.59532 37.1994 3.59532 37.2394 3.58362V3.58914ZM34.6776 6.28247L34.6264 6.21996L34.5952 6.30269C34.6091 6.3096 34.625 6.31135 34.6401 6.30765C34.6552 6.30396 34.6684 6.29504 34.6776 6.28247V6.28247ZM56.6216 6.74024L56.5942 6.63545L56.5374 6.67222C56.5555 6.7051 56.5858 6.72952 56.6216 6.74024ZM52.5702 20.0672H52.6947V20.0396C52.6722 20.036 52.6493 20.0378 52.6276 20.0449C52.606 20.0519 52.5864 20.064 52.5702 20.08V20.0672ZM51.4723 28.1545L51.5181 28.2336L51.5803 28.1288C51.5451 28.1256 51.5097 28.1319 51.4778 28.1472L51.4723 28.1545ZM56.9675 7.2642C56.9675 7.30465 56.9675 7.34693 56.9675 7.38922H57.0041C57.0077 7.36666 57.006 7.34355 56.999 7.3218C56.992 7.30006 56.9799 7.28031 56.9638 7.2642H56.9675ZM57.833 19.0137C57.833 19.0542 57.833 19.0965 57.833 19.1369H57.8696C57.8731 19.1148 57.8714 19.0922 57.8647 19.0708C57.8581 19.0494 57.8466 19.0299 57.8312 19.0137H57.833ZM39.6567 1.86651L39.6366 1.78378L39.5542 1.81503C39.5832 1.84115 39.6186 1.85893 39.6567 1.86651ZM37.1242 12.5994H36.9997V12.6362C37.022 12.6397 37.0448 12.638 37.0664 12.6313C37.0879 12.6246 37.1077 12.6131 37.1242 12.5975V12.5994ZM43.8801 35.9091L43.924 35.9882L43.9826 35.8889C43.9473 35.8875 43.9122 35.8944 43.8801 35.9091V35.9091ZM44.1271 37.2788L44.0613 37.196L44.0247 37.2328C44.0523 37.2598 44.0886 37.2761 44.1271 37.2788V37.2788ZM48.2188 36.6151L48.259 36.5305L48.2041 36.5048C48.1962 36.5227 48.1934 36.5425 48.196 36.562C48.1986 36.5815 48.2065 36.5998 48.2188 36.6151ZM43.9624 36.821H43.9002L43.9881 36.9111C43.9865 36.8812 43.9777 36.8522 43.9624 36.8265V36.821ZM37.2614 13.7411L37.32 13.6749L37.2504 13.6271C37.2439 13.6654 37.2477 13.7047 37.2614 13.7411V13.7411ZM36.0829 4.50285L36.1488 4.56168L36.1964 4.49366C36.1592 4.48424 36.1202 4.48424 36.0829 4.49366V4.50285ZM48.5829 35.3612L48.6268 35.4421L48.6836 35.3851C48.654 35.3651 48.6182 35.3566 48.5829 35.3612V35.3612ZM39.6366 1.59626L39.6476 1.69002L39.7153 1.64222C39.7066 1.62899 39.6949 1.61795 39.6813 1.60998C39.6676 1.60201 39.6523 1.59731 39.6366 1.59626V1.59626ZM33.0252 9.02911L32.9776 8.96661L32.9502 9.07691C32.9769 9.06382 33.002 9.04779 33.0252 9.02911V9.02911ZM48.6872 34.5192L48.7348 34.5817L48.7622 34.4714C48.7355 34.4845 48.7104 34.5006 48.6872 34.5192V34.5192ZM47.9845 0.892131L47.8601 0.855362V0.936253C47.9022 0.927145 47.9428 0.9123 47.9809 0.892131H47.9845ZM43.9313 33.4327L43.9789 33.4952L44.0064 33.3849C43.9797 33.398 43.9545 33.414 43.9313 33.4327V33.4327ZM51.476 1.61832L51.3735 1.64406L51.3881 1.69553C51.4261 1.68189 51.4575 1.6543 51.476 1.61832V1.61832ZM47.5911 0.745054C47.5968 0.736624 47.6012 0.727309 47.6039 0.717478C47.6039 0.717478 47.5911 0.704608 47.5893 0.704608L47.4594 0.779985C47.5049 0.775513 47.5493 0.763719 47.5911 0.745054V0.745054ZM38.6247 8.21836C38.6247 8.21836 38.6137 8.21836 38.6119 8.23307C38.6112 8.23733 38.6112 8.24167 38.6119 8.24593C38.6478 8.24869 38.6839 8.24869 38.7198 8.24593C38.7222 8.22886 38.7222 8.21153 38.7198 8.19446C38.685 8.19409 38.6506 8.20163 38.6192 8.21652L38.6247 8.21836ZM51.1814 28.8917L51.1228 28.9579L51.1923 29.0057C51.197 28.9674 51.1932 28.9285 51.1814 28.8917V28.8917ZM36.8058 3.86123L36.7582 3.7785L36.7014 3.83549C36.7311 3.85519 36.7668 3.86366 36.8021 3.85939L36.8058 3.86123ZM48.5591 5.78976C48.5872 5.81165 48.6166 5.8319 48.647 5.85043C48.647 5.85043 48.6653 5.83205 48.6744 5.82286C48.6418 5.79992 48.6026 5.7883 48.5628 5.78976H48.5591Z" fill="#17B942"/>
<path d="M47.3331 46.2057C47.2562 46.1211 47.1922 46.088 47.108 46.1891C47.0765 46.2216 47.0341 46.2413 46.9891 46.2443C46.8976 46.2443 46.8061 46.2333 46.9159 46.3693C46.9323 46.3877 46.8774 46.509 46.8299 46.5329C46.6578 46.6212 46.4639 46.5219 46.2809 46.577C46.054 46.6469 45.8234 46.7002 45.5928 46.7609C45.5546 46.7646 45.5159 46.7602 45.4794 46.748C45.4373 46.7388 45.3934 46.7112 45.355 46.7186C45.3165 46.726 45.2543 46.7903 45.2269 46.7774C45.0988 46.7223 44.9158 46.6763 44.8609 46.5734C44.7474 46.3215 44.7145 46.5734 44.6358 46.5844C44.5571 46.5954 44.7401 46.3252 44.5169 46.4925C44.494 46.5069 44.4672 46.5136 44.4402 46.5116C44.4133 46.5096 44.3877 46.499 44.3673 46.4813C44.3468 46.4636 44.3325 46.4398 44.3265 46.4134C44.3205 46.3869 44.3231 46.3592 44.3339 46.3344C44.3339 46.3178 44.3064 46.2921 44.2918 46.27L44.2534 46.3013C44.2259 46.327 44.1912 46.3785 44.1747 46.373C44.1004 46.3507 44.0305 46.3159 43.9679 46.27C43.9277 46.2388 43.924 46.156 43.8837 46.1321C43.7154 46.0347 43.5525 45.9483 43.5452 45.7111C43.5452 45.678 43.4446 45.6541 43.3952 45.6174C43.278 45.5291 43.0841 45.4721 43.2597 45.2662C43.2832 45.2257 43.2904 45.1777 43.2799 45.132C43.2706 45.0803 43.25 45.0313 43.2195 44.9886C43.2048 44.9702 43.1591 44.9721 43.1262 44.9666C43.1326 45.0098 43.1363 45.0534 43.1371 45.0971C43.1461 45.158 43.1461 45.22 43.1371 45.2809C43.1111 45.3325 43.0771 45.3797 43.0365 45.4207C43.0121 45.3838 42.9918 45.3444 42.9761 45.303C42.9306 45.044 42.8402 44.7951 42.7089 44.5676C42.6747 44.5041 42.6567 44.433 42.6567 44.3608C42.6567 44.2886 42.6747 44.2175 42.7089 44.154C42.8389 44.0179 42.44 43.9407 42.7089 43.8102C42.8334 43.7513 42.7291 43.5436 42.6906 43.402C42.6797 43.3634 42.7291 43.3101 42.7401 43.2605C42.7657 43.1299 42.7895 42.9994 42.8023 42.867C42.8023 42.8468 42.7327 42.8229 42.6943 42.799C42.676 42.8337 42.6595 42.8693 42.6449 42.9057C42.635 42.9389 42.6271 42.9726 42.6211 43.0068C42.6211 42.9718 42.6083 42.9387 42.601 42.9038C42.5937 42.8689 42.5534 42.8009 42.5644 42.7567C42.5863 42.6556 42.5863 42.5141 42.762 42.5729C42.7775 42.5751 42.7933 42.5711 42.8059 42.5619C42.8407 42.378 43.0273 42.3633 43.1408 42.2732C43.1811 42.242 43.2872 42.3173 43.3238 42.2199C43.3403 42.1831 43.3512 42.1427 43.364 42.1041C43.3364 42.1213 43.3061 42.1338 43.2744 42.1409C43.2043 42.1445 43.134 42.1445 43.0639 42.1409C43.0969 42.0889 43.1363 42.0414 43.1811 41.9993C43.2597 41.9441 43.364 41.9129 43.4299 41.8559C43.4958 41.7989 43.6129 41.7566 43.5452 41.6132C43.5306 41.582 43.6477 41.49 43.7062 41.4294C43.7062 41.4294 43.7483 41.4294 43.7502 41.4386C43.752 41.4478 43.7502 41.4882 43.7502 41.4974C43.7736 41.52 43.8027 41.5358 43.8343 41.5434C43.9075 41.5544 43.9825 41.5599 44.0576 41.5636C44.0759 41.5636 44.1088 41.5636 44.1106 41.5544C44.1802 41.3007 44.3906 41.3871 44.5571 41.3503C44.6559 41.3283 44.5809 41.2639 44.5443 41.2235L44.4583 41.1242C44.5038 41.0997 44.5524 41.0817 44.6029 41.0709C44.8042 41.0525 45.0109 41.0525 45.2104 41.0231C45.3623 41.001 45.5288 40.8778 45.6514 40.9164C45.9094 41.001 46.1253 40.8392 46.3632 40.8631C46.4254 40.8631 46.5554 40.8153 46.4803 40.9753C46.4803 40.9918 46.506 41.0488 46.5279 41.0543C46.6403 41.0979 46.7613 41.1143 46.8811 41.1021C47.1464 41.0047 47.2654 41.2051 47.4301 41.3246C47.538 41.4055 47.6661 41.4661 47.6826 41.6279C47.6826 41.6518 47.7411 41.6794 47.7777 41.6904C47.8381 41.7041 47.8992 41.7139 47.9607 41.7199L47.8436 41.5875C47.8143 41.5526 47.7722 41.5158 47.7649 41.4753C47.7356 41.3301 47.6204 41.2786 47.5124 41.2124C47.483 41.1874 47.4566 41.1591 47.4337 41.1279C47.4795 41.1279 47.5435 41.0948 47.5673 41.115C47.6643 41.1999 47.7566 41.2901 47.8436 41.3853C47.8582 41.4018 47.8656 41.4349 47.882 41.4404C48.1254 41.5323 48.065 41.7364 48.054 41.9166C48.054 41.9405 48.054 41.9772 48.0778 41.9864C48.2224 42.0581 48.2059 42.2677 48.367 42.3265C48.3926 42.3357 48.4017 42.389 48.4182 42.4221L48.3176 42.3964C48.2932 42.3946 48.2687 42.3946 48.2444 42.3964C48.255 42.4222 48.2692 42.4463 48.2864 42.4681C48.3669 42.5503 48.442 42.6375 48.5115 42.7292C48.539 42.7751 48.528 42.9001 48.5115 42.913C48.2938 43.0013 48.4273 43.1373 48.4749 43.2311C48.5939 43.4553 48.539 43.6833 48.5243 43.9113C48.5243 43.9664 48.5005 44.0418 48.5243 44.0731C48.7073 44.2992 48.4182 44.4408 48.4365 44.6393C48.4365 44.6503 48.4017 44.6632 48.3834 44.6779C48.3834 44.6614 48.3596 44.6467 48.3578 44.6301C48.356 44.6136 48.3578 44.5511 48.3578 44.5106C48.3395 44.5676 48.2956 44.632 48.3084 44.6816C48.3257 44.7986 48.3183 44.918 48.2868 45.032C48.2553 45.146 48.2003 45.2521 48.1254 45.3434C48.1148 45.3538 48.1022 45.362 48.0883 45.3673C48.0745 45.3727 48.0597 45.3752 48.0449 45.3747C47.8839 45.1798 47.8857 45.4078 47.8619 45.4574C47.7521 45.7571 47.4959 45.9538 47.3294 46.213L47.3331 46.2057ZM45.4391 46.5458C45.3312 46.5035 45.2305 46.3877 45.1024 46.5035C45.0886 46.5155 45.0739 46.5266 45.0585 46.5366C45.1362 46.5889 45.2214 46.6292 45.311 46.6561C45.3623 46.6561 45.4245 46.5844 45.4391 46.5458V46.5458ZM42.9212 42.5527C42.9249 42.609 42.9249 42.6655 42.9212 42.7218C42.9212 42.788 42.8919 42.8523 42.8773 42.9185C42.9235 42.8692 42.9657 42.8164 43.0036 42.7604C43.0355 42.7032 43.0577 42.6411 43.0694 42.5766C43.0741 42.5332 43.0741 42.4894 43.0694 42.446C43.0273 42.4736 42.9853 42.4994 42.9212 42.5472V42.5527ZM43.9551 45.9924H43.8929C43.902 46.0218 43.9039 46.0715 43.9203 46.077C43.9926 46.1045 44.0674 46.1248 44.1436 46.1377C44.1436 46.1377 44.1765 46.0972 44.1783 46.0751C44.1802 46.0531 44.1436 46.0494 44.1234 46.0402C44.069 46.0201 44.0126 46.006 43.9551 45.9979V45.9924ZM46.5371 46.3509L46.6103 46.4447L46.6578 46.3049C46.6158 46.3149 46.5751 46.3303 46.5371 46.3509V46.3509ZM42.9798 44.6081C42.9542 44.5731 42.9304 44.5382 42.9011 44.5051C42.8869 44.5117 42.8734 44.5197 42.8608 44.529C42.8919 44.5665 42.9333 44.5939 42.9798 44.6081ZM43.042 44.3378L43.0951 44.2238C43.0713 44.2238 43.0328 44.2238 43.0292 44.2238C43.0197 44.2597 43.0243 44.2979 43.042 44.3305V44.3378ZM43.8947 41.7419H44.0191V41.7051C43.9968 41.7016 43.974 41.7033 43.9525 41.71C43.9309 41.7167 43.9112 41.7282 43.8947 41.7438V41.7419ZM45.8783 41.1628L45.7905 41.1003L45.7539 41.1573C45.7946 41.1688 45.8376 41.1688 45.8783 41.1573V41.1628ZM46.9525 45.974L46.9799 45.9189L46.8701 45.9465C46.8802 45.9576 46.8927 45.9662 46.9067 45.9716C46.9207 45.977 46.9357 45.9791 46.9506 45.9777L46.9525 45.974Z" fill="#17B942"/>
<path d="M53.7992 26.0178C53.7471 26.0149 53.6954 26.0057 53.6455 25.9902C53.6766 25.9479 53.7187 25.8652 53.7388 25.8689C53.7965 25.8824 53.8568 25.8796 53.913 25.8608C53.9693 25.842 54.0192 25.8079 54.0572 25.7622C54.078 25.7495 54.1026 25.7443 54.1268 25.7475C54.1268 25.7475 54.1414 25.7825 54.1396 25.8008C54.1148 25.8698 54.0679 25.9285 54.0063 25.9677C53.9447 26.007 53.8719 26.0246 53.7992 26.0178V26.0178Z" fill="#17B942"/>
<path d="M44.6266 46.5789C44.5278 46.68 44.429 46.8638 44.2808 46.6175C44.2698 46.5991 44.2369 46.5917 44.2149 46.5789L44.0996 46.5182C44.1594 46.5028 44.2209 46.4954 44.2826 46.4961C44.3942 46.5127 44.5058 46.5513 44.6266 46.5789Z" fill="#17B942"/>
<path d="M53.3456 10.3874C53.4426 10.4812 53.5488 10.5584 53.4774 10.7018C53.4609 10.7386 53.4188 10.7625 53.3896 10.7919C53.3591 10.761 53.3343 10.7249 53.3164 10.6852C53.2908 10.586 53.2743 10.483 53.2578 10.3819C53.2578 10.3672 53.2578 10.3506 53.2706 10.3359L53.3456 10.3874Z" fill="#17B942"/>
<path d="M43.8414 35.2872C43.8514 35.3345 43.8514 35.3833 43.8414 35.4306C43.8414 35.4434 43.7883 35.4526 43.7609 35.4508C43.7334 35.449 43.7096 35.4159 43.6932 35.4214C43.598 35.46 43.5962 35.4618 43.598 35.3662C43.6002 35.3139 43.605 35.2618 43.6126 35.21C43.6408 35.2444 43.6741 35.2742 43.7115 35.2982C43.7499 35.3074 43.7938 35.2982 43.8414 35.2872Z" fill="#17B942"/>
<path d="M47.3124 46.2056C47.4332 46.371 47.296 46.4317 47.1917 46.4924C47.1551 46.5126 47.0892 46.4924 47.0361 46.4795C47.0733 46.4593 47.1082 46.4352 47.1404 46.4078C47.1972 46.3435 47.2484 46.2736 47.3124 46.2056Z" fill="#17B942"/>
<path d="M44.6778 5.47835C44.7115 5.50565 44.7395 5.53939 44.7601 5.57763L44.665 5.56844C44.6467 5.56844 44.6266 5.56844 44.6083 5.56844L44.3887 5.53167C44.4509 5.51328 44.5131 5.49306 44.5717 5.47835C44.607 5.47531 44.6425 5.47531 44.6778 5.47835V5.47835Z" fill="#17B942"/>
<path d="M49.5234 23.3815C49.5526 23.3503 49.5762 23.3142 49.593 23.2749C49.6058 23.2308 49.593 23.1774 49.6113 23.1333C49.6113 23.1223 49.6717 23.1333 49.7028 23.1333C49.7013 23.1871 49.6921 23.2404 49.6753 23.2914C49.6429 23.3514 49.6055 23.4086 49.5637 23.4624C49.5438 23.4392 49.5299 23.4114 49.5234 23.3815V23.3815Z" fill="#17B942"/>
<path d="M38.2223 2.1256C38.3504 2.26716 38.1399 2.26349 38.1454 2.34806C38.1198 2.32967 38.074 2.31313 38.0704 2.2929C38.0539 2.18811 38.0722 2.09987 38.2223 2.1256Z" fill="#17B942"/>
<path d="M35.8433 4.41207C35.8104 4.46171 35.7884 4.50032 35.761 4.53525C35.7525 4.53976 35.7431 4.54211 35.7335 4.54211C35.7239 4.54211 35.7145 4.53976 35.7061 4.53525C35.699 4.52816 35.6939 4.51933 35.6914 4.50965C35.6888 4.49996 35.6888 4.48977 35.6914 4.4801C35.7125 4.43311 35.7416 4.39018 35.7774 4.35324C35.8311 4.31168 35.8873 4.27361 35.9458 4.23926C35.9165 4.29441 35.8872 4.34589 35.8433 4.41207Z" fill="#17B942"/>
<path d="M36.9924 3.23597C37.0034 3.18082 37.0144 3.14589 37.0235 3.11279C37.051 3.12934 37.104 3.14956 37.1022 3.16427C37.0925 3.23096 37.0753 3.29633 37.051 3.35915C37.051 3.37018 37.0071 3.36834 36.9814 3.37201C36.9851 3.33341 36.9888 3.2948 36.9924 3.23597Z" fill="#17B942"/>
<path d="M52.2505 19.8957C52.2945 19.8759 52.3397 19.8587 52.3859 19.8442C52.3827 19.9194 52.3747 19.9943 52.3621 20.0685C52.3621 20.0943 52.3145 20.1127 52.2907 20.1329C52.2742 20.1127 52.2468 20.0924 52.2431 20.0685C52.2376 20.0109 52.24 19.9527 52.2505 19.8957V19.8957Z" fill="#17B942"/>
<path d="M34.4814 5.92531C34.5022 5.86995 34.5299 5.81744 34.5638 5.76904C34.5931 5.79478 34.6406 5.81684 34.648 5.8481C34.6464 5.89128 34.6364 5.93375 34.6187 5.97311C34.5721 5.9596 34.5263 5.94364 34.4814 5.92531V5.92531Z" fill="#17B942"/>
<path d="M46.3613 5.69946C46.2277 5.80609 46.1234 5.77484 46.085 5.62225C46.085 5.60938 46.1106 5.57812 46.1142 5.57812C46.1948 5.60938 46.2734 5.64799 46.3613 5.69946Z" fill="#17B942"/>
<path d="M54.792 24.8672C54.7657 24.9296 54.7306 24.9878 54.6877 25.04C54.6657 25.0639 54.6181 25.0639 54.5815 25.0749C54.577 25.0482 54.577 25.0208 54.5815 24.994C54.5918 24.9604 54.6131 24.9313 54.6419 24.9113C54.6896 24.8895 54.7401 24.8746 54.792 24.8672V24.8672Z" fill="#17B942"/>
<path d="M47.5713 5.81142C47.6076 5.77333 47.6496 5.74109 47.6957 5.71582L47.6847 5.9254C47.642 5.89266 47.6039 5.85433 47.5713 5.81142V5.81142Z" fill="#17B942"/>
<path d="M50.6287 31.0112C50.5876 31.0467 50.5405 31.0747 50.4897 31.0939C50.4897 31.0718 50.464 31.0461 50.4695 31.0277C50.4951 30.956 50.5262 30.8862 50.5555 30.8145C50.5678 30.8291 50.5782 30.8451 50.5866 30.8623C50.6053 30.9105 50.6193 30.9603 50.6287 31.0112V31.0112Z" fill="#17B942"/>
<path d="M51.7847 8.1351C51.7115 8.26747 51.6987 8.14797 51.6712 8.12039C51.6441 8.08668 51.6213 8.04961 51.6035 8.01008C51.6383 7.99721 51.6968 7.96228 51.7042 7.97331C51.7414 8.02133 51.7688 8.07633 51.7847 8.1351V8.1351Z" fill="#17B942"/>
<path d="M38.5515 1.85704C38.503 1.87255 38.4535 1.88484 38.4033 1.89381L38.5021 1.78166L38.5168 1.76879L38.6449 1.67871C38.6174 1.73386 38.5881 1.79086 38.5515 1.85704Z" fill="#17B942"/>
<path d="M49.3594 6.61887C49.3744 6.61047 49.3918 6.60724 49.4088 6.60968L49.5918 6.65564L49.557 6.73286C49.4874 6.70185 49.4211 6.66365 49.3594 6.61887V6.61887Z" fill="#17B942"/>
<path d="M51.6208 29.0605C51.5971 29.027 51.5831 28.9876 51.5806 28.9465C51.5806 28.8877 51.5659 28.8289 51.5586 28.7627C51.5732 28.7627 51.597 28.7627 51.5989 28.7627C51.6234 28.8268 51.6436 28.8925 51.6592 28.9594C51.6617 28.9781 51.6594 28.9972 51.6527 29.0148C51.646 29.0325 51.6351 29.0482 51.6208 29.0605V29.0605Z" fill="#17B942"/>
<path d="M45.6385 38.7637C45.6197 38.7184 45.6044 38.6717 45.5928 38.624L45.73 38.6479C45.7058 38.6911 45.6749 38.7302 45.6385 38.7637Z" fill="#17B942"/>
<path d="M45.8762 46.8696C45.9036 46.8972 45.9201 46.9468 45.9128 46.9505C45.8688 46.9701 45.8235 46.9867 45.7773 47.0002C45.8036 46.9519 45.8369 46.9079 45.8762 46.8696Z" fill="#17B942"/>
<path d="M54.0683 2.9767C54.0693 3.00845 54.065 3.04015 54.0555 3.07046C54.028 3.05943 53.9933 3.05391 53.9786 3.03369C53.964 3.01346 53.9786 2.98037 53.9786 2.9528C53.9786 2.92522 53.9786 2.86639 53.9658 2.82227C53.9878 2.86087 54.0097 2.89948 54.0335 2.93809C54.0442 2.95177 54.0558 2.96467 54.0683 2.9767V2.9767Z" fill="#17B942"/>
<path d="M58.1074 10.9169C58.1466 10.8895 58.1908 10.8702 58.2373 10.8599C58.2373 10.8801 58.2575 10.9058 58.2502 10.9169C58.2172 10.961 58.177 11.0014 58.1404 11.0419C58.1269 11.0009 58.1159 10.9592 58.1074 10.9169V10.9169Z" fill="#17B942"/>
<path d="M45.4735 27.9445C45.5266 27.9059 45.5668 27.8783 45.6089 27.8525C45.6089 27.8801 45.6089 27.9206 45.6089 27.9334C45.5556 27.9758 45.5 28.015 45.4424 28.0511C45.4495 28.0147 45.4599 27.979 45.4735 27.9445V27.9445Z" fill="#17B942"/>
<path d="M40.1835 7.12744C40.1858 7.17308 40.1821 7.21881 40.1725 7.26349L40.0518 7.20466C40.0923 7.17346 40.1365 7.14752 40.1835 7.12744V7.12744Z" fill="#17B942"/>
<path d="M47.54 37.9344C47.578 37.9004 47.623 37.8753 47.6718 37.8608C47.6893 37.8865 47.7046 37.9135 47.7175 37.9417C47.6583 37.9446 47.5989 37.9421 47.54 37.9344V37.9344Z" fill="#17B942"/>
<path d="M53.2018 10.1389C53.1645 10.0965 53.1337 10.0488 53.1104 9.99733C53.1281 9.98477 53.1464 9.97311 53.1652 9.9624C53.1838 10.0197 53.1961 10.0789 53.2018 10.1389Z" fill="#17B942"/>
<path d="M39.7296 18.0888C39.7186 18.0723 39.7168 18.0649 39.7205 18.0575C39.7443 18.0024 39.7699 17.9472 39.7955 17.8921L39.8431 17.9197C39.8106 17.9795 39.7726 18.0361 39.7296 18.0888V18.0888Z" fill="#17B942"/>
<path d="M58.5747 17.6951C58.5487 17.7058 58.5217 17.7138 58.4941 17.719C58.5179 17.6583 58.5417 17.5977 58.5692 17.5352C58.5871 17.5395 58.6043 17.5463 58.6204 17.5554C58.6094 17.6033 58.5941 17.65 58.5747 17.6951V17.6951Z" fill="#17B942"/>
<path d="M49.1406 33.4596C49.1769 33.4205 49.2189 33.387 49.2651 33.3604L49.2358 33.5093C49.2003 33.5014 49.1674 33.4843 49.1406 33.4596V33.4596Z" fill="#17B942"/>
<path d="M48.6133 43.02C48.6536 42.997 48.6952 42.9761 48.7377 42.9575V43.055C48.6948 43.0492 48.6529 43.0374 48.6133 43.02V43.02Z" fill="#17B942"/>
<path d="M56.4966 5.55051C56.4966 5.56154 56.482 5.56338 56.4765 5.56154L56.3301 5.48432L56.3575 5.43652C56.4061 5.47172 56.4525 5.50979 56.4966 5.55051V5.55051Z" fill="#17B942"/>
<path d="M58.6348 15.8256C58.6405 15.7938 58.653 15.7637 58.6714 15.7373C58.6933 15.7821 58.7111 15.8289 58.7244 15.877C58.7244 15.8954 58.6951 15.9193 58.6769 15.9414C58.6659 15.9017 58.6519 15.863 58.6348 15.8256V15.8256Z" fill="#17B942"/>
<path d="M32.8298 7.71062C32.8224 7.64957 32.8224 7.58783 32.8298 7.52678C32.8367 7.52067 32.8449 7.51618 32.8538 7.51364C32.8626 7.51109 32.8719 7.51056 32.881 7.51207C32.8887 7.51694 32.8949 7.52375 32.8991 7.53183C32.9033 7.5399 32.9052 7.54894 32.9048 7.55803C32.8882 7.61264 32.8629 7.66417 32.8298 7.71062V7.71062Z" fill="#17B942"/>
<path d="M43.8945 31.9251C43.8987 31.9175 43.9054 31.9116 43.9133 31.9082C43.9213 31.9049 43.9301 31.9044 43.9384 31.9067C43.9915 31.9067 44.0428 31.9288 44.0958 31.9398C44.0848 31.9545 44.072 31.9821 44.0647 31.9802C44.0048 31.9737 43.9469 31.955 43.8945 31.9251V31.9251Z" fill="#17B942"/>
<path d="M46.2079 38.692C46.1311 38.5505 46.25 38.6259 46.2903 38.6112C46.3305 38.5964 46.3415 38.6259 46.3671 38.635C46.3152 38.6573 46.2621 38.6763 46.2079 38.692Z" fill="#17B942"/>
<path d="M53.6457 26.2787C53.6143 26.2737 53.5851 26.2597 53.5615 26.2382L53.6713 26.1592C53.6598 26.1983 53.6512 26.2383 53.6457 26.2787V26.2787Z" fill="#17B942"/>
<path d="M54.0685 12.5017C54.0513 12.5529 54.0373 12.6051 54.0264 12.6579C54.0099 12.6432 53.9751 12.6193 53.9788 12.6138C54.0081 12.5587 54.0428 12.5035 54.0758 12.4502L54.0904 12.4612C54.0863 12.4763 54.0788 12.4901 54.0685 12.5017V12.5017Z" fill="#17B942"/>
<path d="M42.9522 5.78028C42.9076 5.77403 42.864 5.7623 42.8223 5.74535L42.9211 5.68652C42.9371 5.71557 42.9477 5.74737 42.9522 5.78028V5.78028Z" fill="#17B942"/>
<path d="M51.214 7.58336C51.1882 7.55901 51.1687 7.52872 51.1572 7.49512H51.2707C51.2599 7.52908 51.2403 7.55954 51.214 7.58336V7.58336Z" fill="#17B942"/>
<path d="M58.8994 13.9482C58.9171 13.9064 58.9398 13.8668 58.9671 13.8306C58.9818 13.8515 58.9946 13.8736 59.0055 13.8967C58.9762 13.9244 58.9392 13.9423 58.8994 13.9482V13.9482Z" fill="#17B942"/>
<path d="M58.6573 16.1177C58.6863 16.1601 58.7091 16.2066 58.725 16.2556L58.6737 16.2721C58.6622 16.2215 58.6567 16.1696 58.6573 16.1177Z" fill="#17B942"/>
<path d="M53.7764 17.1543C53.8053 17.1971 53.8287 17.2434 53.8459 17.2922L53.7929 17.3106C53.7815 17.2593 53.776 17.2068 53.7764 17.1543V17.1543Z" fill="#17B942"/>
<path d="M44.1109 41.3171C44.0694 41.3163 44.0282 41.3102 43.9883 41.2987L44.0359 41.2271C44.0661 41.2523 44.0915 41.2828 44.1109 41.3171V41.3171Z" fill="#17B942"/>
<path d="M56.6937 22.3447C56.6947 22.4106 56.6898 22.4764 56.679 22.5414L56.626 22.5267C56.6427 22.464 56.6653 22.4031 56.6937 22.3447V22.3447Z" fill="#17B942"/>
<path d="M42.0444 0.299805C42.0842 0.306902 42.1225 0.320569 42.1578 0.340251L42.0517 0.41195C42.0436 0.375166 42.0411 0.337342 42.0444 0.299805V0.299805Z" fill="#17B942"/>
<path d="M43.3662 36.2949C43.4049 36.3084 43.4404 36.3296 43.4705 36.3574L43.3882 36.4089C43.3749 36.3723 43.3675 36.3338 43.3662 36.2949Z" fill="#17B942"/>
<path d="M54.0576 15.9817C54.0941 15.9716 54.1327 15.9716 54.1693 15.9817L54.1253 16.0516C54.0986 16.0327 54.0757 16.009 54.0576 15.9817V15.9817Z" fill="#17B942"/>
<path d="M53.8419 17.4043C53.8123 17.4436 53.7772 17.4782 53.7376 17.5073C53.7376 17.4815 53.7193 17.4392 53.7376 17.4319C53.7692 17.4133 53.8053 17.4038 53.8419 17.4043V17.4043Z" fill="#17B942"/>
<path d="M52.871 19.1201L52.8966 19.144L52.7539 19.2506C52.7814 19.1991 52.807 19.1477 52.8326 19.0962H52.8472C52.8472 19.0962 52.8619 19.1201 52.871 19.1201Z" fill="#17B942"/>
<path d="M48.2866 0.444721C48.2628 0.406113 48.25 0.376698 48.2354 0.349121L48.336 0.369344C48.3254 0.397917 48.3085 0.423697 48.2866 0.444721V0.444721Z" fill="#17B942"/>
<path d="M45.4226 40.7256C45.4195 40.6829 45.4264 40.6401 45.4427 40.6006L45.5049 40.6318C45.4834 40.6679 45.4555 40.6997 45.4226 40.7256V40.7256Z" fill="#17B942"/>
<path d="M54.4712 3.72482C54.4278 3.70649 54.3866 3.68304 54.3486 3.65496C54.3562 3.6397 54.3647 3.62496 54.3743 3.61084C54.4097 3.64604 54.4421 3.68417 54.4712 3.72482V3.72482Z" fill="#17B942"/>
<path d="M48.1405 24.8193C48.1213 24.7924 48.1105 24.7604 48.1094 24.7274C48.1094 24.7274 48.1515 24.7163 48.1753 24.709C48.1663 24.7465 48.1547 24.7834 48.1405 24.8193Z" fill="#17B942"/>
<path d="M48.3138 24.7419C48.2839 24.729 48.2561 24.7117 48.2314 24.6904L48.3138 24.6592C48.3247 24.6857 48.3247 24.7154 48.3138 24.7419V24.7419Z" fill="#17B942"/>
<path d="M46.9925 0.246793C46.9618 0.235545 46.9338 0.218016 46.9102 0.195316L46.9907 0.164062C47.0014 0.190472 47.0021 0.21993 46.9925 0.246793V0.246793Z" fill="#17B942"/>
<path d="M56.2176 23.3481C56.2452 23.3781 56.267 23.413 56.2817 23.4511C56.2579 23.4511 56.2195 23.4511 56.214 23.4511C56.2036 23.4174 56.2049 23.3811 56.2176 23.3481Z" fill="#17B942"/>
<path d="M55.1426 4.26356C55.1571 4.23799 55.1771 4.216 55.2011 4.19922L55.2396 4.27092C55.207 4.27359 55.1743 4.27111 55.1426 4.26356Z" fill="#17B942"/>
<path d="M38.3162 2.43758C38.2686 2.45905 38.2189 2.47567 38.168 2.48722C38.168 2.47251 38.168 2.44677 38.168 2.44493C38.2166 2.43432 38.2667 2.43184 38.3162 2.43758V2.43758Z" fill="#17B942"/>
<path d="M58.2738 18.9709C58.2434 18.9589 58.2155 18.9415 58.1914 18.9194L58.2719 18.8882C58.2827 18.9146 58.2833 18.9441 58.2738 18.9709V18.9709Z" fill="#17B942"/>
<path d="M42.5606 44.2241C42.5804 44.2682 42.5969 44.3136 42.61 44.3602C42.5953 44.3602 42.5697 44.3602 42.5679 44.3602C42.5588 44.3154 42.5564 44.2696 42.5606 44.2241V44.2241Z" fill="#17B942"/>
<path d="M54.2239 14.9448C54.2072 14.9054 54.2009 14.8624 54.2056 14.8198H54.2422C54.2468 14.8624 54.2405 14.9054 54.2239 14.9448Z" fill="#17B942"/>
<path d="M38.6445 8.84113C38.671 8.83095 38.7004 8.83095 38.7269 8.84113L38.6958 8.92203C38.6746 8.89791 38.6573 8.87061 38.6445 8.84113V8.84113Z" fill="#17B942"/>
<path d="M54.1934 14.2077C54.2281 14.1919 54.2642 14.1796 54.3013 14.1709C54.3013 14.1948 54.2885 14.2389 54.283 14.2371C54.2507 14.2375 54.2192 14.2271 54.1934 14.2077V14.2077Z" fill="#17B942"/>
<path d="M47.9844 41.2236C48.0235 41.2066 48.0664 41.2003 48.1088 41.2052V41.242C48.0664 41.2469 48.0235 41.2406 47.9844 41.2236Z" fill="#17B942"/>
<path d="M37.5289 12.5015C37.5066 12.5285 37.4784 12.5499 37.4465 12.564L37.4209 12.5015C37.4563 12.4924 37.4934 12.4924 37.5289 12.5015Z" fill="#17B942"/>
<path d="M45.2158 38.4111C45.2578 38.4113 45.2996 38.4169 45.3403 38.4277L45.3037 38.4847C45.2722 38.4629 45.2428 38.4383 45.2158 38.4111V38.4111Z" fill="#17B942"/>
<path d="M44.0285 37.7471C44.0566 37.7756 44.0789 37.8093 44.0943 37.8463L44.0431 37.8611C44.0323 37.8241 44.0274 37.7856 44.0285 37.7471V37.7471Z" fill="#17B942"/>
<path d="M43.6349 34.9655C43.6268 34.9355 43.6225 34.9046 43.6221 34.8735C43.6404 34.8735 43.6733 34.8735 43.6733 34.8827C43.676 34.9182 43.676 34.9539 43.6733 34.9894C43.6691 34.9903 43.6647 34.9903 43.6605 34.9894C43.6514 34.982 43.6429 34.974 43.6349 34.9655Z" fill="#17B942"/>
<path d="M38.0389 9.95166C38.0347 9.98377 38.0234 10.0145 38.0059 10.0417L37.9492 9.98475C37.9763 9.96719 38.0069 9.95589 38.0389 9.95166V9.95166Z" fill="#17B942"/>
<path d="M49.1102 33.8276C49.106 33.8597 49.0947 33.8905 49.0772 33.9177L49.0205 33.8607C49.0476 33.8432 49.0782 33.8319 49.1102 33.8276Z" fill="#17B942"/>
<path d="M48.3053 41.8159C48.3242 41.8464 48.3407 41.8784 48.3547 41.9115C48.3256 41.8961 48.2975 41.8789 48.2705 41.86C48.2705 41.86 48.287 41.8251 48.3053 41.8159Z" fill="#17B942"/>
<path d="M58.6768 14.8511C58.7087 14.8553 58.7393 14.8666 58.7664 14.8842L58.7097 14.9412C58.6922 14.9139 58.681 14.8832 58.6768 14.8511V14.8511Z" fill="#17B942"/>
<path d="M39.5852 16.7393C39.5907 16.774 39.5907 16.8093 39.5852 16.844L39.5156 16.7944C39.5346 16.7712 39.5583 16.7524 39.5852 16.7393V16.7393Z" fill="#17B942"/>
<path d="M44.0996 30.6377C44.141 30.6557 44.1784 30.682 44.2094 30.7149C44.1687 30.6955 44.1316 30.6694 44.0996 30.6377Z" fill="#17B942"/>
<path d="M58.0167 20.5799C57.9867 20.5607 57.9621 20.5341 57.9453 20.5027C57.9453 20.5027 57.9636 20.4843 57.9728 20.4751C57.9939 20.5069 58.0088 20.5425 58.0167 20.5799V20.5799Z" fill="#17B942"/>
<path d="M56.7861 6.26714C56.7982 6.25945 56.8121 6.25537 56.8264 6.25537C56.8406 6.25537 56.8546 6.25945 56.8666 6.26714C56.8758 6.26714 56.8666 6.31494 56.8557 6.33884C56.8278 6.31997 56.8042 6.29557 56.7861 6.26714V6.26714Z" fill="#17B942"/>
<path d="M56.4971 5.57227C56.5277 5.58527 56.5551 5.6047 56.5776 5.62926C56.5776 5.62926 56.5684 5.66235 56.5648 5.68073C56.5395 5.64635 56.5169 5.61009 56.4971 5.57227V5.57227Z" fill="#17B942"/>
<path d="M54.7295 3.91016C54.752 3.93077 54.769 3.95667 54.7789 3.98553L54.7222 4.00759C54.7205 3.97493 54.7229 3.94218 54.7295 3.91016V3.91016Z" fill="#17B942"/>
</svg>
