<svg id="レイヤー_1" data-name="レイヤー 1" xmlns="http://www.w3.org/2000/svg" viewBox="0 0 432 314"><defs><style>.cls-1{fill:#040000;}</style></defs><g id="お問い合わせ02"><path class="cls-1" d="M201.4,17a1.94,1.94,0,0,1,2.5.59c.11.14,1-.41.71.55.32,0,.91,0,.94-.07.33-1.2,1.27-.51,1.93-.65s1.31-.26,2-.36c.24,0,.49,0,.72,0,.78-.14,1.48,1.19,2.29.1.75,1.08.88-.47,1.45-.35.34.08.74-.12,1.1-.08.11,0,.28.43.24.62s-.32.34-.5.51h1a16.83,16.83,0,0,0,2,0,11.25,11.25,0,0,0,1.56-.49,2.65,2.65,0,0,1,.86-.18c.2,0,.39.18.59.29-.15.13-.3.37-.46.38-1.16.1.18.72-.21,1,.23,0,.6.09.65,0,.61-1.1,1.53-.47,2.33-.46,1.37,0,2.73,0,4.1,0a17.87,17.87,0,0,1,4.08.08,3.77,3.77,0,0,0,2.37-.49,3.79,3.79,0,0,0,.42-.18,3.65,3.65,0,0,1,.14.57,4.18,4.18,0,0,0,.07.8c.06.14.32.2.48.3a2.87,2.87,0,0,0,.17-.57,7.13,7.13,0,0,0,0-.8,2.15,2.15,0,0,1,.77.07c.62.3,1.62-.14,1.88.92a.86.86,0,0,0,.56,0c.69-.29,1.33-.94,2.13-.26a3,3,0,0,0,.15-.57c0-.69.21-.88,1-.7a27.09,27.09,0,0,0,3.72.36l2.68.18c.19,0,.49.09.54,0,.8-1.17,1.52-.51,2.29,0a1.88,1.88,0,0,0,.9.12l3.09,0c.34,0,.75.19,1,.06.43-.21.73-.47.91.2a4.74,4.74,0,0,1,3.39.28c.06,0,.26-.27.41-.4.4-.36.76-.67,1.26-.06a2.1,2.1,0,0,0,1,.47c.06,0,.3-.19.28-.22-.6-1.4.8-.72,1.11-.87a5.71,5.71,0,0,1,2.21-.18c.56,0,1.13,0,1.69,0,.15,0,.38.12.42.07,1.08-1.36,2.35.47,3.47-.21,0,0,.12.1.16.16.78,1.45,1.8.73,2.77.29s1.8-1,2.8-.18c.12.1.38,0,.56,0,.46.08,1.08,0,1.34.29a3.45,3.45,0,0,0,3.42.79,1,1,0,0,0,.62-.5,1.36,1.36,0,0,1,2.13-.31.77.77,0,0,1,.08.41c0,.22,0,.43,0,.64.19-.1.38-.27.57-.28.72,0,1.35-.69,2.21-.11.35.24,1.53.9,1.65-.56,0,0,.9-.11,1,0a1.78,1.78,0,0,0,1.87.92,3.36,3.36,0,0,1,2.69,1c.12.11.37.09.56.12a3.59,3.59,0,0,1-.38-.4c-.23-.3-.44-.61-.66-.92.33,0,.75.14,1,0,.75-.52,1.74.29,2.45-.52.18-.21.72-.1,1.09-.17l2.63-.47c.13.51.2,1,.28,1.53a5.83,5.83,0,0,0,.7-.25c.08,0,.07-.31.13-.32.68-.15.68-.14.31-.66-.05-.08-.06-.29,0-.32a2.48,2.48,0,0,1,.48-.17c0,.42,1.05.14.56.87,0,0,.24.26.36.25.53,0,1.05-.12,1.58-.17a31.72,31.72,0,0,1,5.07-.19c1,.07,2.42.91,3.45-.27a.42.42,0,0,1,.43,0c1,.81,1.95-.18,2.93,0,.17,0,.47,0,.54-.09.9-1.39,1.43-.24,2.22.19s2.15-.67,3,.53c.81-1.09,1.82-.65,2.82-.39.11,0,.32,0,.34,0,.51-1.09,1.44-.22,2.13-.44.11,0,.33.26.5.41.37.35.66.95,1.33.42.07-.05.33.12.49.22a3.18,3.18,0,0,0,3.61.17,1.88,1.88,0,0,1,1.18-.22c.19,0,.24.63.47.77s.76,0,1,.16c.83.52,1.32.09,2-.36.48-.32,1.3-.13,2-.18.28,0,.55-.07.83-.1-.18-.2-.36-.4-.52-.61s-.21-.3-.32-.45a2.75,2.75,0,0,0,.5,0,2.85,2.85,0,0,1,2.69,1.15c.11.11.6-.17.92-.27l-.61-.25a.52.52,0,0,1-.17-.16l-.81-1.08a8.41,8.41,0,0,0,1,.52c.6.23,1.26.81,1.79-.16,0-.07.56,0,.77.18s.09.44,0,.62-.32.33-.49.49a3,3,0,0,0,.9.35.75.75,0,0,0,.5-.48c0-.8.46-.5.88-.45,1,.14,2,.65,3.07-.14.2-.15,1.13.42,1.55.84s.79.29,1.34.24c1.65-.17,3.33-.78,5,0,.33.15.79.07,1.06.27.59.43.82.11.82-.38,0-.92.56-.65,1-.45s1,.71,1.5,1c.25.12.93.87.9-.29,0-.11.4-.36.53-.32.85.31,1.67.69,2.51,1,.07,0,.21,0,.24,0,.65-.94,1-.45,1.45.21.24.32,1,.33,1.47.38,1,.12,2.08.17,3.13.25.11,0,.26.05.34,0,.3-.2.58-.43.86-.65,0,.35-.06.84.14,1a8,8,0,0,0,1.56,1s.28-.28.25-.36c-.34-.83.34-.8.75-.78,1.18.07,2.36.27,3.54.34.81,0,1.62-.07,2.42-.07a8,8,0,0,1,1,.15c.32,0,.65,0,1,.09.18.26.3.46.45.64,0,0,.2-.12.31-.18l-.71-.52a3.85,3.85,0,0,1,.41-.39c1,.89,2.13.59,3.24.16a.7.7,0,0,1,.57,0c1.23,1,2.72.55,4.08.83.13,0,.29.08.4,0,1.3-.67,2.22,0,3.1.85a6.47,6.47,0,0,0,.91.64c.11.07.3.2.28.24-.55,1.71,1.09.92,1.61,1.4.28.27.9.35,1,.62.27,1,1.06,2,.2,3.14a.8.8,0,0,0-.07.47c1.57.39,1.06,1.8,1.29,2.78.28,1.22.31,2.5.52,3.74.06.32.46.58.6.9a2.45,2.45,0,0,1,0,.82,3.11,3.11,0,0,1-.75-.14,2.84,2.84,0,0,1-.57-.43c-.1.23-.32.52-.26.69s.43.22.66.32l.72.37c-.14.15-.3.29-.44.45s-.28.31-.25.39a1.59,1.59,0,0,1-.24,2c0,.06.1.31.16.48l.3-.36.66-.76c.36.34.31.66.18,1.15-.4,1.58-1.17,3.1-.87,4.83a8.53,8.53,0,0,1-.18,1.78c0,.12.24.34.4.36a2.06,2.06,0,0,0,.67-.12,7,7,0,0,1,.05,1.29c-.1.85-.31,1.69-.41,2.54,0,.11.3.31.49.38s.29-.13.43-.21c-.15.32-.23.73-.47.92-.57.44-1,1.77-.61,2.32.09.13.53,0,.8,0s.66-.12,1-.18a6.32,6.32,0,0,0-.17,1c0,1-.37,2.27.11,2.91.63.85.05,1.49.15,2.2s-.28,1.47.28,2.26A1.13,1.13,0,0,1,407,66c-1.78,1.22-1.91,1.87-1.08,4a1,1,0,0,1,0,.35c0,.42.07.85.11,1.28l-.83-.93a4.94,4.94,0,0,1-.3-.49,6.83,6.83,0,0,0-.63.89c-.05.11.09.4.23.52s.4.16.59.26c.53.3,1.82.17.64,1.41-.35.36.16,1.42,0,2.09-.2.82.81,1.61-.18,2.51-.69.62.05,3.12.82,3.54s.64.37.16,1.08a5.35,5.35,0,0,0-.51,1.2c-.11.29-.17.59-.26.89a2.33,2.33,0,0,1,.81-.24c.26,0,.7.19.73.36a14.4,14.4,0,0,1,.24,2.18c0,.1-.28.31-.43.31a.67.67,0,0,1-.44-.31c-.08-.11,0-.31-.05-.45-.11-.36-.25-.71-.38-1.07-.11.43-.42,1-.26,1.25.25.44-.12,1.29.95,1.34.59,0,1,2.51.51,3-.07.07-.46-.07-.64-.18a5.09,5.09,0,0,1-.65-.58c-.11.5-.48,1.21-.28,1.48a3,3,0,0,1,.1,3.41c-.13.27,0,.65-.07,1s1,1.2-.41.91a3.57,3.57,0,0,0,.14,1.1,7.3,7.3,0,0,0,.75,1.12s-.12.16-.18.24c-1-1-.62.26-.83.51a4,4,0,0,0-.74,3.33c.09.79-.1,1.48.52,2.17.11.13.89,1.11-.13,1.59a5.6,5.6,0,0,0,.43,1.51c.25.64.61,1.18.11,1.92-.17.25.14.92.37,1.33.34.6,1,1.08.46,1.9-.37.55-.18,1,.15,1.52a11.39,11.39,0,0,1,1,3c.09.37-.06,1-.72.51a6.8,6.8,0,0,1-.59-.5c0,.11-.11.25-.07.32a5.24,5.24,0,0,0,.59.81c.15.16.43.21.57.37s.11.37.16.56a5,5,0,0,1-.49-.2l-.82-.38c.18.43.35.87.57,1.28a1.92,1.92,0,0,0,.59-.16.72.72,0,0,0,.22-.17c.17.2.48.42.47.62a5.44,5.44,0,0,1-.92,3c-.42.56-.33,1.5-.47,2.27.11,0,.23-.1.33-.08a1.45,1.45,0,0,1,.7.22c.08.07-.11.41-.14.63a4.31,4.31,0,0,0-.16,1.45c.25,1.11.63,2.18,1,3.26.05.17.18.43.13.48-1.21,1-.52,2.74-1.43,3.9-.16.2.19,1.14.53,1.33,1,.56.57,1.28.51,2a9.54,9.54,0,0,0,0,1.69c0,.2.21.38.32.57a4.82,4.82,0,0,1,.38-.51,3.72,3.72,0,0,1,.48-.41,1.81,1.81,0,0,0,0,.57,17,17,0,0,1,.62,1.63,24.65,24.65,0,0,1,.52,2.85c.07.54-.08,1.16.79,1.09a2.35,2.35,0,0,1-.08.71,2.64,2.64,0,0,1-.45.56c1.06.58-.05.86-.22,1.15-.37.61-.42.95.38,1.14,1.14.27,1.68,1.4.95,2.24-.58.67-.34,1.13-.1,1.74a2,2,0,0,1,.16.91c-.14,1.41-.29,2.82-.47,4.22-.08.59-.29,1.16-.32,1.75a8,8,0,0,0,.22,1.44c.05.28.19.71.07.8-1.11.86-.22,2-.42,3,0,.13.2.3.3.46.05-.16.1-.31.16-.46a3,3,0,0,1,.24-.61c.07-.13.22-.21.34-.32.07.17.21.33.21.5,0,1.53-.06,3.07-.07,4.61,0,0,.24,0,.33.1a1.34,1.34,0,0,1,.51,1.4c0,.58.05,1.16.05,1.75,0,.9,0,1.81-.05,2.71,0,.53-.22,1.05.53,1.25.13,0,.29.5.22.58-.76.93-.57,2-.64,3.09,0,.56-.17.64-.69.52-.21-.06-.7.14-.71.25a7.58,7.58,0,0,0,.08,1.65c0,.06.38.06.59.09-.26.67-.51,1.36-.8,2-.07.17-.39.34-.36.42.53,1.4.2,2.86.37,4.23.12,1-.55,2,.16,2.93.05.06,0,.23,0,.32a16.2,16.2,0,0,0-.72,1.73c0,.12.43.38.66.58.09-.19.18-.38.26-.58s.2-.54.33-.8a.53.53,0,0,1,.37.1c.12.18.29.51.21.6-.87,1.12.18,2.06.33,3.06a8.68,8.68,0,0,1,.24,2.36,11.44,11.44,0,0,0,.5,3.06c0,.14-.14.32-.24.47s-.38.55-.57.82a3.86,3.86,0,0,1,.73-.23,3,3,0,0,1,.63.12c0,.23-.15.56-.06.68a1.33,1.33,0,0,1,0,2c-.08.09,0,.39.13.55a4.14,4.14,0,0,1,.15,3.39c-.11.42-.64,1,.38,1,0,0,.26,1.08,0,1.3-1,1-.52,2.07-.45,3.16,0,.23-.18.47-.27.72s-.4.74-.29.91c.55.88-.29,1.35-.48,2-.13.43-.94.86.05,1.38.22.11.06,1.11-.07,1.67-.28,1.16-.55,2.29.24,3.36.05.08,0,.3,0,.32-1.14.55-.71,1.4-.5,2.26a10.06,10.06,0,0,1,.17,1.74c0,.14-.14.38-.12.39,1.26.76.13,1.23-.18,1.84a5.12,5.12,0,0,0-.28,1.27,4.66,4.66,0,0,1,.89-.23c.1,0,.32.18.31.27a1.84,1.84,0,0,1-.19.95c-.09.14-.5.06-.76.11a2.27,2.27,0,0,0-.49.25c.15,0,.31.09.46.15.52.22,1.41.25.6,1.18a.81.81,0,0,0,0,.7c0,.11.35.11.54.15l.66.14a1.79,1.79,0,0,1-.29.64c-.09.08-.38,0-.56-.08a1.8,1.8,0,0,1-.42-.32,1.75,1.75,0,0,0-.06.67c.2.7.51,1.38.67,2.08.06.28-.18.62-.28.94a4.08,4.08,0,0,1-.32-.71c-.07-.25,0-.56-.12-.78s-.35-.24-.54-.35a2.09,2.09,0,0,1-.16.57c-1,1.54,1,3.05.07,4.64-.1.18.47.79.78,1.16.76.87.45,1.81-.71,2.16-.15,0-.37.35-.33.42.28.52.85,1,0,1.53.07.05.17.16.2.15a4,4,0,0,0,.7-.46,1.92,1.92,0,0,0,.29-.48c.14.17.36.31.41.5.15.59.51,1.15-.16,1.76-.25.23-.95,1.17.32,1.35.14,0,.26.35.32.55a7.07,7.07,0,0,1,.4,1.83c0,.37-.42.75-.67,1.1-.07.1-.24.13-.36.2.19.07.38.16.57.22s.72.11.74.23c.1.5.09,1-.69,1a1.29,1.29,0,0,0-.46.19c.62.66-.19,1.58.07,1.92.76,1,0,2.05.36,3,.13.32-.28.86-.42,1.3a4.69,4.69,0,0,0-.09.64,6.66,6.66,0,0,0,.78-.11,4.23,4.23,0,0,0,.48-.23l.36,1.52c-.22-.06-.43-.13-.66-.17s-.37,0-.38,0c-.08.5-.35,1.25-.13,1.47.78.76.24,1.48.21,2.23s.09,1.45.07,2.17-.19,1.17-.21,1.75a1.84,1.84,0,0,0,.29.9c.27.46.49.82-.3.9-.07,0-.2.18-.18.25.14.68.31,1.34.46,2a1.37,1.37,0,0,1,0,.35c0,.13,0,.25-.05.38a1.37,1.37,0,0,0,.28-.26c.17-.22.31-.45.47-.69.08.06.24.14.23.18a4.6,4.6,0,0,1-.28.94,1.86,1.86,0,0,1-.48.49c-.8.64-.89,1.09.31,1.24.16,0,.3.22.45.33-.8.81.17,1.41.22,2.11,0,.27-.28.6-.5.86a1.39,1.39,0,0,0-.42,1.6,6.24,6.24,0,0,1,0,2.32c0,.12-.28.33-.3.32a7.43,7.43,0,0,1-.59-.53l-.4-.39a1.5,1.5,0,0,1,.12.45c0,.7-.14,1.41-.13,2.11a22.51,22.51,0,0,1,.1,2.45,1.91,1.91,0,0,1-.8,1.27c-.19.12-.61-.45-.35-.93a1.89,1.89,0,0,0-.47,0c-.83.21-1.05.74-1,1.58a1.93,1.93,0,0,1-1.69,1.84c-.31,0-.77-.17-.45.52.12.26-2,1.08-2.26.84a.37.37,0,0,1-.06-.32.78.78,0,0,1,.33-.32c.26-.13.63-.15.79-.35a2.67,2.67,0,0,0,.29-.93,6.74,6.74,0,0,0-.64.38c-.78.6-1.53,1.23-2.31,1.81-.12.08-.53,0-.55-.08-.33-1.16-1.3-.95-2-.8a6.48,6.48,0,0,1-2.94,0c-1.87-.4-3.83-.88-5.78-.19-.18.07-.48-.22-.73-.3s-.7-.17-1-.26c0,.24,0,.49-.08.72s-.19.55-.29.83c-.14-.21-.27-.43-.42-.64s-.12-.16-.18-.24c-.57.65-1.5-.48-2.11.45-.18.27-.87.25-1.34.28-.28,0-.59-.16-.87-.14a8,8,0,0,0-1.17.29,9.08,9.08,0,0,0,1,.76,7.76,7.76,0,0,0,.84.34s0,.36-.08.37c-.42.07-.92.26-1.26.11a4.08,4.08,0,0,1-1.08-1c-.49-.54-.93-.71-1.57-.14a4.89,4.89,0,0,1-1.36.54,2,2,0,0,0-.51.28,4.31,4.31,0,0,0-.39.46,5.45,5.45,0,0,1-.21-.65,2,2,0,0,1,0-.49,2.91,2.91,0,0,0-.59.19c-.62.32-1.23.66-1.85,1a.17.17,0,0,1-.12,0l-1-.71a5.58,5.58,0,0,1-.11,1,9.4,9.4,0,0,1-2.71-.11c-.66-.18-1.12-.29-1.64.22a1.38,1.38,0,0,1-.8.24c-.45,0-.9,0-1.42.06-.3-.11-.59-.36-.79-.3-1.46.38-2.9.86-4.36,1.24a35.24,35.24,0,0,1-4.14.92,14.16,14.16,0,0,1-2.58-.2c-.68,0-1.37,0-2.05,0-.51,0-1-.25-1.51-.32-.14,0-.36.12-.46.25a3,3,0,0,0-.21.53,4.22,4.22,0,0,1-1.21-.41c-.26-.15-.43-.71-.63-.7a4.82,4.82,0,0,0-2.19.35c-.91.5-1.68.32-1.92-.73-.09-.42-1.15-.75-1.55-.62-.93.29-1.9.47-2.85.73a1.33,1.33,0,0,0-.56.35,1.14,1.14,0,0,1-1.68,0c-.2-.21-.53-.53-.72-.48-1.25.29-2.69-.38-3.76.73-.51.53-.93.53-1.43-.07a1.47,1.47,0,0,0-1.09-.5c-1.17.21-2.28.56-3.47-.15-.37-.22-1.13.26-1.72.38a1.3,1.3,0,0,1-.65,0c-.66-.22-1.31-.48-2-.72a.22.22,0,0,0-.21,0c-1.4,1.43-2.9.17-4.1-.17a4.59,4.59,0,0,0-3.19.41c-.64.24-.91.24-1.07-.4-.13-.48-.2-.65-.84-.42a11.07,11.07,0,0,1-2.72.3c-.89.08-1.78.13-2.66.24-.57.08-.87,0-1-.68,0-.15-.82-.12-1.25-.16-.27,0-.61.05-.8-.09-.92-.69-2-.5-3.05-.71,0,0-.12.22-.19.39a9.36,9.36,0,0,1-1.81.75,3,3,0,0,1-1-.09,4.46,4.46,0,0,0,.4-.66,2.39,2.39,0,0,0,.05-.55,1.88,1.88,0,0,1-.46.14c-1,.05-2,.08-3.05.15a13.94,13.94,0,0,1-1.68.19c-.65,0-1.58.86-1.91-.48-.19,0-.38.11-.57.14-.74.12-1.49.23-2.24.37a1,1,0,0,0-.47.26c-.39.36-.74.79-1.33.3a1.85,1.85,0,0,0-.48-.19,4.49,4.49,0,0,1,.24.42,3,3,0,0,1,.12.4c-.18,0-.51.13-.53.09-.92-1.94-2.59-.73-3.91-.93-.52-.08-1.15.2-1.43-.55a1.14,1.14,0,0,0-.62.1c-.81.42-1.53.93-2.4,0a1.38,1.38,0,0,0-1.91-.18c-.62.42-1.28.92-2,.05-.06-.07-.32,0-.48,0-.6.17-1.21.36-1.82.55,0-.18-.05-.36-.08-.54s0-.27-.07-.41c-.11,0-.28,0-.31.09-.75,1.29-2,.8-3.05.81-1.51,0-3,0-4.53-.13a4.8,4.8,0,0,1-2.24-.8c-.83-.6-1.39-.36-1.72.35s-.46.31-.78.08-.73-.46-1-.36c-1.1.4-2.11.95-3.37.33-.37-.18-1.09.51-1.61.45-1.53-.16-2.73.78-4.1,1.08-.1,0-.17.15-.26.22-.94-1.24-1.7-.05-2.54.18-.4.11-1,.35-.9-.51,0-.11-.33-.35-.51-.35-.4,0-.91.46-1.07-.32a4.21,4.21,0,0,0-.52.4,8.67,8.67,0,0,1-1,.94c-.07.05-.43-.35-.68-.51a3.33,3.33,0,0,0-.61-.27,1.66,1.66,0,0,1,.12.57c0,.17-.14.46-.25.48-1.06.14-2.13.25-3.21.34-.35,0-.8.08-.4-.52,0-.05-.21-.39-.35-.4-.79-.08-1.67.47-2.35-.46-.07-.1-.8.28-1.22.44.3.24.59.49.91.71s.55.24.77.41.1.31.15.48c-.13,0-.27,0-.4-.05a5.12,5.12,0,0,0-3.57.57c-.64.34-1.77-.36-2.68-.4s-1.47-.72-2.4-.15c-.53.32-1.4.08-2.12.09-.88,0-1.76,0-2.64,0a1.86,1.86,0,0,1-.56-.22,4.71,4.71,0,0,0,.29-.48c.09-.18.16-.36.24-.54l-.5.16c-.47.15-1,.27-1.39.46-.64.27-1.26.58-1.87.91s-.91.64-1.59.07c-.41-.36-1.23-.2-1.84-.37a3.68,3.68,0,0,1-1.36-.63c-.45-.37-.41-.34-.81.08a1.91,1.91,0,0,1-1.32.54c-1.33-.07-2.66-.29-4-.44a.59.59,0,0,0-.35,0,1.91,1.91,0,0,1-2.11.26,10,10,0,0,0-2.43-.69c-.2,0-.45.33-.72.41-.8.26-1.73.1-2.37.9a1.17,1.17,0,0,1-1-.22c-.53-1.32-1.55-1.25-2.53-.84s-1.49.51-1.92-.54c-.07-.15-.49-.2-.75-.22-1.15-.1-2.3-.2-3.45-.24-1.38,0-2.76,0-4.14,0-.46,0-1.11.35-1.33-.46,0-.05-.2-.09-.31-.08-1.42.17-2.41-.9-3.65-1.28a.65.65,0,0,0-.4.06c-.6.27-1.2.56-1.81.81,0,0-.22-.2-.32-.32l-1-1.24c-.79,1.1-1.15-.24-1.74-.31a1,1,0,0,0-.32.09,1.75,1.75,0,0,0,.21.48c.53.53.24.56-.3.62-.73.09-1.45.31-2.18.45a.51.51,0,0,1-.39-.16,4.94,4.94,0,0,0-4-1.31,6.42,6.42,0,0,1-3-.18c-.24-.09-.58-.17-.67-.35-.3-.61-.5-.63-.74,0a.23.23,0,0,1-.09.08c-1,.14-2,.3-2.95.39-.15,0-.33-.31-.5-.48,0,.24.08.56,0,.72-.26.32-.61.74-1,.77a4,4,0,0,1-1.46-.42.62.62,0,0,1,.06-.31c.11-.23.24-.44.37-.66-.43,0-1.1-.25-1.24-.07-.67.92-1.29.37-2,.1-.37-.15-.88-.36-1.18-.22a2.84,2.84,0,0,1-3.47-.8c-.56-.63-1.2-.28-1.65-.7,0-.05-.26,0-.27,0-.7,1.57-1.88.2-2.79.44a1.88,1.88,0,0,1-.29-.67c-.17-.84-.4-1.56-1.52-1.18-.08,0-.25-.23-.38-.34a3.76,3.76,0,0,0-.72-.54c-.1-.05-.3.1-.46.17l.37.28.5.43c-.25,0-.49,0-.73,0-1,0-1.8-1-2.87-.28a1.07,1.07,0,0,1-1-.29c-.5-.89-.93-.43-1.6-.22a10.22,10.22,0,0,1-2.61.1,4.82,4.82,0,0,0-1,.24c0,.07,0,.2.07.21a5.17,5.17,0,0,0,1,.32c.74.09,1.49.11,2.23.17.12,0,.23.12.35.19-.08.12-.12.29-.23.37a2.71,2.71,0,0,1-3.63-.31c-.27-.34-.39-.8-.85-.19-.06.09-.33.11-.47.06-.55-.18-1.09-.4-1.64-.6-1.72-.65-3.51-.27-5.28-.39h-.16c-.45,1.65-1.17.23-1.8.18-1.16-.08-2.33,0-3.49-.11a4.06,4.06,0,0,1-1.2-.37s0-.43,0-.47a2.37,2.37,0,0,1,.72-.16c-.2-.19-.38-.51-.6-.54a1.48,1.48,0,0,0-.94.26c-.18.12-.21.45-.34.67-.29.5-2.88.64-3.22.19-1-1.28-1.21-1.28-2.46-.14a7.12,7.12,0,0,1-1.28.85.39.39,0,0,1-.35-.13c-.63-1.43-1.54-1.16-2.84-.87a29.78,29.78,0,0,1-5.52.31c-.24,0-.64-.08-.71-.24-.39-.91-1.1-.57-1.72-.47a4.32,4.32,0,0,0-1.57.45,4.87,4.87,0,0,1-3.73-.07,14.16,14.16,0,0,0-1.61-.91c-.07,0-.19,0-.28,0a6.57,6.57,0,0,0,.27,1c.06.14.29.22.44.33a1.7,1.7,0,0,1-.64.13,4,4,0,0,0-3,.23s-.31-.16-.34-.27a1.24,1.24,0,0,1,.06-.6,2.55,2.55,0,0,1,.3-.5,4.38,4.38,0,0,0-.63.12c-.65.25-1.29.56-1.94.79a2.29,2.29,0,0,1-2.69-1c-.18-.21-.36-.5-.59-.56a4.45,4.45,0,0,0-1.1,0,4.9,4.9,0,0,1,.56.66,3,3,0,0,1,.17.73c-.24,0-.66,0-.71-.14-.27-.64-.65-.88-1.33-.63-.09,0-.24-.08-.37-.12.11-.11.23-.22.33-.34s.36-.43.54-.65c-.38,0-1-.09-1.11.11-.54.75-1.3.68-2,.79-1.41.19-2.81.44-4.21.67-.08,0-.2,0-.22,0-.87-1.1-1.87-.48-2.85-.25a.84.84,0,0,1-.18-.52,6.36,6.36,0,0,1,.5-1,8.43,8.43,0,0,0-1,.1c-.46.1-.92.24-1.38.37-.11,0-.23.12-.31.09-.65-.23-.61-.16-1.19.2-.74.46-1.52,1.17-2.44.24-.07-.06-.38.13-.57.2a2.55,2.55,0,0,0,.22.54,6,6,0,0,0,.53.6c-.22-.06-.44-.11-.65-.19s-1,.29-1.35.27a6.31,6.31,0,0,1-1.68-.48c-.17-.06-.41-.39-.41-.38-1.35,1.28-3.11-.54-4.48.58-.1.09-.37.13-.42.07-1.12-1.34-2.22.22-3.33,0-.57-.1-1.42,0-1.66-.28-.81-1.08-1.87-.53-2.81-.65-.52-.07-1.06,0-1.58,0s-1.18-.37-1.54.52c-.12.28-.86.3-1.32.44a10.09,10.09,0,0,1-1.58.45,9.43,9.43,0,0,1-1.68,0c-.25,0-.64-.23-.7-.15-.83,1-2.32.14-3.15,1.11-.06.07-.36,0-.52-.12a2.34,2.34,0,0,0-3.32.84c-.18.26-.73.28-1.11.41a7.41,7.41,0,0,1-.27-.95,2,2,0,0,1,.07-.63c-.24.09-.6.11-.7.28-.88,1.63-2.19,1.57-3.76,1.19a15.53,15.53,0,0,0-2.6.15,8,8,0,0,1-1.54-.52,6.5,6.5,0,0,0-1.09-.13,4,4,0,0,1,.23.66,1.85,1.85,0,0,1,0,.57,1.76,1.76,0,0,1-.41-.1c-.92-.46-1.81-.95-2.74-1.39a17.15,17.15,0,0,1-2.58-1.15,13.61,13.61,0,0,1-1.77-1.93c-.92-.95-1.75-1.92-1.53-3.38,0-.19.06-.4.08-.6.06-.66.13-1.32.15-2,0-.39-.5-.86.29-1.13.14,0,.13-1.14,0-1.17-1.1-.33-.54-1.4-1-2,.11-.06.31-.1.33-.19a3.44,3.44,0,0,0,.3-1.5c-.37-1.66-.95-3.27-1.3-4.93a4.89,4.89,0,0,1,.19-2.27,3.56,3.56,0,0,0-.54-2.56.54.54,0,0,1,.2-.47c.14-.07.36,0,.55,0l0-.94c-.17.1-.34.29-.5.27s-.54-.18-.57-.33c-.11-.62-.31-1.29.59-1.6.16-.05.24-.53.25-.81,0-.75,0-1.49.07-2.3a3.81,3.81,0,0,1,.86.08l0-.55-.89.41c-.58-.48-.57-.48-.16-1a.68.68,0,0,0,.13-.36c-1.11-.66.19-.5.21-.68a22.46,22.46,0,0,0,.06-2.32c0-.48-.21-1.18,0-1.42a6.74,6.74,0,0,0,1.68-3.37,13.41,13.41,0,0,1,1.47-2.73,1.09,1.09,0,0,0,.12-.66c-.22-1.23.25-2.66-1.18-3.54-.25-.16-.14-.91-.19-1.39.22,0,.53-.06.65.06.77.77,1,0,1.18-.46a2.59,2.59,0,0,0,.08-.8c0-.24.07-.48.1-.72a4.87,4.87,0,0,1-.5.4c-.12.07-.36.14-.4.09s-.25-.42-.19-.49a1.47,1.47,0,0,0,0-2.18c-.25-.31-.05-1,0-1.54a3.7,3.7,0,0,0-1.15-2.85c-.24-.24-.23-.77-.23-1.17,0-.11.34-.3.54-.32s.26.23.37.38.3.45.45.68c.09-.32.17-.64.26-1,0,0,0-.06-.08-.08a2.46,2.46,0,0,1-.88-2.62c0-.07-.24-.21-.38-.26-.74-.24-.63-.68-.39-1.25.55-1.29,1.07-2.58,0-4-.15-.19.25-.8.42-1.22.44-1.09.45-2.41,1.66-3.1.05,0,0-.26,0-.39-.13,0-.29,0-.37.14a2.39,2.39,0,0,0-.29.46s-.15,0-.16,0a3.55,3.55,0,0,1-.26-.71,5.31,5.31,0,0,0,0-.7.53.53,0,0,0-.38-.32c-.18,0-.36.16-.55.25.07-.29.14-.57.2-.86.09-.52.18-1,.28-1.54s.15-.91.26-1.35c0,0,.33-.1.38,0a1.27,1.27,0,0,1,.29.58,8.28,8.28,0,0,1,0,1,4.51,4.51,0,0,0,.89-1.19,5.43,5.43,0,0,0,.11-4.28c-.29-.65.63-1.79.42-2.54-.29-1,.73-1.57.52-2.59a10.22,10.22,0,0,1,.38-3.09c0-.12-.12-.28-.22-.37-1-.89-.75-1.78-.13-2.77.15-.23-.06-.75-.21-1.1s-.39-.34-.6-.51a7.49,7.49,0,0,0-.23.77,6,6,0,0,0-.08.84,3.54,3.54,0,0,1-.39-.81c-.18-.76-.31-1.53-.44-2.3a1,1,0,0,1,.09-.39,2.5,2.5,0,0,1,.33.32c.06.09,0,.23.07.32.18.33.38.64.58,1,0-.45.15-1.14-.07-1.3-.75-.56-.05-1.75-1.05-2.1.07-.19.15-.38.21-.57a1.57,1.57,0,0,0,.14-.45c-1.31-.69-.78-1.76-.6-2.77a1.11,1.11,0,0,0-.26-.71,2.82,2.82,0,0,1,.27-3.17.75.75,0,0,0,.23-.53c-.13-1.42-.29-2.84-.47-4.26a7,7,0,0,0-.29-1.06,2.42,2.42,0,0,1-.09-.46c1.52-.52.48-1.68.64-2.53a12.1,12.1,0,0,0,.13-1.35c0-.21.1-.54,0-.62-.93-.7.13-1.51-.13-2.24,0,0,.14-.17.23-.17a5.46,5.46,0,0,1,.7,0c-.05-.73-.08-1.46-.16-2.19,0-.08-.24-.14-.37-.21-.06.17-.18.33-.16.49s.23.42.2.61a3.2,3.2,0,0,1-.34.79c-.11-.22-.33-.45-.33-.68,0-1.48-.16-3,.8-4.32.11-.15-.09-.68-.29-.89s-.79-.54-.08-1,1.39-.79,0-1.33c-.2-.09-.22-.76-.24-1.16,0-.68,0-1.36,0-2.05,0-.17,0-.34,0-.52l.42.15a1.78,1.78,0,0,0,.46.12,2.5,2.5,0,0,0,.26-.8c0-.09-.19-.27-.33-.3-.82-.23-.93-.4-.8-1.35.17-1.17.32-2.34.48-3.57.15-.49.57-1.08.42-1.34-.85-1.5-.43-3.06-.44-4.6a3.67,3.67,0,0,0-.47-1.57c-.47-.89-.23-2.07-1.17-2.75.49-.27-1-1.17.36-1.15,0-.35,0-.81-.14-1-.62-.7-.67-1.26.11-1.84a1,1,0,0,0-.31-.52c-.85-.46-1-.93-.22-1.46.45-.31.75-.33.28-1-.21-.3.32-1.12.49-1.72.13-.44.12-.41-.38-.33a5.07,5.07,0,0,1-.87,0,3.42,3.42,0,0,0,.19-.73c0-.72,0-1.44,0-2.16,0-.16-.05-.36,0-.46a2.53,2.53,0,0,0,.21-3c-.36-.72,0-.71.52-.53.67.25.74-.13.65-.62-.12-.66-.33-1.31-.45-2s.28-1.11.95-1c.13,0,.38-.24.44-.41s.09-.7,0-.72c-.87-.27-.69-1-.73-1.6a17.72,17.72,0,0,0-.25-1.78c0-.11-.12-.27-.07-.33a3.8,3.8,0,0,0,.38-3.86c-.3-.89.21-1.5.83-2.06.07-.07,0-.31,0-.46-.12-.51-.5-1.08-.36-1.5a5.27,5.27,0,0,0,.25-1.72,17.15,17.15,0,0,1,.42-2.82,1.28,1.28,0,0,0,0-.45c-2-.19.18-1.36-.49-2s-.18-1.72-.13-2.61c0-.45-.11-.91-.11-1.36,0-1.1,0-2.19,0-3.29,0-.53,0-1.06,0-1.6a4.49,4.49,0,0,0-.06-.73,1,1,0,0,0-.14-.36c-1.26.32-.7-.68-.77-1.12-.27-1.87-.38-3.78-1.46-5.43L17,95.08c1.23-.18.27-1.45,1-2,.2-.15.05-.78.05-1.19s0-1.07,0-1.61c0-.24.13-.55,0-.71-1.06-1.68-.54-3.42.09-5a5.19,5.19,0,0,0,.29-2.23c0-.75-.18-1.5-.24-2.25,0-.15.16-.33.29-.46s.21,0,.31,0a2.76,2.76,0,0,0-.07.49,5.13,5.13,0,0,0,.13.66c.17-.21.44-.41.48-.65.1-.52-1.18-1.87-1.76-2-.09,0-.2-.31-.2-.47,0-.73.07-1.46.14-2.19,0-.49,0-1.29.22-1.41,1.53-.75.17-1.37-.15-1.74-.67-.77-1-1.4-.38-2.35.12-.18-.17-.64-.26-1-.05-.16-.08-.33-.12-.49l.35.18a4.44,4.44,0,0,0,.44-1.35,3.86,3.86,0,0,0-.49-1.24c-.13-.3-.26-.6-.36-.91a2.83,2.83,0,0,1-.08-.52l.47.29c.17.11.33.24.49.36,0-.26.12-.7,0-.76-1.08-.63-.42-1.74-.55-2.53-.19-1.14.39-2.41.58-3.63,0-.25-.21-.77-.32-.77-1,0-.5-.72-.57-1.15,0-.18.09-.38.06-.56a3.35,3.35,0,0,0-.26-.66c.11,0,.27,0,.31,0a3.39,3.39,0,0,1,.51.82,4.44,4.44,0,0,1,.11,1c.14,0,.38,0,.39-.06a6.23,6.23,0,0,1,.1-.88,4.83,4.83,0,0,0-.55-4.36c1-.87-.07-2,.32-3,.33-.88-.2-2.05-.31-3.1a6.92,6.92,0,0,1,0-1.44c0-.1.26-.16.4-.24a2.79,2.79,0,0,1,0,.5c0,.19-.09.38-.13.57.21,0,.6-.06.61-.13a16,16,0,0,0,.16-1.7l-.4.2-.55.23c0-.2-.2-.52-.12-.59,1-.94,0-1.7-.19-2.53a1.49,1.49,0,0,1,0-.66,9.12,9.12,0,0,1,.3-.88c-1.11-.08-.18-.74-.25-.87-.61-1.08.46-1.72.54-2.58,0-.12.17-.24.15-.35a6.23,6.23,0,0,0-.22-.82,4.35,4.35,0,0,0,.6.46c.09,0,.35,0,.38,0a3.45,3.45,0,0,0,.25-.83s-.3-.22-.38-.18c-.93.52-.74-.57-1.13-.83-.19-.12-.11-.66-.11-1s.11-.69.1-1c0-.83-.08-1.65-.14-2.48a.88.88,0,0,0-.14-.4,1.66,1.66,0,0,1,.37-2.43c.11-.09.28-.28.25-.35a10.33,10.33,0,0,0-1.06-2.13c-.31-.41-.56-1.89-.05-2A2.53,2.53,0,0,0,18.66,19a.63.63,0,0,1,.33-.33A6.07,6.07,0,0,0,22,16.09c.13-.18.46-.2.69-.29.52-.21,1.3-.73,1.5-.57.71.6,1.16.29,1.71-.13.1-.07.42-.06.45,0,.4.85,2,.23,1.94,1.64.58,0,1.29.23,1.72,0s.7-.4,1,.07a1.14,1.14,0,0,0,1.8.17c1-1.24,2.15-.62,3.22-.55s2.13.48,3.11-.4c.12-.12.75.32,1.13.51a1.43,1.43,0,0,1,.28.27c-.31.07-.62.12-.92.21a6.46,6.46,0,0,0-.73.28,4.35,4.35,0,0,0,.71.18,4.16,4.16,0,0,0,1.17,0,.73.73,0,0,0,.46-.52c0-.56.24-.73.74-.51a3.34,3.34,0,0,0,3.78-.47,2,2,0,0,1,.73-.22,8,8,0,0,1-.17.82,3.1,3.1,0,0,1-.39.63,9.2,9.2,0,0,0-.39.91l.3.09.15-.71a1.77,1.77,0,0,0,0-.23l3.48-.53c.09,0,.21-.13.25-.11.55.45,1.84.65,2.23.19s.86-.26,1.33-.19a12.84,12.84,0,0,0,3.17.35,28.05,28.05,0,0,0,3.09-1c.5-.13,1.1.14,1.64.13s1.3-.14,2-.22c.24.16.41.43.61.45A15,15,0,0,1,68,17c.23.1.61-.16.93-.26a2.38,2.38,0,0,1-.43-.34c-.07-.07-.06-.21-.08-.32.19,0,.5-.17.55-.11.45.61,1.7-.14,1.78,1a7.52,7.52,0,0,0,.84-.28c.46-.2.9-.43,1.35-.65a7.44,7.44,0,0,1,1-.52c.48-.18,1-.51,1.47-.39,1.24.34,2.4,1,3.63,1.29A2.52,2.52,0,0,0,80.66,16c.64-.38.9-.41.87.42s.4.72,1,.43a3,3,0,0,1,1.15-.36,32.78,32.78,0,0,0,4.57-.32.83.83,0,0,1,1.11.52c.46.77.91.7,1.43.11.07-.07.07-.29.11-.29.91-.1,2-.55,2.68-.17a2.07,2.07,0,0,0,1.75.13,2.81,2.81,0,0,0,.66-.35,2,2,0,0,0-.56-.34c-1.29-.23.16-1.38-.61-1.78a1.64,1.64,0,0,1,.56.1A3.28,3.28,0,0,0,99.12,14c.23-.16.69,0,1,0,.09,0,.15.21.23.32a1.75,1.75,0,0,0-.33.06c-.54.23-1.07.47-1.59.73a.56.56,0,0,0,.09.44.45.45,0,0,0,.45,0c.83-.55,1.64.07,2.45,0a11.78,11.78,0,0,1,2.42-.19,8.24,8.24,0,0,1,2.48.83c.79.38.75.46,1.26-.36a1.06,1.06,0,0,1,.23-.24c.15.11.36.23.38.37.18,1.23.66,1.06,1.31.32a2.67,2.67,0,0,1,.36-.31c-.17,0-.4.06-.52,0a5.78,5.78,0,0,1-.66-.65,2.81,2.81,0,0,0,.58,0,6.53,6.53,0,0,1,.85-.2c.15,0,.43.18.44.3.08,1,.29,1.14,1.33,1.1,2.53-.09,5.06-.16,7.59-.23a.56.56,0,0,1,.39.19c.41.64.7.36,1.12,0,.21-.2.67-.15,1-.15.11,0,.23.19.34.29a1.76,1.76,0,0,0-.42.17,8,8,0,0,0-.63.67c.27,0,.55,0,.82,0s.6.05.9.06a8.33,8.33,0,0,1,4.11,1.08c.4.21.54.23,1-.15s1.26-.32,1.91-.45c0,.16.08.34,0,.46a2.32,2.32,0,0,1-.42.47,2.62,2.62,0,0,0,.83-.28c.87-.73,1.72-1.37,2.88-.53.09.08.31,0,.48,0a1.43,1.43,0,0,1-.09-.5,6.42,6.42,0,0,1,.14-.74,5.76,5.76,0,0,1,.57.53,4.17,4.17,0,0,1,.33.63l.43-.47a.93.93,0,0,0,.08-.2c.05.07.13.13.15.21.08.28.15.56.22.84s0,.33.08.5c.14-.14.39-.27.4-.41,0-.55.09-.48.6-.31a4.83,4.83,0,0,0,2.06-.08,25.57,25.57,0,0,1,3.77.28c1.51.05,3,.36,4.55-.22a5.58,5.58,0,0,1,3,.28c.75.18.75.27,1.2-.55a1,1,0,0,1,.67-.32c.09,0,.2.32.33.47s.3.44.44.43c1.09-.09,2.18-.23,3.27-.36,0,0,.06-.05.08-.08,1.2,1.44,2.79-.65,4.09.4.05,0,.8-.82,1.25-1.23a.56.56,0,0,1,.46-.1c.53.2,1,.46,1.56.68.23.1.59.1.69.27.21.34.23.54.48,0,.07-.14.63-.11.93,0,.87.2,1.73.47,2.59.69.17,0,.53,0,.54-.06.46-1.83,2.19-1,3.27-1.47.61-.25,1.58.36,2.37.62.09,0,.09.34.18.37s.64.17.7.08a2.65,2.65,0,0,0,.21-.87c.32.21.62.54,1,.6a3,3,0,0,0,1.19-.22c.1,0,.16-.18.24-.28l.3-.41a1.86,1.86,0,0,0,.12.42,6.15,6.15,0,0,0,.37.52,1.7,1.7,0,0,1,.1-.47c.43-.81,1.21-1,2-1.23,1.33-.45,2.32.66,3.5.5a10.71,10.71,0,0,0,2.56-.66,1.43,1.43,0,0,1,1.72.18,1.54,1.54,0,0,0,2,.12.41.41,0,0,1,.19-.09c1.48,0,3-.07,4.44,0a3.2,3.2,0,0,1,1.47.69,1.34,1.34,0,0,0,1.62,0c.18-.1.53.17.81.17A20,20,0,0,0,201.4,17M323.88,28.92a7.62,7.62,0,0,0-1.06-.11,4.28,4.28,0,0,0-.69.21c-.33-.82-.52-.37-.78.05-.08.12-.39.25-.49.19-.81-.45-2,.49-2.63-.67-.09-.16-.74,0-1.13,0-.21,0-.43,0-.65,0l-4.17,0c-.51,0-1,0-1.53,0s-1.07,0-1.35.23c-.83.8-1.55.52-2.37.07-1.31-.72-2.64-.43-4-.17-1,.19-2,1.33-3.06.18,0,0-.18.05-.23.11a1,1,0,0,1-1.37.35c-.41-.16-1,.36-1.58.44a12.45,12.45,0,0,1-3.58.24c-.43-.07-.93-.24-1.44-.28-.83,0-1.67-.17-2.5-.21-.24,0-.61.08-.7.25-.41.75-.91.72-1.64.47-.93-.33-1.94-.44-2.87-.77-.32-.11-.49-.62-.73-.94-.25.22-.51.64-.75.63a12.94,12.94,0,0,1-2.78-.39c-1-.27-1.84-.75-2.78-1.09a1.1,1.1,0,0,0-.71.14,8.74,8.74,0,0,1-1.44.71,3.46,3.46,0,0,1-1.53-.08c-.58-.14-.55.61-1.06.62-.21,0-.38.52-.63.72a1.26,1.26,0,0,1-.77.22c-1-.06-1.92-.21-2.88-.26a8.55,8.55,0,0,1-2.6-.1c-.69-.31-.79-.4-.86.37,0,.18-.47.48-.49.47-.57-.54-1-.4-1.33.24-.05.09-.37.06-.55,0a13.53,13.53,0,0,0-1.76-.31c-1.67,0-3.34.09-5,0a16.48,16.48,0,0,1-2.94-.81c-.12,0-.29.14-.44.21a2.7,2.7,0,0,1-.86.38c-.66,0-1.33-.12-2-.1-.93,0-2-.43-2.53.89-.29.76-3,1.86-3.46,1.29-.73-.85-1.16-.08-1.66.08-1.05.33-2,1-3.18.24-.31-.22-.82-.44-.34.33.07.12-.34.59-.6.82a.61.61,0,0,1-.6,0c-.51-.63-1.13-.53-1.79-.39-.1,0-.26-.19-.39-.3,1.09-1.12-.44-.5-.55-.83-.24.2-.5.38-.72.6a1.55,1.55,0,0,0-.21.45,3.45,3.45,0,0,1-.53-.39,1.54,1.54,0,0,0-2.22-.09c-.38-.39-.75-.55-1.18,0-.1.13-.45.24-.54.17-.89-.63-1.52-2.07-3-.85,0,0-.16,0-.24,0-.52,0-1.05,0-1.57,0a1.21,1.21,0,0,0,0,.46,2,2,0,0,0,.18.4l-.44.07c-.15-1-1.34-.46-1.75-1.14-.1-.17-.45-.25-.7-.27-.52,0-1,0-1.57,0a2.45,2.45,0,0,0-1.73.23,16.63,16.63,0,0,1-2.2,1,14.2,14.2,0,0,0-2,.89,3.76,3.76,0,0,1-4.71-.24c-.37-.27-1.07-.09-1.62-.07-.7,0-.71,1.28-1.64.92-.06.48-1.71.6-.33,1.42,0,0,0,.26-.06.39a7.81,7.81,0,0,1-.78-.32c.3-1-.41-.79-.95-.89-.15,0-.3-.5-.29-.76s.31-.32.48-.48a3.74,3.74,0,0,0-.87-.13,2.23,2.23,0,0,0-1,.24,4.48,4.48,0,0,0-.77.74,3,3,0,0,1,.84,0,3.25,3.25,0,0,1,.81.45c-.23.08-.47.14-.69.24-1.4.68-1.75-1.57-3.08-1.08l.09-.08a1.52,1.52,0,0,0-.49-.25c-.33,0-.8-.13-.42.51.07.11-.09.37-.16.56,0,0-.21,0-.23-.05s-.22-.39-.16-.47c.5-.73-.07-.54-.44-.54h-.65c-.68,0-1.36,0-2,0-1.55-.08-3.1-.18-4.65-.29a1.31,1.31,0,0,1-.49-.24,10.94,10.94,0,0,0-1.56-.8c-.23-.08-.57.17-.87.28a6.6,6.6,0,0,0,.59.8c.07.08.31,0,.45,0,.71.2,1.41.42,2.09.66.1,0,.12.26.18.39-.13,0-.34.12-.39.07-.89-.9-1.73-.3-2.59.06-.64.26-.68.21-.64-.54a.57.57,0,0,0-.39-.39c-1.26-.11-2.53-.17-3.8-.26a7.09,7.09,0,0,1-2-.26c-.89-.36-1.54.1-2.25.41-.17.08-.3.29-.46.31a20.31,20.31,0,0,1-5.44.48.94.94,0,0,1-.51-.17c-1.25-1.18-2.87-.52-4.1-.36a19.48,19.48,0,0,1-2.82-.18c-.12,0-.24-.11-.36-.18.12-.1.24-.27.37-.28.44,0,.89,0,1.34,0a1.59,1.59,0,0,0,.41-.12l-.25-.25c-.51-.49-.92-1.1-1.83-.6a1.93,1.93,0,0,1-1.33,0c-.35-1.62-1.44-.58-2.18-.65-1.31-.12-2.63-.08-3.92-.27-1.07-.16-2.1-.9-3.17,0-.09.08-.37-.11-.54-.07-.36.06-.92.09-1,.32-.62,1.31-1.46.87-2.43.51a6.43,6.43,0,0,0-1.82-.1c-1.23,0-2.44.69-3.68-.36a2.27,2.27,0,0,0-2.22-.53c-1.56.23-3.13.42-4.71.6-.09,0-.21-.24-.32-.37,1.08-.78.06-1.06-.38-1.33a3.26,3.26,0,0,0-1.23-.13,2.27,2.27,0,0,1,.53.43,4.54,4.54,0,0,1,.36.81c-.12,0-.31.15-.33.12-1-1.33-2.22,0-3.32-.23a2.45,2.45,0,0,0-1,.21,6.84,6.84,0,0,0,.71-.82,2.27,2.27,0,0,0,.15-.67c-.22,0-.55-.19-.64-.1a2,2,0,0,1-2.57.32c-.17-.08-.45,0-.67.06-1.1.13-2.2.34-3.31.37a7.24,7.24,0,0,1-2.2-.36c-1.2-.36-2.68.22-3.63-1,0,0-.07.08-.09.07-.93-.31-1.87.18-2.88-.21-.62-.24-1.45-1-2.46-.17a1.61,1.61,0,0,1-2.3-.64.73.73,0,0,0-1.36,0c-.48.85-1.15.59-1.67.35a2.88,2.88,0,0,0-2.91,0c-.23.14-.92,0-1-.17-.67-1.7-2.7-.35-3.54-1.6,0,0-.27.14-.39.11-1.09-.23-2.37.85-3.31-.46a.71.71,0,0,0-.22.11c-.23.15-.45.45-.67.44-1,0-1.94-.11-2.9-.22a7.38,7.38,0,0,1-2.12-.4,4,4,0,0,0-3.47.24,8.15,8.15,0,0,1-5.86.87c-.61-.15-.75-.13-.46.52s.2.57-.47.46c-.86-.13-1.74-.13-2.6-.28s-2.07.08-2.52-1.18c-.05-.14-.43-.17-.66-.21-.08,0-.18.09-.26.15.14.13.29.25.43.39s.25.28.37.42c-.27.1-.56.31-.82.27s-.27-.43-.47-.56-.55-.32-.75-.24c-.89.35-1.66,1.42-2.75.29-.11-.1-.6.17-.92.27a2.23,2.23,0,0,1,.51.19,2.12,2.12,0,0,1,.33.39c-.19.1-.41.3-.57.26-1.26-.27-2.5-.67-3.77-.86-.68-.11-1.65-.36-1.78.88,0,.11-.35.28-.5.25-1.54-.33-3.07,1.09-4.62,0-.11-.07-.35.06-.53.1,0,.11,0,.3.08.31.81.22.24.48,0,.75-.56.79-1.12,1.58-1.67,2.39a1,1,0,0,0,0,.39c0,.57-.09,1.13-.15,1.69s-.63,1-.25,1.84a3.69,3.69,0,0,0,1.41,1.76c1,.65,1.87,1.38,2.81,2.08l.58.41a3.35,3.35,0,0,0,.25-.84,2.34,2.34,0,0,0-.23-.84,4,4,0,0,0-.35-.59c.3.13.77.2.86.42a3.52,3.52,0,0,1,.36,2.89.72.72,0,0,0,.25.68c.71.37,1.48.61,2.19,1,.36.19,1,.66.91.8-.3.82.26.55.61.62.13,0,.23.2.35.3l-.34.16-.56.35c.16.16.29.39.49.48a.61.61,0,0,0,.55-.13c.43-.52.47-.39.73.18s.91,1,1.37,1.45a4.62,4.62,0,0,1,.85,1,1.21,1.21,0,0,0,1.95.52c.11-.07.41,0,.55.14.81.62,1.6,1.27,2.39,1.91a.92.92,0,0,1,.32.33,2.69,2.69,0,0,0,2.21,2c.17,0,.3.54.38.84,0,.14-.17.45-.16.45.71.36,1.44.69,2.15,1a5.85,5.85,0,0,1,.86.53c.12.09.23.41.26.39a4.29,4.29,0,0,0,.92-.43,1.59,1.59,0,0,0,.39-.46c.08.22.25.45.22.65a1.28,1.28,0,0,0,1.1,1.69,1.58,1.58,0,0,1,.67.37,3.42,3.42,0,0,0,3,1.06c.35-.05,1,0,1.06.2.39.81,1.11.39,1.65.56a5.28,5.28,0,0,0,.67.13,3.17,3.17,0,0,0-.62.28c-.27.19-1.18.08-.6.73a7.19,7.19,0,0,0,2.37,1.88c.93.41,1.84.9,2.73,1.4a23.78,23.78,0,0,0,2.47,1.45c.53.22,1.35-.19,1.82.07s.81,1,1.18,1.58c.5.73,1.18,0,1.73.22a3.07,3.07,0,0,1,.5.39,4.91,4.91,0,0,1-.51.15,2.68,2.68,0,0,1-.4,0,1.57,1.57,0,0,0,.24.37c.22.18.49.48.72.46a2.82,2.82,0,0,1,2.32,1c.25.25,1.06.38,1.13.26.39-.63.9-.3,1.36-.33a1.6,1.6,0,0,0,.58-.2,3,3,0,0,0,.38-.24c0,.16,0,.4-.07.47-.57.44-.23.76.13,1,.71.46,1.43,1,2.28.19.11-.11.43-.08.61,0s.25.27.38.41a5.6,5.6,0,0,0-.59.12c-.34.12-.68.26-1,.4-.09,0-.2.13-.2.21a.42.42,0,0,0,.14.25c.65-.26,1.73.66,2-.71a.29.29,0,0,1,.19-.21.39.39,0,0,1,.26.13c-.31,1.1.55.89,1.12,1,1,.28,2.21.34,2.93.95a6.58,6.58,0,0,0,3.39,1.64c1,.18,2.08.56,3.13.69.82.1,1.22.17.48.95-.09.09-.1.26-.14.39.13,0,.35.08.39,0,.5-.76.88-.5,1.37,0,.25.27.85.59,1.06.47,1.18-.68.85.5,1.19.87.52.55,1.11,1.41,1.69,1.43s.86-.08.93.61c0,.14.42.23.65.35-.05-.22-.08-.45-.14-.67a3.89,3.89,0,0,0-.19-.42,1.82,1.82,0,0,1,.61-.23c.47,0,.83.87.7,1.33-.08.25.08.82.23.85a7.79,7.79,0,0,0,1.61.11h.28c-.33,1.09,1.73.63,1.21,1.85l.55.09c.38.07.84,0,1.13.21a30.18,30.18,0,0,0,2.82,2c1,.52,1.31,2.22,2.89,1.8,0,.22.17.55.08.63-.64.56-.4.76.24,1.12s1.82.18,2.2,1.21c0,0,.15.08.16.06.72-1,1,.11,1.42.32.28.13.65.06,1,.17a10.32,10.32,0,0,1,1.24.63c.08,0,.11.22.16.33-.32-.07-.64-.14-1-.19a3.7,3.7,0,0,0-.74,0,7.62,7.62,0,0,0-.81.14c.14.19.25.5.44.56.37.11.84,0,1.17.13a28.58,28.58,0,0,1,3.24,1.82c1.31.88,2.54,1.9,3.82,2.82a2,2,0,0,0,.86.2s.16-.23.15-.23c-.22-.17-.47-.3-.69-.47a3.25,3.25,0,0,1-.42-.41c.19-.1.43-.32.58-.27a5.52,5.52,0,0,1,1.57.69,8.6,8.6,0,0,1,1.78,1.56c.41.5.51,1.25.92,1.75.26.32.84.38,1.27.55a8.11,8.11,0,0,0-.28-1.13c-.08-.21-.34-.33-.48-.52a1.83,1.83,0,0,1-.18-.48c.21,0,.51-.08.62,0a8.56,8.56,0,0,1,.93,1.14c.16.2.24.51.44.63.87.53,1.79,1,2.66,1.55.16.1.14.51.2.78a4.17,4.17,0,0,1-.61,0c-.1,0-.2-.14-.29-.13-.39,0-.77.13-1.15.2.45.22.89.45,1.36.64.13.05.33,0,.46,0a5.45,5.45,0,0,1,1.58.73c.69.6,1.23,1.36,1.86,2a.51.51,0,0,0,.48.1c1.08-.78,1.83-.17,2.53.58.08.08,0,.27,0,.41a1.9,1.9,0,0,1-.34,0c-.22,0-.43-.12-.65-.18.18.2.34.48.57.57s.91,0,1.11.22a11.34,11.34,0,0,1,1.15,1.86c.47.82,1,1.54,2.09,1.5a3.48,3.48,0,0,1,1.9.23c.48.31.64,1.09,1,1.63.09.14.4.19.61.21s.6-.14.79,0c.61.36,1.13.89,1.75,1.22a36.1,36.1,0,0,0,3.56,1.68c1.69.67,3.43,1.23,5.15,1.84.48.17,1.22.2,1.39.53.45.86,1.95.36,2,1.63,0,0,.17.06.2,0,.79-.66,1,.19,1.5.5s1,.6,1.5.93,1.39.27,1.26,1.29c0,.08.47,1.49,1.44.64.06,0,.2,0,.31,0a1.19,1.19,0,0,0-.18.33c0,.22-.1.5,0,.64s.41.25.63.37c.39-1,1.21-.31,1.8-.37.2,0,.5.7.74,1.09,0,.06,0,.17-.08.26-.37-.19-.87-.55-.68.3,0,.2.6.34.94.4,1.1.18,2.2.37,3.31.46.72.06.34.26.12.46-.47.41-.49.47.12.64a11.41,11.41,0,0,1,1.6.23c1.74.8,3.23,2,5,2.78a21.65,21.65,0,0,0,4.87,1.52,2.46,2.46,0,0,1,.5.17c-.13.12-.25.25-.39.37s-.2.15-.31.23c.07.08.11.21.19.23a15.45,15.45,0,0,1,4,2.09.85.85,0,0,0,1.25-.16c.2-.29,1.25-.26,1.74,0a7.59,7.59,0,0,0,3.7,1c.09,0,.24.17.25.27.05.72.11.44.31,0,.1-.18.45-.21.68-.32.78-.4,1.65-.14,2.41-.3,1.47-.29,2.78-1.2,4.31-1.38.12,0,.25-.42.24-.63s-.34-.17-.53-.25c.23-.1.48-.17.71-.28.39-.2.76-.45,1.16-.64a6.83,6.83,0,0,1,.8-.27c-.06.27-.12.54-.16.81a2.73,2.73,0,0,0,0,.41l.41-.09c.41-.11.45-1.12,1.16-.46.12-.18.35-.37.34-.55a1.89,1.89,0,0,1,1.59-2.29,16.33,16.33,0,0,1,2.34-.9,2.57,2.57,0,0,0,1.95-1.24,16.21,16.21,0,0,1,1.52-1.59c.26-.31.31-.57.88-.33.77.34,1.22-.1,1.48-1,0-.14.44-.18.67-.25.63-.19,1.42-.2,1.85-.6a12.7,12.7,0,0,0,1.36-2.13.94.94,0,0,1,.71-.22c1.37.1,1.51,0,2.1-1a.53.53,0,0,1,.25-.24c.66-.23,1.39-.23,1.67-1.15.13-.42.73-.75,1.19-1,1.08-.57,2.2-1.09,3.32-1.59a3.44,3.44,0,0,1,1-.12c-.26-.22-.53-.44-.8-.64a1.12,1.12,0,0,0-.31-.1c.07-.09.12-.2.21-.25.82-.46,2.11-.11,2.41-1.45,0,0,.19-.08.3-.09.57-.07,1,.05,1.56-.62a15,15,0,0,1,4.5-3.21,10,10,0,0,0,3.21-2.44c1.2-1.49,1.06-1.61,2.37-2.06a3.62,3.62,0,0,0,.4-.19c1.09-.46,1.41-2,2.79-2.06.07,0,.14-.25.2-.38a1.39,1.39,0,0,1,2-.66.79.79,0,0,0,.64.08c.2-.12.3-.41.44-.62a4.87,4.87,0,0,1-.76-.15,4,4,0,0,1-.64-.36c.19-.11.37-.31.57-.33,1.29-.1,2.59-.13,3.88-.27a2.83,2.83,0,0,0,1.18-.55c1.21-.79,2.39-1.62,3.61-2.38.13-.08.48.19.73.28s.24.09.31,0a.33.33,0,0,0,.1-.29c-.18-.7-.18-.69.56-.86a6.8,6.8,0,0,0,1.91-.51,4.3,4.3,0,0,0,1.73-1.59c.26-.53.26-1.07,1-1.09a4.73,4.73,0,0,0,1.13-.14,1.71,1.71,0,0,0,.75-.5,5.44,5.44,0,0,0,.68-1,.53.53,0,0,0,0-.49c-.71-.66.3-.54.37-.83.54.41.75-.11,1.08-.35a.73.73,0,0,1,.53-.12c1,.29.94.3,1.13-.78,0-.22.24-.42.36-.62,1.27,1.3,1.74-.37,2.52-.73,1.57-.7,2.58-2.46,4.57-2.41.11,0,.36-.44.31-.53a2.71,2.71,0,0,0-.65-.61l-.48-.39c.36-.25.7-.69,1.08-.73a6.73,6.73,0,0,0,4.59-2.64,32.69,32.69,0,0,1,2.53-2.46c.29-.29,1.41.06.76-1,.34-.2.76-.65,1-.57a2.84,2.84,0,0,0,2.7-.78,3.66,3.66,0,0,0,.85-1.4c.08-.19-.1-.49-.15-.74a2,2,0,0,0,.74-.14c.51-.3,1-.66,1.46-1a.3.3,0,0,0,.11-.24c-.17-.7-.08-.84.54-.64,1,.31,1.84.43,2-1,0-.1.23-.22.37-.27.51-.14,1-.25,1.53-.41a1.37,1.37,0,0,0,0-.4c-.05-.69,1.26-2,1.77-1.78l.65.26c-.11-.22-.25-.44-.35-.67s-.13-.42-.2-.62c.18,0,.4.13.51,0,.33-.2.76-.42.88-.74a1.44,1.44,0,0,1,1.69-1c.2,0,.47-.23.65-.42s-.1-.31-.15-.47l-.51.21a3.22,3.22,0,0,1-.81.31c-.17,0-.37-.17-.56-.27a2.75,2.75,0,0,0,.4-.26,15.85,15.85,0,0,0,2.21-2c.35-.44.34-1.16,1.1-1.27a3,3,0,0,0,.58-.19,5.21,5.21,0,0,0-.41.52c-.19.29-.37.59-.55.89.57-.06,1.15-.11,1.71-.21.1,0,.21-.32.19-.48a3,3,0,0,1,1.39-3.07,3.36,3.36,0,0,0,1.58-2.1c.22-.47.17-1,.78-.33.07.07.26,0,.4,0a1.71,1.71,0,0,0,0-.32c-.35-1-.13-1.32,1-1.5.38-.07.91-.22,1.06-.51a3.32,3.32,0,0,1,3.28-1.87c.2,0,.46-.38.6-.63s-.09-.41-.23-.51a5.75,5.75,0,0,0-.93-.46l.88-.08s.05-.06.08-.08l1.53-.58c.47-.17.6-.59.86-.78s.86-.09,1.29-.18c.14,0,.27-.27.32-.44a4.4,4.4,0,0,1,2.86-3c.53-.2.73-.21.48.45-.09.24.07.58.11.87.22-.14.51-.24.64-.44.26-.39.42-.85.65-1.26s.52-.89.78-1.33a1.06,1.06,0,0,1,.33.25,1.36,1.36,0,0,0,2,.17,9.43,9.43,0,0,1,2.87-1.66,13.09,13.09,0,0,0,2.22-1.46c.41-.34.58-1,1-1.35.66-.69,1.62-1,1.59-2.35,0-.92.72-1.86,1.09-2.8a1.26,1.26,0,0,0,0-.58c-.07-.81-.53-1.93-.16-2.37.93-1.12-.26-.83-.55-1.25a5.89,5.89,0,0,0,0-1.33c-.09-.34-.39-.88-.59-.87-.95,0-1.34-.62-1.91-1.18-.26-.26-1-.07-1.52,0a2.92,2.92,0,0,0-.07.71c0,.21,0,.42,0,.63a2.16,2.16,0,0,0-.49-.38,2.35,2.35,0,0,0-.94-.27c-.72,0-2,.29-2.05.2-.31-1.24-1.13-.75-1.86-.7-.54,0-1.25.26-1.31-.68-.84.23-1.67.46-2.62.69a2,2,0,0,0-.5,0c-.59.21-1.17.49-1.77.65a2.48,2.48,0,0,1-.92-.1c.2.27.39.55.58.82l.31.42a1.78,1.78,0,0,1-.48-.12,4.64,4.64,0,0,0-3.53-.5c-.24,0-.78.29,0,.53.13,0,.18.36.26.55-.22,0-.54.16-.66.06a15,15,0,0,1-1.19-1.2l.35-.2a.4.4,0,0,1,.11,0l.49,0c-.16-.13-.31-.36-.48-.37s-.6.16-.9.16a6.33,6.33,0,0,1-2.32-.16,13.07,13.07,0,0,1-2.85-1.89c-.28-.24-1.24-.43-.56-1.22,0,0-.12-.23-.18-.34-.09.08-.27.17-.27.26,0,.42,0,.76-.58.69-1-.11-2.08-.21-3.13-.22a6.8,6.8,0,0,0-1.27.33c-.42.08-1,.3-1.25.1-1-.89-1.85-.45-2.67.08a2.13,2.13,0,0,1-1.78.46,2,2,0,0,0-1.65.42,2,2,0,0,1-1.91.77c-.6,0-1.2-.24-1.78-.21s-1.31.25-2,.27M387.6,86c-.14-.4-.51-1.09-.4-1.17,1.05-.8.16-1.45-.08-2.16-.11-.31-.28-.77-.15-1,.65-.9.44-1.91.53-2.89a14,14,0,0,1,.4-1.64,4,4,0,0,0,.07-1c0-.21-.29-.51-.23-.59.58-.71.05-1.3-.14-1.94a2.2,2.2,0,0,1,0-.72,17.19,17.19,0,0,0,.28-2.93c-.08-1.21-.46-2.41-.63-3.62,0-.22.32-.49.46-.75s.74-.7,0-1.1c-.2-.11-.17-.58-.28-.88s-.23-.42-.33-.64a2.3,2.3,0,0,1-.18-.5,12.69,12.69,0,0,0-.68-2.73,9.16,9.16,0,0,0-1.78-2.17c-.3-.31-.41-.27-.12-.55.45-.43.2-.43-.2-.42-.57,0-1.13,0-1.7,0a4.94,4.94,0,0,1-.65-.12c-.64-.11-1.41-.51-1.88-.29a5.16,5.16,0,0,1-2.47.49c-.75,0-1.49.71-2.23,1.11-.24.12-.48.26-.71.39l.79.08.59.09c-.18.21-.45.62-.52.59a3.27,3.27,0,0,0-3.48.4A21.15,21.15,0,0,0,370,61.31a3.78,3.78,0,0,1-.94.81c-.35.18-.83.11-1.18.28s-1.21.19-.4.91a.55.55,0,0,1,0,.54c-.14.13-.54.24-.6.17-.85-1.06-1.54,0-2.29.16a5.64,5.64,0,0,1-.93.31c-.84.05-1.68,0-2.52.05-.27,0-.52.37-.78.57a7,7,0,0,1,.82.11c.36.09.7.22,1.05.33-.34.21-.76.65-1,.57a2.28,2.28,0,0,0-2.62.75c-1,1-2,2-3.08,3a3.42,3.42,0,0,1-.8.44,5.91,5.91,0,0,1,0-.84,1.71,1.71,0,0,1,.15-.47c-.16.06-.38.06-.48.17-.77.88-1.53,1.78-2.27,2.69-.09.11.07.39,0,.56-.11.36-.2.87-.46,1-.81.41-1.7.68-2.54,1-.08,0-.11.28-.09.42.15,1-.53,1.18-1.23,1.43a6.08,6.08,0,0,0-1.14.63c-.25.15-.48.36-.72.54l-.46.32a3.88,3.88,0,0,0,.63.35,5.84,5.84,0,0,0,.73.11c-.07.11-.12.26-.23.32-.29.17-.77.49-.87.4-.7-.59-1.22.12-1.82.14s-.49.21-.56.66.13,1.35-.82,1.5a5.26,5.26,0,0,0-1.62.44c-1,.5-1.94,1.24-3,1.64s-2,.6-2.23,2a2,2,0,0,1-2,1.54c-.45,0-.9-.17-1.36-.22a2.09,2.09,0,0,0-.59.1,3.52,3.52,0,0,0,.74.44c.3.09.65,0,.95.11s.29.24.43.37a1.65,1.65,0,0,1-.51.15c-.56,0-1.3-.48-1.27.69,0,.21-.4.45-.64.66-.07.06-.2,0-.31.06a.92.92,0,0,1,0-.4,4.82,4.82,0,0,1,.31-.74,7.85,7.85,0,0,0-1,.22,4.75,4.75,0,0,0-.89.4,2.62,2.62,0,0,0-.43.39,2.23,2.23,0,0,1,.52.15c.31.18.6.4.9.6-.39.47-.78.94-1.2,1.38,0,0-.29-.24-.46-.37a1.38,1.38,0,0,0-.32-.19c-.15.17-.4.4-.36.54.42,1.58-.7,1.32-1.57,1.34-.65,0-1.3,0-1.93,0-.2,0-.36.38-.54.59a2.72,2.72,0,0,1,.5.19,3.68,3.68,0,0,1,.44.34c-.17.17-.42.52-.52.48-1.16-.44-1.68.58-2.5,1-1.17.53-1.46,2.94-3.48,1.7-.08-.05-.32.12-.47.21-1.37.86-3,1.27-3.88,2.88-.28.55-1.06,1.39-1.35,1.29-1.21-.41-1.05.71-1.52,1.1s-1,.93-1.24.82c-1.09-.59-.86.37-1,.78-.19.58-.23,1.19-.37,1.78a2.14,2.14,0,0,1-.35.57c-.11-.11-.32-.23-.31-.34a2.21,2.21,0,0,1,.24-.61,3.72,3.72,0,0,1,.19-.34c-.05,0-.12-.09-.16-.08-.56.16-1.42.16-1.62.53-.52.93-1.28.74-2,.86-.6.1-1.24.33-1,1.26a1,1,0,0,1-.58.81c-1.32.29-2.66.43-3.72,1.43-.49.45-1.32.52-1.17,1.59.05.36-.79.88-1.28,1.25-.14.11-.49-.06-.75-.1a5.35,5.35,0,0,0,.56-.36,2.07,2.07,0,0,0,.33-.39c-.18,0-.42-.13-.55-.06-.3.19-.7.42-.78.72-.18.65-.15,1.25-1.08,1.47-.36.09-.41,1.13-.78,1.59a6.07,6.07,0,0,1-1.72,1.48c-.84.44-1.54,1.4-2.74.91-.26-.11-.7.17-1,.33-.05,0,0,.55.14.59a4.34,4.34,0,0,0,1,.09l.7.06c-.12.19-.21.48-.37.54-.61.2-1.27.24-1.86.48-1.47.62-2.91,1.33-4.37,2-1.77.79-3.23,2.5-5.49,1.81-.05,0-.19.12-.2.2a.34.34,0,0,0,.16.25c.26.06.53.06.79.12s.78.2,1.17.3a3,3,0,0,1-.86.51c-.65.15-1.43,0-2,.3a7.76,7.76,0,0,0-3,2.25c-.52.87-1.34,1.13-1.87,1.76a4.47,4.47,0,0,1-3.51,1.56,2.26,2.26,0,0,0-1.81.64,8.85,8.85,0,0,1-.76.74,4.56,4.56,0,0,1-.67.4l.95.17c.31.05.62.08.94.12-.22.3-.38.7-.67.87s-.77.09-1.13.21c-.63.22-1.58-.17-1.73,1,0,.33-.46.64-.77.88s-1,.62-1.47.94c-.19.13-.44.49-.5.45-1.34-.75-1.38.49-1.76,1.16s-.47.79-1.29.33c-.08,0-.28,0-.3,0-.26.59-.51,1.17-.71,1.78a2.73,2.73,0,0,0,0,.76c-.24-.1-.54-.14-.69-.31-.57-.66-.9-.45-1.08.26-.11.41-.11.85-.19,1.27a.51.51,0,0,1-.27.27c-.74.31-2-.33-2.1,1.17,0,.15-.33.26-.48.41s-.45.5-.69.73-.58.69-.81.65a2.87,2.87,0,0,0-2.21.37,1.32,1.32,0,0,1-1.71.18c-.18-.11-.75.14-1,.39-.66.71-1.18,1.56-1.86,2.26-.39.38-.56,1.6-1.58.67-.05,0-.42.24-.63.39s-.39.41-.62.5a16.26,16.26,0,0,0-3.4,2.09s-.14,0-.21.05c-1.13.32-2.25.69-3.39.93a9.17,9.17,0,0,1-1.74,0,1.59,1.59,0,0,0-.45.15c.16,0,.33.08.5.14a1.38,1.38,0,0,1,.55.24c.07.06,0,.39-.09.45a1.15,1.15,0,0,1-.56,0,15.38,15.38,0,0,0-2.78-.17c-.55.06-.71.15-.78-.49,0-.24-.66-.59-1-.56a6.24,6.24,0,0,0-1.52.6c.37.82-.23.89-.7.75a11.4,11.4,0,0,1-1.84-.94s0-.16,0-.21c.17-.21.37-.4.55-.6a4.29,4.29,0,0,1-.79.11c-.25,0-.49-.2-.74-.21a2.46,2.46,0,0,0-.83.17,5,5,0,0,0-.7.42,3.29,3.29,0,0,0,.4-.85,7,7,0,0,0,.06-1.22l-.53.46c-.09.08-.17.25-.25.24a11.6,11.6,0,0,1-1.18-.19c-.06,0-.1-.08-.14-.13a4,4,0,0,0,.79-.35c.13-.08.27-.38.22-.46a1.38,1.38,0,0,0-1.21-.75c-1.91-.12-3.91.19-5.69-.89-.65-.4-1.38-.65-2.07-1-.07,0-.09-.33,0-.43a3,3,0,0,1,.52-.48,2.59,2.59,0,0,0-1,0c-.48.22-.77.41-1.17-.23a1.59,1.59,0,0,0-2-.51c-.46.17-.94.64-.95-.37,0-.12-.42-.25-.66-.33,0,0-.23.26-.21.36.24.93-.19,1-.82.59-1-.64-1.82-1.46-2.82-2a8.56,8.56,0,0,0-2.24-.75c-.24-.06-.54.18-.82.23,0,0-.13-.24-.2-.37l.88-.4.54-.23c-.16-.12-.32-.35-.48-.35a3.08,3.08,0,0,0-.89.19c-.28.06-.59.26-.82.18a7.55,7.55,0,0,1-1.44-.74,4.63,4.63,0,0,1-.86-.67c-.59-.61-1.14-1.25-1.73-1.85a.52.52,0,0,0-.46.12c-.3.93-.76.31-1.15.13-1.29-.6-2.29-1.7-3.71-2.09-.68-.19-1.25-.95-1.91-1a3.84,3.84,0,0,1-2.54-1,2,2,0,0,0-2.45-.67c-1,.48-1.15-.74-1.85-.79.07-.13.1-.34.21-.38a3.75,3.75,0,0,1,.75-.19l1.12-.28a10.4,10.4,0,0,0-1.2-.61c-.15-.06-.37.08-.56.11a1.37,1.37,0,0,1-.49,0c-.17-.7-.72-.59-1.24-.72-.74-.2-2.19.05-1.48-1.59.05-.12-.09-.32-.13-.48-.16.31-.33.6-.46.91a1.36,1.36,0,0,0,0,.49c-.16-.09-.39-.13-.47-.26s-.07-.55-.2-.61a4.59,4.59,0,0,1-2.62-3.13.16.16,0,0,0-.08-.08l-.74-.33c.09.19.19.38.27.57s.15.39.23.59c-.27,0-.67.12-.78,0a2,2,0,0,1-.22-.88c0-.17,0-.46,0-.48a1.12,1.12,0,0,0-.63,0c-.08,0-.08.28-.18.38a.4.4,0,0,1-.32,0c-.09-.39-.95-.69-.15-1.2.12-.08.1-.38.14-.57-.27,0-.59-.21-.81-.12-.59.24-1,0-1.11-.71a3,3,0,0,0-.46-1.19,19,19,0,0,0-1.18-1.69,1.26,1.26,0,0,0-.59-.43,15.29,15.29,0,0,0-3-.64c-1.09,0-1.6-.44-1.71-1.5a.91.91,0,0,0-.41-.64c-1.14-.4-1.86-1.71-3.29-1.51a2.56,2.56,0,0,1-1.09-.3.44.44,0,0,1-.2-.33.37.37,0,0,1,.23-.24c.53,0,1.06.12,1.59.18a3.29,3.29,0,0,0,.77,0,.78.78,0,0,0,.09-.45c-.28-.16-.69-.44-.88-.34a1.19,1.19,0,0,1-1.35-.19,9.36,9.36,0,0,1-1.58-1,4.65,4.65,0,0,1-.85-1.47c-.07-.17.16-.55.08-.62a.93.93,0,0,0-.72-.21c-.44.12-.85.41-1-.31,0-.08-.29-.2-.33-.17-1.47,1.23-3.2-.33-4.72.43a1,1,0,0,1-.37-.54c0-.28.34-.72.25-.82a1.76,1.76,0,0,0-1-.48c-.43-.08-1,.14-1.31-.06s-1.32-.11-1.07-1.1c.13-.56-2.28-1.9-2.82-1.89a5.77,5.77,0,0,1-1.84-.61s.1-.31.15-.47a2.11,2.11,0,0,0,.27.18c.12,0,.26.07.39.11,0-.13.06-.34,0-.39-.26-.2-.63-.56-.83-.49-.75.27-1-.25-1.44-.65-.09-.09-.16-.32-.21-.31a6.64,6.64,0,0,0-.85.22c.19-.19.39-.39.57-.59,0,0-.08-.13-.14-.15-1-.39-2.05-.78-3.08-1.14a.35.35,0,0,0-.29.1,1.11,1.11,0,0,0-.18.32,1.75,1.75,0,0,1-.07-.44c.05-.36.14-.72.21-1.08-.88-.1-1.35-1.55-2.51-.77a1.8,1.8,0,0,1-.48.15,1.79,1.79,0,0,1,0-.56,2.4,2.4,0,0,1,.3-.57,4.22,4.22,0,0,1-.81.31.6.6,0,0,1-.46-.19c-.39-.42-.71-.89-1.11-1.29s-.81-.68-1.21-1-1-1.39-1.25.18a.61.61,0,0,1-.39.27,4.38,4.38,0,0,1-.75-.74s.16-.25.26-.35a3.49,3.49,0,0,1,.42-.36c-.23-.2-.49-.6-.68-.56-1.33.25-2-.76-2.53-1.55s-2.28-.49-1.56-2.1c0-.09-.46-.42-.71-.64a1.77,1.77,0,0,1,0,.6,2.69,2.69,0,0,1-.44.58c-.17-.14-.47-.28-.47-.43,0-1.64-1.12-1.32-2.11-1.14-.58.1-1-.2-.9-.76,0-.23-1-1.51-1.18-1.4-1.27,1-1.22-.5-1.75-.88-.27-.2-.54-.56-.82-.56-1.3,0-1.32,0-1.31-1.12,0-.11-.06-.3-.1-.3a12.17,12.17,0,0,0-1.91,0c-.16,0-.26.43-.39.66a4.72,4.72,0,0,0-.29-.9c-.07-.13-.34-.15-.45-.29-1.16-1.46-3.06-.26-4.46-1.34-1.22-1-2.89-1.32-4.36-2-.14-.07-.35-.36-.31-.43.47-.88-.5-.93-.72-.93a6.58,6.58,0,0,1-3.45-.7,13.48,13.48,0,0,0-3.45-.78c-.14,0-.23-.28-.35-.43l.5,0a2.57,2.57,0,0,1,.48,0c.85.16.84.17.6-.6a.69.69,0,0,1,0-.47,3.8,3.8,0,0,1,.35-.57,5.13,5.13,0,0,0-1.19.24c-.3.14-.48.5-.76.7a.59.59,0,0,1-.47-.07C91.87,78.23,91,78,89.84,78a1.06,1.06,0,0,1-.71-.74c-.08-.86-.34-1.14-1.16-.66a1.41,1.41,0,0,1-.85.2c-.3,0-.8-.19-.83-.35-.13-.93-.57-1-1.39-.8s-1.11-.18-.91-.67-.24-1.06-.62-.93c-1.1.36-1.6-.85-2.54-.87s-.43-1.62-1.58-1.33a.43.43,0,0,1-.08-.19c0-1.31-.73-1-1.54-.76a1.67,1.67,0,0,1-1.13-.16c-1.24-.61-2.46-1.27-3.68-1.94-.06,0,0-.26,0-.38a4.57,4.57,0,0,1,.19-.63,4,4,0,0,0-.75-.15c-1,0-2,.38-2.63-.87-.09-.2-.41-.29-.63-.43-.6-.36-1.18-.73-1.79-1.06-.16-.08-.6-1.14-.6.09,0,.05-.18.09-.28.13,0-.14,0-.29-.09-.44-.1-.35-.08-.85-.31-1-1-.76-2.25-1.24-2.95-2.17s-2.4-.16-2.37-1.77a.84.84,0,0,1-.31,0,1.51,1.51,0,0,1-.57-.22c-1.08-.92-1.86-2.19-3.51-2.38A1.28,1.28,0,0,1,54.93,56c0-.29-.64-1-.68-.93-.83.49-1.33-.09-1.91-.48-.12-.09-.36,0-.54,0a2.36,2.36,0,0,1,.36.26,3.64,3.64,0,0,1,.28.47,2.18,2.18,0,0,1-.6.14c-.41,0-.87-.25-1.22-.13a3.34,3.34,0,0,1-2.63.18c-.23-.09-1.18-.33-.54.62,0,0-.25.4-.44.53-.73.49-1.49.95-2.24,1.42.58.79-.1,1.52-.11,2.27,0,1.22-.86,2.43,0,3.66,0,0-.11.18-.16.28-.48.85-1.17,1.52-.92,2.75s.27,2.2,1.36,2.89c.11.07.12.54,0,.67-.56.62-.8,2.92-.19,3.49a1.18,1.18,0,0,1,0,1.68,2.11,2.11,0,0,0-.17,1.94c.3,1.22.81,2.56.25,3.64a2.77,2.77,0,0,0,.12,2.48c.16.51,1.11.9.08,1.47a.61.61,0,0,0,.12.32c1.34,1.09-.08,2.37.23,3.53a1.7,1.7,0,0,1-.37.11c-.19,0-.38,0-.56,0l.09.9a2.79,2.79,0,0,1,.49-.42c.14-.06.42-.07.48,0a9.55,9.55,0,0,1,.58,1,5.72,5.72,0,0,0-.57-.11,2.78,2.78,0,0,0-.5,0c-.65.06-.28.61-.44.9a3.37,3.37,0,0,0,.24,1.43,1.45,1.45,0,0,1,1,1.26,6.87,6.87,0,0,1-.12.88,3.66,3.66,0,0,0-.43-.65,6.71,6.71,0,0,0-.85-.75s-.24.13-.24.14c.19.43.38.86.6,1.27,0,.1.24.18.23.26-.08.8,1.45,1.36.35,2.32-.06,0,.06.29,0,.43-.08,1.15-.21,2.3-.25,3.45,0,.64-.23,1.46.82,1.59.12,0,.21.22.32.33-.22.1-.44.3-.65.29-.83,0-1.1.28-.77,1a6.56,6.56,0,0,1,.35,4.26c0,.63-.07,1.27-.12,1.91s-.37,1.18.45,1.52c.1,0,.09.41.1.63a27.18,27.18,0,0,0,.24,3.39c.08.4.54.6,0,1.12-.34.35-.68,1.12-.52,1.48.83,1.84.1,3.53-.32,5.25a.94.94,0,0,1-.38.52,1.26,1.26,0,0,1-.54.12c.17,0,.4,0,.5.14s.49.53.46.76a12,12,0,0,0-.45,2.5c.14,1.32,1.13,2.51.85,3.92-.24,1.22.49,2.6-.65,3.69-.5.49-.41.51.26.8a1,1,0,0,1,.41.73c0,.17-.19.38-.3.57a4.85,4.85,0,0,0-.39-.61,1.45,1.45,0,0,0-.43-.22c.12.6.21,1.71.37,1.72,1.34.1.84.78.54,1.4-.69,1.41-1.4,2.81-2.09,4.22a1.3,1.3,0,0,0,0,.49c.19,0,.46,0,.56-.11a2.57,2.57,0,0,0,.38-.78,8.89,8.89,0,0,0,.26-.88,6.47,6.47,0,0,1,.44.82,1.3,1.3,0,0,1,0,.62c-.14.92-.33,1.84-.46,2.76-.18,1.38-.29,2.77-.49,4.14-.07.46-.34.89-.45,1.35-.33,1.28-.62,2.58-.91,3.87a.73.73,0,0,0,.09.4c.36.92-.22,1.68-.42,2.51,0,.13-.28.32-.28.32.33.33.68.63,1,.94.09-.17.17-.35.26-.53s.16-.27.24-.41c.15.11.44.26.42.33a3.41,3.41,0,0,1-.39,1.08c-.6.91-1.25,1.78-1.87,2.68,0,0,.07.21.14.23.85.3.44,1,.5,1.55a16.76,16.76,0,0,0,.3,3.12,1.42,1.42,0,0,1-.35,1.59c-.19.2-.47.36-.56.59s.05.48.1.72a1.19,1.19,0,0,1,.29-.37.54.54,0,0,1,.44-.06c.56.34.29.59.13,1.15-.29,1,.12,2.14.1,3.22,0,.48-.43,1.38-.56,1.36-1.06-.16-.57.45-.43.81.56,1.48,1.14,2.79.46,4.58-.52,1.37.09,3.13-.61,4.64,0,.1,0,.29.09.42.48,1,.12,2-.05,3-.12.72-.75,1.56,0,2.36.14.17.13.47.19.72l-.67-.37c-.08,0-.16-.1-.24-.15,0,.43,0,.87.12,1.29,0,.2.37.47.33.53-.74,1,0,2.12-.22,3.15a.58.58,0,0,1-.2.35,5.94,5.94,0,0,1-.74.28c.24.15.49.28.71.44s.55.34.66.59-.1.47-.2.7c0,.07-.26.14-.28.11a.86.86,0,0,1-.16-.35c-.06-.19-.09-.39-.13-.58-.2.18-.6.45-.57.54a2.93,2.93,0,0,0,.77,1.32c.71.46.86,1.1.26,1.7a5.17,5.17,0,0,0-.8,1.19s.32.4.37.38c.73-.36.79.07.79.61a10,10,0,0,1,0,2.32c-.22.95.86,2-.34,2.85-.12.08-.16.27-.24.41.16-.06.39-.08.48-.2.54-.77,1.09-.48,1.63,0,.1.08.1.26.15.4a1.12,1.12,0,0,1-.31.1c-.79,0-1.11.32-.69,1,1.09,1.6-.15,3.82,1.48,5.23.07.07,0,.32,0,.46-.3,1-.63,2-.93,3a1.91,1.91,0,0,0,0,.63,5.38,5.38,0,0,0,.69-.07,2.49,2.49,0,0,0,.43-.22,1.87,1.87,0,0,1,.12.65c-.07.51-.22,1-.31,1.52,0,.19.08.53,0,.56a1.92,1.92,0,0,0-.92,2.51,1.15,1.15,0,0,1-.29,1.26c-.22.24-.12.77-.16,1.16.22-.22.41-.46.65-.66a3,3,0,0,1,.55-.23c0,.08.07.16,0,.23a3.76,3.76,0,0,0,0,3.32c0,.05-.24.2-.29.33a3.51,3.51,0,0,0-.25.95c0,.1.23.24.38.32a5,5,0,0,0,.54.21c-.25.13-.52.23-.76.38a3.73,3.73,0,0,0-.65.54,2,2,0,0,0-.23.48c.22-.07.44-.16.66-.21a.43.43,0,0,1,.32,0,.35.35,0,0,1,0,.32,9,9,0,0,0-.53,1.08,2,2,0,0,0,.1.78,5.21,5.21,0,0,1,.36-.55,2.57,2.57,0,0,1,.39-.35,1.91,1.91,0,0,1,.3.46,3.34,3.34,0,0,1,.19,1c0,.62.19,1.49-.13,1.8-.85.81-.28,1.88-.74,2.71,0,.05.22.27.37.38a.77.77,0,0,0,.3.11c-.12,0-.29.08-.35.17s-.29.49-.22.64c.44,1,0,2.19.81,3.07a.85.85,0,0,1-.35.49c-.29.08-.64-.05-.93,0s-.34.32-.51.49a2.79,2.79,0,0,0,.42.28c.14.06.43.08.42.1-.07,1.13.7,2.24-.1,3.43s-.43,2.17.5,2.27c.75.07.66.31.33.72-.9,1.1-.53,2.44-.67,3.66-.17,1.5,0,3-.09,4.55-.09,1.26-.32,2.58.47,3.62.49.65.26,1.2.27,1.81s0,1.14,0,1.71c0,.09.16.2.26.27s.16-.05.18-.1a13.3,13.3,0,0,0,.49-1.33,4,4,0,0,0,.05-.85,8,8,0,0,0,.91.74c.84.54,1.7,1,2.55,1.55a8.11,8.11,0,0,1,1.19.82c.13.11.18.54.09.61a.83.83,0,0,1-.69.14c-.22-.09-.33-.44-.55-.57a11.69,11.69,0,0,0-1.58-.7s-.33.36-.29.42a9.4,9.4,0,0,0,1,1.34c.13.14.42.14.64.17.72.08,1.43.11,1.44,1.15,0,.22.46.45.73.62.09,0,.28-.06.42-.1-.19-.2-.38-.39-.56-.59l-.35-.4.56-.08c.43,0,.87-.11,1.3-.11a14.38,14.38,0,0,1,2,.13c.46.07.89.37,1.35.44a26.83,26.83,0,0,0,4,.56c.44,0,.85.45,1.49.2a8.47,8.47,0,0,1,5-.27c.25.05.75,0,.78-.14.18-.65.48-.65,1-.35.16.09.48,0,.69-.1a1.17,1.17,0,0,1,1.7.63c.07.15.57.22.82.14.44-.14.82-.57,1.26-.62.87-.11,1.76,0,2.64,0,.48,0,1.11,0,1.41-.26a1.22,1.22,0,0,1,1.78-.22c.11.08.36,0,.54-.09a.75.75,0,0,0,0-.31c-.07-.18-.16-.35-.25-.53a6.73,6.73,0,0,1,.76.38c.08.05.08.31.13.31,1,.13,1.48-.38,1.25-1.34,0-.16-.07-.33-.11-.49.17,0,.33.13.49.16l3.38.5c.1,0,.2-.08.31-.1a5.63,5.63,0,0,0,.93-.14c1.15-.37,2.57.23,3.5-1s2.22-1,3.45-1.12c.16,0,.53.34.51.44-.35,1.26.41.64.89.56a2.27,2.27,0,0,1,.82,0,9.5,9.5,0,0,0,1.25.39,2.94,2.94,0,0,0,1-.26c-.36-.21-.73-.42-1.1-.61,0,0-.11.1-.16.15-.13-.15-.34-.3-.37-.48s.31-.41.33-.4c.48.31,1.27-.22,1.58.71A3.46,3.46,0,0,0,98,271.1a1.92,1.92,0,0,0,1.36,0c.24-1.12,1.11-.42,1.62-.53a4.39,4.39,0,0,1,1.8.33c.86.21,1.72.47,2.59.69.14,0,.38.05.44,0,.41-.53.56-.29.56.2,0,.28-.18.58-.16.86s.21.42.32.64a3.07,3.07,0,0,1,.33-.45c.19-.17.44-.47.62-.44.94.17,1.86.43,2.8.63.14,0,.35-.12.47-.24s-.11-.27-.18-.4l-.3-.5c.24.07.67.1.69.22.21,1,.91.72,1.55.61.34-.06.83-.27,1-.11,1,.8,2.13.67,3.25.78.56.06,1.12.08,1.68.14s1.31-.07,1.69.24c.74.6,1.18.63,1.68-.18a.94.94,0,0,1,.54-.25c.67,1.05,1.35,0,2,0a4,4,0,0,0,.59,0,2.56,2.56,0,0,1-.36.43,1.5,1.5,0,0,1-.48.15c.15.11.31.32.46.32.79-.05,1.59-.14,2.38-.23a2.46,2.46,0,0,0,.45-.11,1.32,1.32,0,0,1-.18.4c-.53.52-.1.6.31.66.72.1,1.51-.49,2.17.23.06.06.3.06.34,0,.38-.58.91-.19,1.37-.23.73-.05,1.45-.12,2.18-.16s1.34-.26,1.73,0a1.31,1.31,0,0,0,1.94-.05c.05-.05.58.3.75.56s-.11.49-.17.74a2.82,2.82,0,0,0,1-.19c1.18-.79,2.24-.22,3.13.4,1.22.84,1.69.91,2.81-.12a.88.88,0,0,1,.86,0c.75.5,1.42,1.13,2.18,1.63a1.34,1.34,0,0,0,1,0c.34-.08.65-.43,1-.42a28.5,28.5,0,0,0,4.51.15c1.46-.21,2.47.64,3.69,1a5.59,5.59,0,0,1,.57.22,1.62,1.62,0,0,0,0-.63c-.28-.56-.83-.47-1.34-.51-.15,0-.28-.23-.43-.35a1.41,1.41,0,0,1,.43-.1c1,0,1.91.06,2.87.1.24,0,.55-.06.7.06a3,3,0,0,0,3.81-.09,1.45,1.45,0,0,1,1.73-.41c.65.24,1.49.67,2.13-.27.09-.14,1.11-.67,1.11.44,0,.07.21.22.29.2,2.26-.68,2.52-.71,4.4,0a4.35,4.35,0,0,0,4-.6l.56.59a1.83,1.83,0,0,0,.14-.26,3.73,3.73,0,0,1-.7-.57l0-.35a5,5,0,0,1,1.31.25c1.83.88,3.8.64,5.7.61a1.92,1.92,0,0,1,1.47.35,4.69,4.69,0,0,0,4.31.59c.19-.05.43.09.65.13a1.82,1.82,0,0,1-.26.43,1.9,1.9,0,0,1-.63.46,4.16,4.16,0,0,1-.88.18,8,8,0,0,0,1.06.3,1.78,1.78,0,0,0,.92,0c.88-.41,1.72-.71,2.6,0,.08.07.37-.11.57-.17a4,4,0,0,1-.49-.29,9,9,0,0,1-.68-.7s.11-.23.17-.23c.59,0,1.34-.43,1.7.42s.91.68,1.52.54c.44-.11.94-.48,1.29-.36a7.64,7.64,0,0,0,4.08-.09,7.08,7.08,0,0,1,2.53.21c.27,0,.49.36.76.46a2.67,2.67,0,0,0,1,.2c.13,0,.25-.33.37-.51a3.88,3.88,0,0,1-.71-.18c-.17-.08-.41-.31-.39-.4.15-.43,2-.79,2.41-.56a2,2,0,0,0,1.18.45c1.26-.21,2.48-.64,3.74-.83.86-.13,2-.75,2.47.67a1.18,1.18,0,0,0,.7-.12c.22-.16.33-.48.51-.71s1-.67-.17-.65c-.24,0-.5-.31-.75-.49.12-.14.21-.38.35-.41a7.08,7.08,0,0,1,1.83-.2c.16,0,.21.66.44.9a5,5,0,0,0,1.05.69,3.25,3.25,0,0,1-.26-.74c0-.13.14-.41.21-.41a6.56,6.56,0,0,1,2,.24c.71.28,1.14.31,1.45-.27,0-.05.22,0,.33,0,1.1.19,2.2.5,3.26-.22.23-.16.72-.3.86-.18.32.29.95.75,0,1.09a.86.86,0,0,0,.1.61c.3.28,1.45-.27,1.63-.66a3.93,3.93,0,0,1,.82-1.11,1.77,1.77,0,0,0,2,.55c.74-.25,1.67.2,2.55-.28a18.05,18.05,0,0,1,2.38-.63c.76-.26,1.67-1.11,2.15-.89,1.24.54,2.48-.91,3.59.2.1.11.37,0,.54.11,1.14.46,2.13-.44,3.2-.33a1.87,1.87,0,0,1,1.35.68c.48.94.4,1,1.35.6a3,3,0,0,1,2.82.14,4.92,4.92,0,0,0,5.09.4,2.18,2.18,0,0,1,2.49.21,3.83,3.83,0,0,0,2.67.62,3.88,3.88,0,0,1,1,.2c-.63.9.44.82.71,1,.56.43,1.62,1.07,1.9.86,1-.74,1.73-.33,2.69-.07.73.19,1.87,1.3,2.51-.35.08-.22,1,.57,1.19-.36.11.12.2.28.34.33.68.27,1.58.91,2,.68,1.09-.58,1.53.07,2.13.64s1.27.54,1.94-.19a.69.69,0,0,1,.52-.11c.07,0,.17.23.15.34a3.36,3.36,0,0,1-.24.67c.25-.07.49-.15.74-.2a1.11,1.11,0,0,1,.48,0c1.21.34,2.41.76,3.63,1a35.53,35.53,0,0,0,4.08.71,40,40,0,0,1,4.44.59c1.39.32,3-.16,4.47-.3.12,0,.22-.14.33-.22a2.32,2.32,0,0,1,.06.45,2.18,2.18,0,0,1-.11.44,7.9,7.9,0,0,0,1.19-.27c.08,0,0-.42.06-.61s.25-.39.3-.37c.74.3,1.45.69,2.2,1a2.22,2.22,0,0,0,1.2.05c2.59-.61,5,.1,7.37,1,.56.21,1.13.37,1.68.62s1.34-.21,2-.34c.24-.05.67-.13.71-.05.63,1.3,2.2-.23,2.84.95,1.26-.93,2.25,0,3.32.46.2.08.52.17.65.07.92-.69.9-.69,1.16-.54a12,12,0,0,0,1.14.55c.23.09.5.1.75.17l3.44.94.31.09-.35.15-.8.35c.11.11.23.33.33.32a3.19,3.19,0,0,0,.85-.25c.29-.11.59-.44.83-.39,1.15.25,2.26.65,3.41.89a7.69,7.69,0,0,0,1.59,0,.4.4,0,0,1,.31.18c.07.17,0,.51.12.53a12.17,12.17,0,0,0,2.51.46c.39,0,.77-.52,1.17-.78a.65.65,0,0,1,.42-.11c.63.08,1.26.22,1.89.28.16,0,.48-.14.5-.25.13-.95.48-.93,1.07-.31a.59.59,0,0,0,.49,0c1.1-.47,2-1.47,3.47-.52a7,7,0,0,0,2.84.51c.13,0,.35-.19.41-.34.29-.7.65-.87,1.49-.72a3,3,0,0,0,2.93-.43,2.68,2.68,0,0,1,3.26-.51c.4.25.86,1.13,1.65.61a9.55,9.55,0,0,1,1.32-.81,2.07,2.07,0,0,1,.9-.06c.22,0,.45.19.64.14.92-.25,1.84-.5,2.72-.83,1.37-.51,2.71-1,4.12-.14a.42.42,0,0,0,.39-.11c1.11-1.48,3-1.17,4.24-1.11a12.14,12.14,0,0,0,4.6-.7,5.52,5.52,0,0,1,4.54.31c.23.12.8.12.84,0,.46-1.08,1.39-.41,2.06-.63a13,13,0,0,0,1.88-.91c.11-.06.15-.36.21-.35a23.2,23.2,0,0,1,4.19.53c.83.25,1-.08,1.29-.59.08-.14,0-.34,0-.52-.14,0-.33,0-.41.13-.28.35-.59.55-.81,0-.08-.18.12-.6.31-.75.5-.37,1.1-.61,1.59-1,.13-.1,0-.52,0-.79l.9.27c.07-.68,1.47-.26,1.1-1.33,0,0,.23-.17.35-.25a1.29,1.29,0,0,0,.07.4c.15.26.33.49.5.74.11-.09.28-.15.32-.26.35-1,.66-1.93,1-2.88a2.15,2.15,0,0,1,.65-.89c.57-.44,1.55-.7.43-1.6-.11-.09-.13-.34-.14-.52-.06-1.32.08-2.66-.68-3.88a1.14,1.14,0,0,1,.29-1c.88-.77.84-1.92,1.29-2.86.06-.13-.35-.56-.61-.75-.71-.51-.35-1.09-.13-1.61.62-1.47,1.61-2.89.42-4.54-.1-.13.08-.45.12-.68.11-.56.47-1.48.29-1.61-1.08-.74-.51-1.37,0-2,.3-.43.68-.8,1-1.23a2.05,2.05,0,0,0,.16-.72,4.49,4.49,0,0,0-.49.37c-.36.35-.6.55-.66-.22a17.54,17.54,0,0,0-.36-2.13c-.34-1.76-.71-3.52-1-5.29,0-.17.42-.4.59-.64a.94.94,0,0,0,.2-.64c-.05-.19-.3-.33-.46-.5-.08.17-.15.33-.23.49s-.13.22-.16.21-.4-.12-.42-.22a2.56,2.56,0,0,1,.05-.67c.09-1,1.47-2.1-.24-2.95-.08,0-.05-.29-.07-.44a8.77,8.77,0,0,1-.21-1.67,7.64,7.64,0,0,1,.37-1.82c.06-.2.36-.34.55-.51-.23-.15-.47-.29-.69-.46s-.84-.49-.92-.81-.31-1.1.49-1.34c.19-.06.28-.47.41-.72a3.73,3.73,0,0,1-.75-.05c-.21-.06-.58-.21-.58-.32a29.45,29.45,0,0,0,.05-5.47c-.2-1.07.48-2,0-3.09-.25-.61-.15-1.59-.5-2.35s-.32-1.13.56-1.1l.15.59.3-.09a3.87,3.87,0,0,1-.45-.73c-.08-1.32-.14-2.64-.25-4a3.37,3.37,0,0,0-.37-.89l-.64.67-.48.51c0-.26-.07-.59.06-.77a5.2,5.2,0,0,0,.77-3.59,2.5,2.5,0,0,1,.18-1.58,1.43,1.43,0,0,0,0-2.07c-.76-.94-.55-1.81.4-2.64a.85.85,0,0,0,.08-.6c-1.33-.49-.26-2.16-1.37-2.73.66-1.25-.28-1.91-1-2.71-.41-.49-.2-.86.39-1.06a.48.48,0,0,0,.24-.41,14.44,14.44,0,0,0-.16-1.86,2.45,2.45,0,0,0-.36-.79.35.35,0,0,0-.32-.11.63.63,0,0,0-.24.36,3.28,3.28,0,0,0,0,.7,5.15,5.15,0,0,1-.48-.89,2.31,2.31,0,0,1,0-.87c.07-.72,0-2,.29-2.08,1.19-.38.49-.92.25-1.37s-.67-.53-.78-.86.11-.87.07-1.29c-.15-1.34-.36-2.66-.43-4a13,13,0,0,0,.33-1.5c0-.11-.32-.26-.49-.39-.06.15-.19.32-.18.46a8.69,8.69,0,0,1,.11,1.43,5.18,5.18,0,0,1-.8-1.52c-.14-1,.22-2.18-.84-3,0,0,0-.25.07-.32.92-1.1.74-2.41.75-3.7,0-.46.3-1.18.1-1.35a2.07,2.07,0,0,1-.24-2.5c.53-1.16-.12-2.06-.13-3.07,0-.06-.29-.12-.45-.3a4.1,4.1,0,0,0,.53-.36,2.27,2.27,0,0,0,.3-.46c-1-.64-.27-1.69-.53-2.53-.33-1,.16-2.21-.41-3.37-.42-.84.65-2.13-.56-3,0,0,.07-.25.09-.39.09-.69.16-1.38.27-2.07.07-.38.11-.91.36-1.11,1.66-1.33,1.63-1.36.47-3.09-.32-.48-.14-1.29-.2-2,1.4.17.53-.8.61-1.26a5.57,5.57,0,0,0,.19-2.47c-.45-1.32-.07-2.58-.17-3.86a2.56,2.56,0,0,1,.08-.67c0-.27.2-.55.13-.78a15.91,15.91,0,0,1-.64-1.83c0-.21.48-.51.76-.77.1-.1.22-.19.33-.28-.11-.06-.22-.17-.31-.15-.59.1-.58-.24-.61-.68s.64-1.35-.63-1.05a2.75,2.75,0,0,1-.09-.5c0-1.2.36-2.52-.94-3.4-.11-.07-.09-.56,0-.73.9-1.24.05-2.47-.05-3.68-.07-.74-.09-1.21.6-1.56a1.28,1.28,0,0,0,.36-.27c-.43-.87.62-1.85-.2-2.71-.11-.12.08-.52.09-.8a11.54,11.54,0,0,0,0-3.42c-.16-.6-.39-1,.1-1.41,1-.82.67-1.87.46-2.83-.1-.46-.81-.81-.86-1.25s.42-.88.64-1.34a.83.83,0,0,0,0-.47,16.13,16.13,0,0,1-.5-2.35c-.08-1.18,0-2.37,0-3.55a.94.94,0,0,0-.37-.64c-.68-.51-.51-.87.15-1.07l.69,0,0-.31a1.22,1.22,0,0,1-.65.06c-.08-.58-.17-1.15-.24-1.72a10.9,10.9,0,0,0-.17-1.51,8,8,0,0,0-.67-1.84c-.6-1.14.92-.76,1-1.43,0-.18.4-.31.46-.51a4.56,4.56,0,0,0,.08-1s-.2-.07-.3-.1c-.08.74-1.27.07-1.25,1,0,.06-.15.11-.24.17l-.07-.32c-.13-.52-.44-1.08-.32-1.53s.68-.9,1-1.36a1,1,0,0,0,.22-.6,2.09,2.09,0,0,0-.37-.64c-.11.15-.2.32-.32.46a1.81,1.81,0,0,1-.3.25c-.05-.12-.17-.25-.16-.37.06-.57.35-1.21.18-1.7a2,2,0,0,1,.37-1.93,2,2,0,0,0,.37-.79,3.42,3.42,0,0,0,0-.84l-.64.59s0,.09,0,.11a1.52,1.52,0,0,1-.46.42c-.12,0-.32-.1-.48-.16.1-.24.2-.47.29-.71a4.34,4.34,0,0,1,.54-1c.62,0,1-.2.76-.86-.05-.16-.34-.38-.46-.35-.64.15-1,.48-.42,1.1,0,0,0,.08-.12.11M224,277.54c-.47,0-.94,0-1.41,0a5.49,5.49,0,0,0-.79.15,4.94,4.94,0,0,0,.76,1c.31.23,2-.8,2-1.21,0-.12-.09-.25-.13-.37l-.46.45m35.83-.59c0-.1,0-.25-.09-.31-.94-.77-1.91.08-2.87,0-.15,0-.35.41-.52.63.45.05,1.1.32,1.32.12.66-.62,1.31-.51,2.16-.43M43,151.16a5.24,5.24,0,0,0,0-1,3.57,3.57,0,0,0-.31-.8,5.75,5.75,0,0,0-.33,1.1c0,.31.13.64.12.95s-.19.37-.26.57c0,0,.24.14.36.22a4.8,4.8,0,0,0,.44-1.07M57.29,33.77l-1.6.95s0,.14-.08.21l1,.19c0-.57,1.52-.2.64-1.35M62,293.38c-.08.09-.25.2-.23.25.32,1.06,1.32-.35,1.72.46l.52-.5c-.19-.15-.39-.41-.59-.42-.39,0-.79.14-1.42.21M388.9,83.78a9.63,9.63,0,0,0,0-1.2,1.87,1.87,0,0,0-.58,0,5.93,5.93,0,0,0-.12,1.19,2.06,2.06,0,0,0,.26.64c.12-.16.24-.32.48-.59m20.34,60.76c-.14-.61-.27-1.23-.44-1.83,0-.05-.33,0-.51,0,.51.56-.26,1.65.95,1.84M63.44,27.62c0-.1.14-.27.11-.29-.47-.4-2.13-.11-2.34.41a.33.33,0,0,0,.06.3c.08.11.25.25.32.23.55-.2,1.08-.43,1.85-.65M77.63,292.44a1.47,1.47,0,0,0-.47,0c-.44.15-.87.34-1.31.52.43.06.86.14,1.29.17a5.25,5.25,0,0,0,.79-.06.83.83,0,0,0-.3-.64M404.51,100.33a5.61,5.61,0,0,1,0-.58c0-.47.1-.93.16-1.39a12.33,12.33,0,0,0-.85,1.32c-.11.22,0,.53,0,.81a2.15,2.15,0,0,0,.71-.16M170.9,298.7c-.66-.35-1.31-.71-2-1,0,0-.22.18-.32.29s0,.15.07.16c.72.2,1.23,1.05,2.24.59M382.16,55.29c-.53-.63-1.14-.4-1.74-.14a.6.6,0,0,0-.25.35.35.35,0,0,0,.14.25,7.71,7.71,0,0,0,1.85-.46m-34.28.23c-.4.32-.82.62-1.21.95a3,3,0,0,0-.33.44c.21.08.47.29.6.23.59-.31,1.26-.62.94-1.62M20.29,122.08l-.57-.14a6.44,6.44,0,0,0,.3,1.26c.09.19.41.28.62.42a5.61,5.61,0,0,0,0-.71,2.91,2.91,0,0,0-.35-.83m391.9,99.19c.19,0,.44,0,.54-.09a1.46,1.46,0,0,0,.49-.8c0-.23-.32-.47-.5-.71-.13.26-.28.5-.4.77a1.5,1.5,0,0,0-.13.83M30.46,296.34c-.48-.52-1,0-1.43,0-.17,0-.31.3-.47.46.09.07.2.2.26.18a12.38,12.38,0,0,0,1.64-.67m250.62-14.9c-.64,0-1.28-.1-1.92-.09-.12,0-.24.26-.36.41.15.09.32.28.46.26a4.55,4.55,0,0,0,1.82-.58m62.54,20.46,1.05-.34-1-.14-.34,0a8.81,8.81,0,0,0-.89,0,.59.59,0,0,0,0,.23,9.89,9.89,0,0,0,1.19.26M298.46,19.82l1.78-.18a11.17,11.17,0,0,0-1.44-.5c-.2,0-.45.2-.68.31l.34.37m115,249.33a5.61,5.61,0,0,0,0,.58c0,.39.1.77.15,1.16.18-.47.39-.94.53-1.42,0-.13-.16-.31-.21-.48a5,5,0,0,1-.11-.66,5.22,5.22,0,0,1-.37.82m-247.08,9,.16-.16c-.24-.14-.58-.46-.69-.4a8,8,0,0,0-1.12,1c.14,0,.3.13.42.1a6.1,6.1,0,0,0,1.23-.51M245.62,30.81a1.51,1.51,0,0,0-.24-.36,7.23,7.23,0,0,0-.66-.4c-.09.24-.31.52-.25.69s.42.25.66.32.32,0,.49-.25M195,301.07a8.7,8.7,0,0,0-1-.73c-.12-.06-.4.05-.54.16a.53.53,0,0,0,0,.43,2.9,2.9,0,0,0,1.51.14M123.73,18.64h.12L125,18c-.33.05-.65.11-1,.13-.13,0-.26-.09-.39-.07-.7.06-.39.33.12.59M391.5,110.5l-.16-.83c-.18.2-.49.38-.52.6a3.89,3.89,0,0,0,.14,1,2.4,2.4,0,0,0,.54-.82M268.32,299.18c.19.27.32.64.59.79s.51-.17.78-.27c-.3-.13-.6-.26-.89-.41a.67.67,0,0,0-.48-.11M242.66,133.31l.13-.81a9.43,9.43,0,0,0-.9.66c-.09.09,0,.32-.08.48a3.8,3.8,0,0,0,.85-.33m152,63.13c-.24.28-1,.33-.46.95a2.31,2.31,0,0,0,.57.36,5.77,5.77,0,0,0-.11-1.31m-223,81.81.32-.08c-.43-.2-.86-.41-1.31-.57,0,0-.2.28-.31.43a11.41,11.41,0,0,0,1.3.22m-7.8-158.89-.59.55c.17.13.32.35.51.38a3.88,3.88,0,0,0,.89-.08l-.81-.85M20.29,107l.81.14c-.05-.22,0-.51-.15-.63a2.92,2.92,0,0,0-.78-.34,2.29,2.29,0,0,0,.12.83m98.48-89,.57.14c-.09-.21-.15-.57-.26-.59a10.15,10.15,0,0,0-1.46,0s-.09.09-.13.13a8.08,8.08,0,0,0,1.28.34m-3.31,70.69c-.34-.47-.67-.94-1-1.4a4,4,0,0,0-.44.27,1.74,1.74,0,0,0,.28.41,4.22,4.22,0,0,0,1.19.72m58.4,209.49-.59.82.32-.08,1.1-.18a2.74,2.74,0,0,0-.83-.56m121.88-14.3c-.11-.2-.25-.58-.32-.56a6,6,0,0,0-1.06.36,6.07,6.07,0,0,0,.69.31,1.1,1.1,0,0,0,.69-.11M44.52,131c-.19.34-.41.67-.57,1,0,.06.24.23.37.36.11-.35.22-.69.32-1,0-.07,0-.16-.12-.35M173.27,18.52,171.92,18c0,.14,0,.32,0,.39.33.36.65.87,1.32.16m207.36,35a5.51,5.51,0,0,0-.89-.1c-.1,0-.19.22-.29.34.22.12.46.35.67.32s.42-.28.51-.56M187.45,17.57l-.89-.05c0,.13,0,.38.06.38.43.05.87.07,1.31.09l-.48-.42M99,293.74l.86.32,0-.63a1.34,1.34,0,0,0-.88.31M209.44,18.28s.06.08.08.08c.49,0,1,0,1.45,0,0,0,0-.15,0-.23a7.84,7.84,0,0,0-1.54.11m7.81,259.38.16.59,1-.77s-.1-.17-.14-.16a3.65,3.65,0,0,0-1,.34m3.42.12-1.27-.38c.09.18.16.51.27.53a1.69,1.69,0,0,0,1-.15m92.93,22.93.35-.17a3,3,0,0,0-.93-.27c-.17,0-.32.32-.49.5l1.07-.06m52.72,1a6.11,6.11,0,0,0-.94-.22,1.49,1.49,0,0,0-.56.14c.16.16.33.46.49.46a1.73,1.73,0,0,0,1-.38M393,191.24l.13,1.18.66-.08c-.22-.33-.45-.65-.79-1.1M44.52,115.82l-.48-.47c0,.24-.07.54.05.7a2.16,2.16,0,0,0,.7.45,2.47,2.47,0,0,0-.27-.68m87,178a3.93,3.93,0,0,0-.74-.68c-.08-.05-.37.26-.56.41a2.65,2.65,0,0,0,.5.26,4.72,4.72,0,0,0,.8,0m57.93-173.32a.63.63,0,0,0,.12.18,4.85,4.85,0,0,0,.61.51,1.07,1.07,0,0,0,.3-.3,1.68,1.68,0,0,0-.53-.56.45.45,0,0,0-.5.17m66.09,179.58a2.11,2.11,0,0,0-.81-.09c-.16,0-.25.34-.37.53l.76-.09c.14,0,.28-.07.42-.35M180,32.59l.82-.28-.46-.43c-.2.23-.4.47-.36.71M18.4,31.52c.11.43.22.86.35,1.29l.3-.05c-.09-.37-.18-.74-.3-1.11,0-.09-.15-.16-.35-.13m62,26,.63.31a2.22,2.22,0,0,1-.33-.49,2.8,2.8,0,0,1-.07-.59c0-.17-.08-.35-.11-.53-.12.15-.32.28-.34.43a1.76,1.76,0,0,0,.22.87M340,65.34q-.51,0-1,.12l-.63.12c.23.12.47.35.67.32a2.88,2.88,0,0,0,1-.56M21.23,255l.24.36c.14.22.27.44.4.66,0-.2.14-.47.06-.56a2.24,2.24,0,0,0-.7-.46m64-229a1.84,1.84,0,0,0-.62-.14,2.8,2.8,0,0,0-.68.32c.08.1.19.29.24.28A3.72,3.72,0,0,0,85.19,26M413.85,255.08l-.36,1.49c.1,0,.28,0,.29,0a5.33,5.33,0,0,0,.07-1.47m-256.54-140,.86.7s.13-.13.2-.2c-.23-.21-.46-.42-.7-.61-.06,0-.16,0-.36.11M42.51,69.35a5.22,5.22,0,0,0,.25.82c.05.11.25.14.38.21,0-.18.14-.42.07-.53a1,1,0,0,0-.7-.5m58.17,224.39a2.06,2.06,0,0,0,.66.5c.1,0,.32-.3.48-.46l-.79-.16c-.07,0-.15,0-.35.12M34.83,17c-.32.09-.65.16-1,.28-.06,0,0,.25,0,.38a7.1,7.1,0,0,0,.79-.22.43.43,0,0,0,.21-.44m304.3,65v-.47c-.27.19-.54.38-.79.59-.05,0,0,.2,0,.3a5.25,5.25,0,0,0,.76-.42M126.57,293.86a1.11,1.11,0,0,0-.07.16s.06.08.08.07c.35-.11.69-.22,1-.35a1.12,1.12,0,0,0,0-.3,6.05,6.05,0,0,0-1,.42M372.12,21.36c.3.19.6.4.92.57,0,0,.17-.16.26-.25l-.9-.28c-.06,0-.11-.11-.28,0M370,38.85l.47.24.16-.78a1.27,1.27,0,0,0-.63.54M193.6,17.1l.65,1a2.09,2.09,0,0,0,.23-.24,2.53,2.53,0,0,0-.88-.77m-37,262.1-.14.56.7.06a1.32,1.32,0,0,0-.56-.62m-38.31-188a2,2,0,0,1,.35,0,4,4,0,0,1,.45.15c0-.13,0-.33-.1-.38a5.86,5.86,0,0,0-.8-.38,1.43,1.43,0,0,0,.1.61m85-73.42h-.48a6.38,6.38,0,0,0,.93.56c.09,0,.3-.19.45-.29a3.71,3.71,0,0,1-.9-.28M19.58,234.86l-.71.13.18.47a1.34,1.34,0,0,0,.53-.6M89.92,76.57l-.35.52.47.19a.77.77,0,0,0-.12-.71m141.51,61.59a7.54,7.54,0,0,0-.81-.12s-.07.25-.1.38a3.22,3.22,0,0,0,.91-.26m72,160.19-.8.33.27.33a1.45,1.45,0,0,0,.53-.66M93.82,66l-.64-.3a7.86,7.86,0,0,0,.36.71c0,.06.24.07.3,0s.07-.21,0-.44M20.17,256l.31-.88c-.13,0-.38,0-.38,0a1.75,1.75,0,0,0,.07.85M17,22.3l.39.32.24-.86a1.27,1.27,0,0,0-.63.54M244.32,301.66l-.8.15c.19.11.4.32.56.29a.34.34,0,0,0,.24-.44M392,160.39a2.61,2.61,0,0,0-.65-.39c-.15,0-.36.12-.54.19l.44.16a1.49,1.49,0,0,0,.75,0M18.4,23l-.17,1,.29,0a8.08,8.08,0,0,0,.11-.86A.19.19,0,0,0,18.4,23M83.89,59.9a7.34,7.34,0,0,0-.32-.82,3.17,3.17,0,0,0-.39.12l.51.73s.06.06.2,0M97.37,81.18a.83.83,0,0,0-.73-.69,1.65,1.65,0,0,0,.15.56.61.61,0,0,0,.58.13m73.53,28.61-.88-.3a1.43,1.43,0,0,0,0,.38,1.72,1.72,0,0,0,.84-.08m127,190.33a4.76,4.76,0,0,0,.77-.13c.07,0,.06-.28.08-.43-.51-.05-.94,0-.85.56m-44.92.71,1.09.33.09-.3-.95-.15s-.08,0-.23.12M20.17,126l.14.48c.15-.07.42-.13.43-.21a2.65,2.65,0,0,0-.12-.72l-.45.45M66.51,294.09a1.76,1.76,0,0,0-.42-.4c-.09,0-.27.09-.4.15a1.66,1.66,0,0,0,.82.25M359.35,46.66l.39.55.32-.44a.77.77,0,0,0-.71-.11m39.6,220,.57-.1-.28-.56a1.12,1.12,0,0,0-.29.66m13.36-63.49c.16-.12.39-.21.45-.37s-.17-.3-.27-.46a4.75,4.75,0,0,0-.18.83m-62.77,98.48.59-.52a3.52,3.52,0,0,0-.32-.18,1,1,0,0,0-.27.7M221.62,30.22l.59-.17c-.16-.1-.35-.31-.46-.27a.3.3,0,0,0-.13.44m-201,263.64a3.31,3.31,0,0,0,.33.32c.15.11.32.19.48.29-.06-.16-.09-.39-.21-.47a.87.87,0,0,0-.6-.14M247,19.23l-.56-.59-.34.54a2.15,2.15,0,0,0,.9.05m-5.2,255.83.7-.37a5.48,5.48,0,0,0-.81,0c-.38.07-.37.09.11.35M18.28,74.67l.4.88c.06,0,.18-.1.18-.11a1.63,1.63,0,0,0-.58-.77m85.24,217.89h-1v.21a1.4,1.4,0,0,0,1-.22M20.05,152.82l0,.72.31-.11a.94.94,0,0,0-.33-.61M99.73,26.09l-1.17.23c.29,0,.58.09.88.11.09,0,.2-.07.29-.34M390.44,99.26c-.07.25-.15.49-.21.73a2,2,0,0,0,.31.12,2.31,2.31,0,0,0-.1-.85M139,30.58c.24.07.48.15.73.21,0,0,.07-.21.11-.32a2.3,2.3,0,0,0-.84.11M251.53,276.71a5,5,0,0,0,.53.12,2.9,2.9,0,0,0,.51,0,.46.46,0,0,0,0-.23,1.9,1.9,0,0,0-.56-.17c-.12,0-.26.09-.51.26M194,32.82a1.39,1.39,0,0,0,.47-.24c.09-.11.06-.31.08-.47a1.69,1.69,0,0,0-.55.71M42.63,88.39c0,.31,0,.63,0,.94h.22a1.33,1.33,0,0,0-.23-.94M191.47,120.9l.06.76c.11-.06.31-.15.3-.19a.8.8,0,0,0-.36-.57M58,39.21l.5.68c0-.06.11-.16.09-.19a1.11,1.11,0,0,0-.59-.49m320,244.6.66-.52-.25-.25a2.3,2.3,0,0,0-.41.77M19.7,132.37c-.12.24-.25.48-.35.73,0,0,.11.11.16.16a2.13,2.13,0,0,0,.19-.89M75.38,53.51a1.35,1.35,0,0,0,.45-.36c.06-.08-.08-.28-.13-.43a2.72,2.72,0,0,0-.32.79M56.46,37.2l.15-.57-.56,0a1,1,0,0,0,.41.53m294.73,251,.59-.17-.22-.3c-.2.16-.41.31-.37.47M45.82,54.7l-.63.15.25.41a1.09,1.09,0,0,0,.38-.56M346.11,288.3c-.35,0-.7.06-1,.11,0,0,0,.15,0,.23a5.41,5.41,0,0,0,1.08-.34M57.41,32.94l.37-.57-.32-.18a1.68,1.68,0,0,0-.05.75m95.52-3.07.19.59.46-.29a1.07,1.07,0,0,0-.65-.3M391,122.32a3.29,3.29,0,0,0-.15-.56c0-.07-.21-.07-.32-.1a1.34,1.34,0,0,0,.47.66m-373.22,138,.16.63.4-.24a1.16,1.16,0,0,0-.56-.39m379.13-50-.48-.22-.22.47a.85.85,0,0,0,.7-.25M19.82,259.69c-.27,0-.53.05-.79.09,0,0-.05.15-.07.23a1.25,1.25,0,0,0,.86-.32m380.43-.24-.23.72c.11,0,.3-.05.31-.1a.82.82,0,0,0-.08-.62m-76.49,28-.24-.71-.35.18a1.36,1.36,0,0,0,.59.53M87.2,17.81h.7l-.22-.47a.86.86,0,0,0-.48.46M271.86,115l.46-.26-.56-.33a1.21,1.21,0,0,0,.1.59M396.71,228.72l-.48.12.18.47a1.35,1.35,0,0,0,.3-.59M18.52,233.8v.47l.56-.33a.82.82,0,0,0-.57-.14M233.21,18.87l.38.48.21-.21a.93.93,0,0,0-.59-.27m51.3,0-.35.3.47.18a.39.39,0,0,0-.12-.48m-226-.94a2.85,2.85,0,0,0,.12-.58s-.25-.07-.38-.1a3.06,3.06,0,0,0,.26.68M332.63,23a1.82,1.82,0,0,0,.25.48c.08.07.27,0,.41.05a1.45,1.45,0,0,0-.66-.53m79.21,225.8-.3-.35-.18.47a.39.39,0,0,0,.48-.12M91.93,24.43l.51.36.2-.32a1.34,1.34,0,0,0-.71,0M74,25.85h-.71v.21a.81.81,0,0,0,.71-.22m-56.27.94.64.31c0-.14,0-.36,0-.38s-.32,0-.6.07m27.07,91.63c0-.24,0-.48,0-.71h-.21a.79.79,0,0,0,.22.71M304.37,93.59c.11.18.2.37.32.54s.18,0,.28,0a1.35,1.35,0,0,0-.6-.54M155.18,297.4l.35-.06-.59-.41a.46.46,0,0,0,.24.47M88.74,272.1c0-.23,0-.47,0-.7h-.22a.8.8,0,0,0,.23.7M124.91,28.33l-.29.65.55,0a2.24,2.24,0,0,0-.26-.69m-3.19,63-.41-.53-.24.24a1.06,1.06,0,0,0,.65.29m77.2,210.79.26.45.33-.55a1.2,1.2,0,0,0-.59.1M141.23,90l.15.39c.07-.06.2-.14.19-.19,0-.23-.12-.45-.18-.67a.57.57,0,0,0-.16.47m-29,183.84.51.35.2-.31a1.24,1.24,0,0,0-.71,0m15.37-192h.48l-.34-.56a.86.86,0,0,0-.14.57m-83.34,44.8-.26-.45-.33.56a1.25,1.25,0,0,0,.59-.11M19.82,175l.47.24.15-.32a.61.61,0,0,0-.62.08M57.88,30.58l-.39-.32-.22.42a1.39,1.39,0,0,0,.61-.1m175,246.13,0-.49-.41.22a.55.55,0,0,0,.43.27M41.57,173.63l.15.59L42,174a.78.78,0,0,0-.47-.38M372,35.43l-.15-.63-.32.15a.88.88,0,0,0,.47.48m-124.37,94.1a1.66,1.66,0,0,0-.32.33,2.69,2.69,0,0,0-.21.56,4.45,4.45,0,0,0,.48-.38c.09-.1.11-.26,0-.51m143.28,21.28.37.47.22-.32a1.36,1.36,0,0,0-.59-.15m-372-98.72.29.36.18-.47a.39.39,0,0,0-.47.11m222.49,97.66.63-.16-.15-.31a.85.85,0,0,0-.48.47m68.22,134.18-.59.15.2.32a.8.8,0,0,0,.39-.47M43.22,147.14l.3.36.18-.47a.4.4,0,0,0-.48.11M18.75,258.63a1.55,1.55,0,0,0,.49,0c.06,0,0-.25,0-.38a.94.94,0,0,0-.53.42M65.8,45.36v-.48l-.55.32a1.84,1.84,0,0,0,.55.16M18.52,46.77v-.69l-.3,0a2.45,2.45,0,0,0,.29.66M204.36,279.91l-.54-.17,0,.3a.81.81,0,0,0,.57-.13m140-221.55v.47l.56-.31a1.38,1.38,0,0,0-.56-.16M42,64.86l.16.32.31-.55a.48.48,0,0,0-.47.23M214.76,32.35l.53-.06L215,31.9a.58.58,0,0,0-.26.45M237,276.12l.53-.06-.28-.39a.6.6,0,0,0-.25.45m-175.8-.59.46-.25-.32-.32a.81.81,0,0,0-.14.57m82.17,19.27v-.47l-.56.32a1.66,1.66,0,0,0,.56.15M265.24,29.16l.46-.25-.32-.33a.85.85,0,0,0-.14.58M104.46,272.46c-.21.05-.42.1-.63.17a1.06,1.06,0,0,0,0,.15.82.82,0,0,0,.62-.32m-2.72-.12h.49l-.12-.33c-.16.07-.32.15-.37.34M145.84,93c-.18-.2-.36-.4-.55-.59l-.14.13a1.41,1.41,0,0,0,.69.46m11,204.64.08-.08a.16.16,0,0,0,0-.07,4.12,4.12,0,0,0-.61,0,1.6,1.6,0,0,0-.05.29,1.25,1.25,0,0,0,.58-.13m2.61.24-.08.08a.16.16,0,0,0,0,.07,4.12,4.12,0,0,0,.61,0,1.6,1.6,0,0,0,.05-.29,1.25,1.25,0,0,0-.58.13M19.82,99.15l.3.54c.06-.06.17-.15.16-.16a.66.66,0,0,0-.46-.38M165,105.77l.58.57.13-.14a1.36,1.36,0,0,0-.71-.43M334.4,22.42l-.35.29.22.18c.12-.15.25-.31.13-.47M329.79,19l-.27-.35-.16.63a2.36,2.36,0,0,0,.43-.28m67.27,202,.25.46.33-.32a.85.85,0,0,0-.58-.14m-.71-7.8.32.16-.17-.63a.56.56,0,0,0-.15.47M26.08,16.51l.36,0-.68-.44a.49.49,0,0,0,.32.39M412.43,201.88l-.25-.46-.33.33a.85.85,0,0,0,.58.13m-.71-1.65-.09.62a1.18,1.18,0,0,0,.16,0,.61.61,0,0,0-.07-.63m-392-6.86h-.49l.12.33c.16-.08.32-.15.37-.34m252.16-64.2-.37-.33-.28.39a1.29,1.29,0,0,0,.65-.06m138.56,25.07.46-.25-.33-.33a.84.84,0,0,0-.13.58m-146-21.4v.47l.56-.62a1.57,1.57,0,0,1-.55.15M192.77,122l.23-.48-.33-.12A1.37,1.37,0,0,0,192.77,122Z"/><path class="cls-1" d="M237.64,18.22c.12-.44.07-1,.27-1.15a4.05,4.05,0,0,1,1.64-.29c.12,0,.29.38.37.61a1.07,1.07,0,0,1-.44.3C238.85,17.9,238.21,18.09,237.64,18.22Z"/><path class="cls-1" d="M378,20.29a5.52,5.52,0,0,1-.9-.41c.24,0,.48-.05.72-.06l1.5,0a2.87,2.87,0,0,1,.5.07c-.09.13-.17.38-.28.39A15.07,15.07,0,0,1,378,20.29Z"/><path class="cls-1" d="M18.1,227.36c-.93-.42-.42-1.3-.63-2,0-.07.21-.22.32-.33a1.09,1.09,0,0,0,.14.37A1.77,1.77,0,0,1,18.1,227.36Z"/><path class="cls-1" d="M167.12,17a2,2,0,0,1,.41.66,11.9,11.9,0,0,1-1.34-.08c-.08,0-.11-.36-.16-.55Z"/><path class="cls-1" d="M51.74,294.8a6.91,6.91,0,0,1,.81,0,1.6,1.6,0,0,1,.37.15c-.07.13-.12.36-.19.37-.5,0-1,0-1.49,0A2.13,2.13,0,0,1,51.74,294.8Z"/><path class="cls-1" d="M142.59,297.11l-.75-.55a2.73,2.73,0,0,1,.58-.55c.13-.08.5,0,.51.05.1.44.14.89.2,1.34C143,297.32,142.81,297.24,142.59,297.11Z"/><path class="cls-1" d="M414.5,244.38a3.35,3.35,0,0,1-.31.77,3.15,3.15,0,0,1-.67-.7c-.09-.18.07-.48.12-.72Z"/><path class="cls-1" d="M157.48,299.59a1,1,0,0,1,.54.18c.21.17.39.37.59.56a2.35,2.35,0,0,1-1,.11C157.51,300.39,157.5,299.93,157.48,299.59Z"/><path class="cls-1" d="M406.93,67.88c.12-.12.16-.19.23-.22.29-.16.58-.3.88-.45-.15.4-.31.79-.46,1.19A3.3,3.3,0,0,1,406.93,67.88Z"/><path class="cls-1" d="M158.78,16.92c-.18.14-.29.28-.42.29a3.39,3.39,0,0,1-.7-.07c.13-.22.21-.51.4-.63s.41.11.62.2A.19.19,0,0,1,158.78,16.92Z"/><path class="cls-1" d="M86.55,14.68a3.41,3.41,0,0,1,.89.23c-.23.18-.47.52-.69.51S85.89,15.21,86.55,14.68Z"/><path class="cls-1" d="M17,91c.16.1.25.22.23.29-.1.31-.24.6-.36.89-.12-.06-.34-.16-.33-.19A2.94,2.94,0,0,1,17,91Z"/><path class="cls-1" d="M405.87,47.54a11.84,11.84,0,0,1-.36-1.18c.13,0,.38,0,.38,0,.09.49.14,1,.2,1.5A2.9,2.9,0,0,0,405.87,47.54Z"/><path class="cls-1" d="M16.09,287.06c.24.16.54.37.56.6a2.83,2.83,0,0,1-.29,1A12.21,12.21,0,0,1,16.09,287.06Z"/><path class="cls-1" d="M414.5,205.66a.49.49,0,0,1-.06-.35c.1-.35.22-.69.32-1,.09.14.17.28.25.42Q415.48,205.5,414.5,205.66Z"/><path class="cls-1" d="M18.57,124.74l-.65.77c-.06-.21-.24-.53-.17-.61C18,124.67,18.18,124,18.57,124.74Z"/><path class="cls-1" d="M363.84,304.5c-.22,0-.33.07-.43.07-.25,0-.5,0-.75,0,.2-.18.41-.51.6-.5S364.22,303.6,363.84,304.5Z"/><path class="cls-1" d="M370.87,301.66c-.12.35,1.12.51.19.93-.15.06-.4-.1-.6-.16A6.44,6.44,0,0,1,370.87,301.66Z"/><path class="cls-1" d="M375.13,19.88a6.3,6.3,0,0,0-.89-.24c.05-.1.1-.28.13-.28.4.06.79.15,1.19.23l-.21.42A1,1,0,0,1,375.13,19.88Z"/><path class="cls-1" d="M161.68,300.24a3.43,3.43,0,0,1-.63.67v-.85A1.3,1.3,0,0,1,161.68,300.24Z"/><path class="cls-1" d="M414.2,247.75c0-.38.06-.65.09-.92.13.12.38.3.36.33C414.52,247.41,415.09,248.13,414.2,247.75Z"/><path class="cls-1" d="M225,304.44a1.25,1.25,0,0,1-.47.12c-.3,0-.59,0-.89,0,.05-.09.11-.25.16-.25A5.6,5.6,0,0,1,225,304.44Z"/><path class="cls-1" d="M306.38,300.77c0-.06.09-.07.12,0l1.07.43-.16.27A9.18,9.18,0,0,1,306.38,300.77Z"/><path class="cls-1" d="M271.69,16.21c.19-.3.49-.23.88.19.06.07.08.3,0,.34C272,17.23,272.08,16.34,271.69,16.21Z"/><path class="cls-1" d="M373.24,19.41c0,.08,0,.13,0,.13l-1,.06a1.41,1.41,0,0,1,0-.24A6.1,6.1,0,0,1,373.24,19.41Z"/><path class="cls-1" d="M159.79,17.69a2,2,0,0,1-.56-.5l.8-.08A1.2,1.2,0,0,1,159.79,17.69Z"/><path class="cls-1" d="M346.76,303.14a.74.74,0,0,1-.57.1c-.15-.08-.2-.35-.3-.54C346.16,302.83,346.43,303,346.76,303.14Z"/><path class="cls-1" d="M262.17,301.66l-.95-.05.34-.42C261.75,301.42,262.42,300.93,262.17,301.66Z"/><path class="cls-1" d="M16,94.54a2.75,2.75,0,0,1,0-1s.16-.05.24-.07A3.57,3.57,0,0,1,16,94.54Z"/><path class="cls-1" d="M15.8,67.82a3.32,3.32,0,0,1,.65.65c-.22,0-.55.13-.64,0A.76.76,0,0,1,15.8,67.82Z"/><path class="cls-1" d="M341.08,17.28a3.9,3.9,0,0,1-.38.88l-.27-.15A4.14,4.14,0,0,1,341.08,17.28Z"/><path class="cls-1" d="M180.42,300.77a2.21,2.21,0,0,1,.65.33l-.32.32A2.09,2.09,0,0,1,180.42,300.77Z"/><path class="cls-1" d="M16.27,281.56a.78.78,0,0,1,.69,0c.09.08,0,.41,0,.63A3.06,3.06,0,0,1,16.27,281.56Z"/><path class="cls-1" d="M148.5,17.28a2.35,2.35,0,0,1-.53-.56l.32-.21A2.89,2.89,0,0,1,148.5,17.28Z"/><path class="cls-1" d="M106.12,14.85c-.31.06-.49.11-.68.16l.45-.63A.9.9,0,0,1,106.12,14.85Z"/><path class="cls-1" d="M17.27,285.76a1.74,1.74,0,0,1,.05.53c-.19-.11-.45-.18-.54-.35s.06-.38.1-.57Z"/><path class="cls-1" d="M16.09,44.47a1.43,1.43,0,0,1-.53-.16l.37-.37A1.18,1.18,0,0,1,16.09,44.47Z"/><path class="cls-1" d="M17.27,83.25c.22-.22.39-.37.55-.52l-.13.79A1,1,0,0,1,17.27,83.25Z"/><path class="cls-1" d="M38.32,15.39a3,3,0,0,1,.6-.22l-.05.61A1.71,1.71,0,0,1,38.32,15.39Z"/><path class="cls-1" d="M63.38,15.8a1.75,1.75,0,0,1,.44-.59c.08-.07.29,0,.45,0a3.33,3.33,0,0,1-.34.32A2.59,2.59,0,0,1,63.38,15.8Z"/><path class="cls-1" d="M414.73,291.79a7.42,7.42,0,0,1,.77-.3c0,.11,0,.31-.09.32A1.7,1.7,0,0,1,414.73,291.79Z"/><path class="cls-1" d="M406.4,34.24a2.31,2.31,0,0,1,.21.86c-.09,0-.23,0-.24-.07A1.63,1.63,0,0,1,406.4,34.24Z"/><path class="cls-1" d="M49.67,295.33a4.82,4.82,0,0,1,.62-.2l0,.56A1.83,1.83,0,0,1,49.67,295.33Z"/><path class="cls-1" d="M17.87,191.42a1.84,1.84,0,0,1-.55,0l.53-.65A2.39,2.39,0,0,1,17.87,191.42Z"/><path class="cls-1" d="M66.63,15.8a6.86,6.86,0,0,1-.71-.17l.23-.3A1.79,1.79,0,0,1,66.63,15.8Z"/><path class="cls-1" d="M411.66,295.69a2,2,0,0,1,.55-.4l.1.53A3.91,3.91,0,0,1,411.66,295.69Z"/><path class="cls-1" d="M85.49,15.62a2,2,0,0,1-.35.6l-.2-.64A2.22,2.22,0,0,1,85.49,15.62Z"/><path class="cls-1" d="M106.65,15.62a2.52,2.52,0,0,1,.64.05l-.16.37A1.62,1.62,0,0,1,106.65,15.62Z"/><path class="cls-1" d="M163.16,16.45a1.7,1.7,0,0,1,0,.53l-.57-.57A1.72,1.72,0,0,1,163.16,16.45Z"/><path class="cls-1" d="M324.59,16.27a1.81,1.81,0,0,1-.48.48l-.23-.31C324.08,16.39,324.28,16.33,324.59,16.27Z"/><path class="cls-1" d="M414.14,226.41a1.89,1.89,0,0,1-.36-.58c.14,0,.36,0,.38,0A.78.78,0,0,1,414.14,226.41Z"/><path class="cls-1" d="M302.42,17.69a4.44,4.44,0,0,1,.49-.47l.15.37C302.87,17.62,302.68,17.66,302.42,17.69Z"/><path class="cls-1" d="M201.4,16.92a3.2,3.2,0,0,1-.65-.35l.24-.24A4.68,4.68,0,0,1,201.4,16.92Z"/><path class="cls-1" d="M148.2,297.64a1.35,1.35,0,0,1-.42-.4h.85A1.4,1.4,0,0,1,148.2,297.64Z"/><path class="cls-1" d="M82.24,15.09a.64.64,0,0,1,0-.47l.47.18A1.74,1.74,0,0,1,82.24,15.09Z"/><path class="cls-1" d="M92.46,295.57a3.37,3.37,0,0,1-.75.05l.8-.34s.08.05.08.07A.53.53,0,0,1,92.46,295.57Z"/><path class="cls-1" d="M18,188.7a2.19,2.19,0,0,1-.28-.66l.16,0A2.51,2.51,0,0,1,18,188.7Z"/><path class="cls-1" d="M15.74,275.12a1.51,1.51,0,0,1-.42-.45l.32-.2A2.47,2.47,0,0,1,15.74,275.12Z"/><path class="cls-1" d="M92.23,15.5a1.06,1.06,0,0,1,.33-.37l.22.41A1.54,1.54,0,0,1,92.23,15.5Z"/><path class="cls-1" d="M19.58,161.15a3,3,0,0,1-.66-.35l.25-.24A6,6,0,0,1,19.58,161.15Z"/><path class="cls-1" d="M408.35,62.68a1.74,1.74,0,0,1,.26.67s-.16.12-.24.17A3.83,3.83,0,0,1,408.35,62.68Z"/><path class="cls-1" d="M207.55,304a1.36,1.36,0,0,1-.71.11v-.21A1.46,1.46,0,0,1,207.55,304Z"/><path class="cls-1" d="M405.93,45.36a.4.4,0,0,1,0,.45c-.05.06-.26,0-.41-.05A1.29,1.29,0,0,1,405.93,45.36Z"/><path class="cls-1" d="M38.32,297.7a2.21,2.21,0,0,1,.54-.05l-.11.33A1,1,0,0,1,38.32,297.7Z"/><path class="cls-1" d="M18,103.34a1.33,1.33,0,0,1,.41.44s-.1.11-.16.16A2,2,0,0,1,18,103.34Z"/><path class="cls-1" d="M406.81,108.78a2,2,0,0,1-.63.08l0-.31A5.42,5.42,0,0,1,406.81,108.78Z"/><path class="cls-1" d="M71.36,15.33a1.6,1.6,0,0,1,.47.28l-.22.19A.91.91,0,0,1,71.36,15.33Z"/><path class="cls-1" d="M16.68,140.58a2.26,2.26,0,0,1,.52-.07c0,.11,0,.29-.05.3-.2,0-.4,0-.61,0a.28.28,0,0,1,0-.08Z"/><path class="cls-1" d="M366.15,304.2a1,1,0,0,1-.29-.43l.33-.12A2.19,2.19,0,0,1,366.15,304.2Z"/><path class="cls-1" d="M200.93,303.79a.44.44,0,0,1,0,.46c0,.05-.27,0-.41-.06A1.35,1.35,0,0,1,200.93,303.79Z"/><path class="cls-1" d="M55.81,15.39a1.89,1.89,0,0,1,.55-.05l-.12.33A1.28,1.28,0,0,1,55.81,15.39Z"/><path class="cls-1" d="M233.5,274.05c-.42-.05-.79,0-1.15-.06a1.67,1.67,0,0,1-.43-.1c.1-.11.18-.27.3-.32a5.36,5.36,0,0,1,3.8.17,1.67,1.67,0,0,1,.38.29c-.12.14-.22.38-.36.42-.3.06-.71.14-.91,0-.48-.33-.85-.49-1.27,0Z"/><path class="cls-1" d="M168,124.15c.45.89.86,1.71,1.22,2.55,0,.09-.18.36-.32.42a.68.68,0,0,1-.46-.18c.18-1.2-.85-1.77-1.32-2.63-.1-.18,0-.46,0-.69C167.38,123.78,167.67,123.93,168,124.15Z"/><path class="cls-1" d="M336.12,287.41a3,3,0,0,1,.79-.53c.18-.05.43.13.64.2-.1.21-.16.54-.32.61a3.6,3.6,0,0,1-1.18.24,3,3,0,0,1-.82-.16A9.25,9.25,0,0,0,336.12,287.41Z"/><path class="cls-1" d="M230.25,275.12c-.25.11-.57.08-.74.23-.59.53-.72-.11-1-.37-.08-.09,0-.34,0-.51a12.18,12.18,0,0,1,1.48,0C230.11,274.5,230.17,274.86,230.25,275.12Z"/><path class="cls-1" d="M331.86,286.35c-.43-.06-.8,0-1.16-.08-.15,0-.29-.22-.43-.34a1.35,1.35,0,0,1,.42-.1c.58,0,1.32-.84,1.7.29a3.4,3.4,0,0,1,.09.64A7.23,7.23,0,0,1,331.86,286.35Z"/><path class="cls-1" d="M247.69,147.56a1.73,1.73,0,0,1-.45.77,2.9,2.9,0,0,1-.78.35c-.05-.21-.19-.5-.11-.62a1.81,1.81,0,0,1,.7-.55A1.13,1.13,0,0,1,247.69,147.56Z"/><path class="cls-1" d="M399,251.83a7.22,7.22,0,0,1-1.07.82,2.35,2.35,0,0,1,0-.79c.06-.21.3-.53.44-.53S398.75,251.61,399,251.83Z"/><path class="cls-1" d="M240.89,273.52a2.91,2.91,0,0,1-.32-.94l1.27.13A7.27,7.27,0,0,1,240.89,273.52Z"/><path class="cls-1" d="M44.46,215.18a3.45,3.45,0,0,1-.63.2c0-.45-.09-.9-.08-1.35,0-.09.29-.19.46-.23s.17.2.19.32A4.52,4.52,0,0,1,44.46,215.18Z"/><path class="cls-1" d="M173.8,129.94c.27.22.5.36.68.54a2.16,2.16,0,0,1,.28.52c-.22,0-.49,0-.64-.07a7,7,0,0,1-.84-.8A1.52,1.52,0,0,1,173.8,129.94Z"/><path class="cls-1" d="M394.58,216.3c.09-.47.19-.82.28-1.18a8.32,8.32,0,0,1,.17,1.19,2,2,0,0,1-.28.7A5.78,5.78,0,0,1,394.58,216.3Z"/><path class="cls-1" d="M389.79,167.6c.14.2.32.43.27.59a5.51,5.51,0,0,1-.56,1s-.2,0-.31,0a11.24,11.24,0,0,1,.2-1.16C389.43,167.87,389.61,167.74,389.79,167.6Z"/><path class="cls-1" d="M247.57,272.75c.13-.25.31-.61.5-.61s.57.24.86.37a5.3,5.3,0,0,1-.71.29A1.36,1.36,0,0,1,247.57,272.75Z"/><path class="cls-1" d="M96.9,83.42a1.05,1.05,0,0,1,0-.61,10.4,10.4,0,0,1,1.11.23c-.07.13-.13.35-.23.37A5.46,5.46,0,0,1,96.9,83.42Z"/><path class="cls-1" d="M248.93,274a2,2,0,0,1,.71-.35l.15.78A3,3,0,0,1,248.93,274Z"/><path class="cls-1" d="M354.2,71.19a1.56,1.56,0,0,1,.52.43L354,72C354.05,71.78,354.1,71.51,354.2,71.19Z"/><path class="cls-1" d="M78.63,72.49c-.19,0-.36,0-.44-.11a2.77,2.77,0,0,1-.31-.56c.13,0,.33-.08.39,0A1.62,1.62,0,0,1,78.63,72.49Z"/><path class="cls-1" d="M390.62,187.4a3.52,3.52,0,0,1,.34-.84c.1.19.33.44.28.56S390.87,187.35,390.62,187.4Z"/><path class="cls-1" d="M193.9,141.65a6.16,6.16,0,0,1,1.1.51c0,.05-.12.14-.14.13A5.35,5.35,0,0,1,193.9,141.65Z"/><path class="cls-1" d="M397.41,248.7a7.57,7.57,0,0,1-.26.94l-.35-.26A3.47,3.47,0,0,1,397.41,248.7Z"/><path class="cls-1" d="M44.58,152.76a2.87,2.87,0,0,1-.29.87s-.2,0-.3,0A4.89,4.89,0,0,1,44.58,152.76Z"/><path class="cls-1" d="M283.39,279.61a1.19,1.19,0,0,1,.5.44s-.2.2-.3.31l-.57-.61A1.47,1.47,0,0,0,283.39,279.61Z"/><path class="cls-1" d="M368.81,282.51c.15.69-.36.66-.82.71,0-.11,0-.26.07-.31A2.87,2.87,0,0,1,368.81,282.51Z"/><path class="cls-1" d="M45.65,105.59a1.9,1.9,0,0,1,.55-.4l0,.62A3.79,3.79,0,0,1,45.65,105.59Z"/><path class="cls-1" d="M390.26,140.58a1.74,1.74,0,0,1-.41-.48l.36-.16A1.87,1.87,0,0,1,390.26,140.58Z"/><path class="cls-1" d="M182.49,275.18a1.58,1.58,0,0,1-.39.44l-.24-.4A1.13,1.13,0,0,1,182.49,275.18Z"/><path class="cls-1" d="M116.11,272.4a3,3,0,0,1-.76.06,1.34,1.34,0,0,1,0-.2c.27-.06.55-.11.82-.15,0,0,.08.05.08.07A.6.6,0,0,1,116.11,272.4Z"/><path class="cls-1" d="M45.35,109.25a5.41,5.41,0,0,1,.9,0l-.41.5A5,5,0,0,1,45.35,109.25Z"/><path class="cls-1" d="M43.93,216.3A1.38,1.38,0,0,1,44,217h-.21A1.48,1.48,0,0,1,43.93,216.3Z"/><path class="cls-1" d="M87.44,269.27A1.46,1.46,0,0,1,87,269l.46-.18A.66.66,0,0,1,87.44,269.27Z"/><path class="cls-1" d="M121.19,273.11a2,2,0,0,1-.59.36c0-.13,0-.36.05-.38A.92.92,0,0,1,121.19,273.11Z"/><path class="cls-1" d="M254.78,273.23a2.47,2.47,0,0,1-.65-.1l.2-.32A1.51,1.51,0,0,1,254.78,273.23Z"/><path class="cls-1" d="M109,87.92a.84.84,0,0,0,.39.27c-.06.06-.16.2-.2.19-.22-.1-.43-.22-.65-.34A.67.67,0,0,1,109,87.92Z"/><path class="cls-1" d="M253.83,273.7a2.29,2.29,0,0,1-.77-.2s0-.14,0-.21A2.47,2.47,0,0,1,253.83,273.7Z"/><path class="cls-1" d="M91.16,79.34a2.17,2.17,0,0,1-.65-.09l.21-.32A1.72,1.72,0,0,1,91.16,79.34Z"/><path class="cls-1" d="M277.07,126.46a1.33,1.33,0,0,1,.7-.11v.21A1.42,1.42,0,0,1,277.07,126.46Z"/><path class="cls-1" d="M45.88,62.44a1.6,1.6,0,0,1,.42.44l-.32.21A2.53,2.53,0,0,1,45.88,62.44Z"/><path class="cls-1" d="M388.49,153.11a1,1,0,0,1,.34-.37l.21.41A1.55,1.55,0,0,1,388.49,153.11Z"/><path class="cls-1" d="M176.34,132.6a.79.79,0,0,1-.54-.2s0-.18,0-.27A2.21,2.21,0,0,1,176.34,132.6Z"/><path class="cls-1" d="M361.24,283.93a1.46,1.46,0,0,1-.71.1v-.21A1.36,1.36,0,0,1,361.24,283.93Z"/><path class="cls-1" d="M67.34,66.16a1.37,1.37,0,0,1,.42.41c-.14,0-.36.11-.41.05A.44.44,0,0,1,67.34,66.16Z"/><path class="cls-1" d="M45.65,73.79a.94.94,0,0,1,.41.21l-.63.16A2.9,2.9,0,0,1,45.65,73.79Z"/><path class="cls-1" d="M386.36,75.56a1.34,1.34,0,0,1-.19.52l-.33-.33A1.6,1.6,0,0,1,386.36,75.56Z"/><path class="cls-1" d="M174.74,276.18a2.11,2.11,0,0,1,.61.25c-.06.05-.15.17-.16.16A1.27,1.27,0,0,1,174.74,276.18Z"/><path class="cls-1" d="M251.77,273.76a2,2,0,0,1,.15-.44l.32.56A.68.68,0,0,1,251.77,273.76Z"/><path class="cls-1" d="M112.5,272.1a1.7,1.7,0,0,1-.43-.15l.55-.32A.68.68,0,0,1,112.5,272.1Z"/><path class="cls-1" d="M117,92.64a1.33,1.33,0,0,1-.2-.62,1.06,1.06,0,0,1,.15,0A1,1,0,0,1,117,92.64Z"/><path class="cls-1" d="M396.53,239.06a1.07,1.07,0,0,1,.28.43l-.33.12A1.87,1.87,0,0,1,396.53,239.06Z"/><path class="cls-1" d="M153.82,114.1a3.83,3.83,0,0,1-.83,0c0-.06.1-.17.14-.17A1.84,1.84,0,0,1,153.82,114.1Z"/><path class="cls-1" d="M43.87,226.88a1,1,0,0,1-.39-.31l.39-.28A1.94,1.94,0,0,1,43.87,226.88Z"/><path class="cls-1" d="M295.09,116.11a1.33,1.33,0,0,1,.41.44s-.1.11-.16.16A2,2,0,0,1,295.09,116.11Z"/><path class="cls-1" d="M42.75,209.45a.42.42,0,0,1-.46,0c-.06-.05,0-.26.06-.41A1.4,1.4,0,0,1,42.75,209.45Z"/><path class="cls-1" d="M327.13,30.4a15.34,15.34,0,0,1-1.74-.21c.2-.22.37-.61.6-.65a18.73,18.73,0,0,1,2.48-.22c.12,0,.25.24.38.37a1.58,1.58,0,0,1-.36.29C328.06,30.12,327.62,30.22,327.13,30.4Z"/><path class="cls-1" d="M221,135.62a10.51,10.51,0,0,1-1.6-1.27c-.15-.15-.15-.46-.21-.7.26,0,.62,0,.78.14C220.45,134.28,221.33,134.57,221,135.62Z"/><path class="cls-1" d="M364.55,41.81c.6-.24,1.08-.5,1.57-.7.15,0,.36.06.54.09a1.54,1.54,0,0,1-.3.32c-.55.34-1.1.69-1.68,1-.15.07-.4-.09-.6-.14A1.77,1.77,0,0,1,364.55,41.81Z"/><path class="cls-1" d="M369.69,32.11a4.51,4.51,0,0,1-.18,1c0,.09-.12.2-.19.21a.32.32,0,0,1-.27-.13c-.29-.66-.57-1.33-.84-2a1.27,1.27,0,0,1,0-.39,1.77,1.77,0,0,1,.32.21C368.87,31.35,369.25,31.73,369.69,32.11Z"/><path class="cls-1" d="M246.74,128.76a2.42,2.42,0,0,1-.39.2c0-.27-.12-.62,0-.8a5.27,5.27,0,0,1,.94-.88c.05,0,.21.07.32.11-.16.33-.3.66-.48,1A2.83,2.83,0,0,1,246.74,128.76Z"/><path class="cls-1" d="M207.31,34a8.13,8.13,0,0,1,1.83.3c.11,0,.18.21.27.32-.23.11-.52.36-.68.3A5.92,5.92,0,0,1,207.31,34Z"/><path class="cls-1" d="M177.82,36.19a2.41,2.41,0,0,1,.8-.5,1.62,1.62,0,0,1,.85.17c.1,0,.12.25.18.38a3.9,3.9,0,0,1-.75.12A3.7,3.7,0,0,1,177.82,36.19Z"/><path class="cls-1" d="M104.64,68.82c.43.28.81.5,1.18.71,0,.06-.12.18-.15.17-.56-.2-1.13-.41-1.67-.65,0,0,.06-.34.1-.52C104.26,68.61,104.42,68.69,104.64,68.82Z"/><path class="cls-1" d="M250.35,31.88c-.39,0-.66.09-.93.14.21-.14.41-.29.62-.42s.26-.19.39-.18c.44,0,.88.08,1.32.12C251.32,31.66,250.89,31.77,250.35,31.88Z"/><path class="cls-1" d="M126.45,77.51a2.45,2.45,0,0,1-.38-.23c-.34-.17-.69-.31-1-.47.06-.07.14-.2.16-.19.58.22,1.16.47,1.73.7A1.44,1.44,0,0,1,126.45,77.51Z"/><path class="cls-1" d="M341.38,28.33c-.47-.11-.82-.22-1.16-.33.07-.09.13-.24.21-.24.39,0,.79,0,1.19,0A1.2,1.2,0,0,1,341.38,28.33Z"/><path class="cls-1" d="M329.85,29.57c.06-.21.1-.57.31-.73s.54-.07.81-.1a2.27,2.27,0,0,1-.44.6A3.81,3.81,0,0,1,329.85,29.57Z"/><path class="cls-1" d="M87.73,28.15a1.46,1.46,0,0,1-.53.05,6.76,6.76,0,0,1,.71-.8c.07,0,.31.09.47.15l-.34.31C88,27.94,87.88,28,87.73,28.15Z"/><path class="cls-1" d="M67.64,43.41a.52.52,0,0,1,.89,0,1.48,1.48,0,0,1,.2.48C68.38,43.72,68,43.59,67.64,43.41Z"/><path class="cls-1" d="M184.14,115.34a2.48,2.48,0,0,1-.94,0l.08-.43A2.77,2.77,0,0,1,184.14,115.34Z"/><path class="cls-1" d="M102.63,29a2,2,0,0,1,.28-.65l.61.42A4,4,0,0,1,102.63,29Z"/><path class="cls-1" d="M74.73,28.75a3.37,3.37,0,0,1-.74.44c0-.13-.16-.33-.12-.39C74.09,28.53,74.33,28.13,74.73,28.75Z"/><path class="cls-1" d="M287.94,100.68a3.12,3.12,0,0,1-.37.95l-.34-.19A4.9,4.9,0,0,1,287.94,100.68Z"/><path class="cls-1" d="M84.07,28.86a.26.26,0,0,1-.24.17c-.3,0-.59-.07-.88-.11a2.46,2.46,0,0,1,.24-.46A4.42,4.42,0,0,1,84.07,28.86Z"/><path class="cls-1" d="M185.86,116.7a7.62,7.62,0,0,1-.35-.71l.71-.11A3.23,3.23,0,0,1,185.86,116.7Z"/><path class="cls-1" d="M133,81.47a2.8,2.8,0,0,1,.59.6l-1-.14Z"/><path class="cls-1" d="M299,30.4a6.75,6.75,0,0,1,.7-.36l0,.63-.81-.05a.21.21,0,0,1,0-.08S298.91,30.49,299,30.4Z"/><path class="cls-1" d="M153.41,96a1.58,1.58,0,0,1,.71-.33s.1.19.15.3A2.09,2.09,0,0,1,153.41,96Z"/><path class="cls-1" d="M207.26,35.25a1.11,1.11,0,0,1-.59.34c-.08,0-.25-.26-.28-.43s.2-.34.23-.33A3.46,3.46,0,0,1,207.26,35.25Z"/><path class="cls-1" d="M290.07,99.74a1.78,1.78,0,0,1-.71.34s-.1-.2-.15-.31A2.08,2.08,0,0,1,290.07,99.74Z"/><path class="cls-1" d="M323.82,29a.41.41,0,0,1,.14.2l.3.72c-.13,0-.29,0-.39-.11C323.62,29.62,323.21,29.39,323.82,29Z"/><path class="cls-1" d="M337.18,29a3.23,3.23,0,0,1,.79-.39l.1.3A4.06,4.06,0,0,1,337.18,29Z"/><path class="cls-1" d="M208.26,128.82a4,4,0,0,1-.71-.52,1.42,1.42,0,0,1,.22-.18A2.18,2.18,0,0,1,208.26,128.82Z"/><path class="cls-1" d="M279.61,105.23a4.09,4.09,0,0,1-.82.37,1.61,1.61,0,0,1,0-.39A2.37,2.37,0,0,1,279.61,105.23Z"/><path class="cls-1" d="M356.51,28.86a.16.16,0,0,1,.19,0,4.63,4.63,0,0,1,.36.65s-.15.12-.23.18C356.72,29.45,356.62,29.19,356.51,28.86Z"/><path class="cls-1" d="M277.77,106.36a.93.93,0,0,0-.36.22c0-.1-.12-.28-.1-.3a2.12,2.12,0,0,1,.63-.33c.07,0,.2.28.31.44Z"/><path class="cls-1" d="M95.65,27.45a1.45,1.45,0,0,1-.44.41L95,27.54A2.17,2.17,0,0,1,95.65,27.45Z"/><path class="cls-1" d="M259.51,119.54a2.11,2.11,0,0,1-.65-.1l.2-.31A1.36,1.36,0,0,1,259.51,119.54Z"/><path class="cls-1" d="M258.09,120.49a2.47,2.47,0,0,1-.65-.1l.2-.32A1.51,1.51,0,0,1,258.09,120.49Z"/><path class="cls-1" d="M343.56,28.27a1.49,1.49,0,0,1,.05.53l-.56-.33A1.55,1.55,0,0,1,343.56,28.27Z"/><path class="cls-1" d="M59.07,35.66a1.46,1.46,0,0,1-.3.47l-.18-.46A.66.66,0,0,1,59.07,35.66Z"/><path class="cls-1" d="M214.94,131.48a1.85,1.85,0,0,1,.65.1l-.2.31A1.36,1.36,0,0,1,214.94,131.48Z"/><path class="cls-1" d="M77.92,52.15a1.89,1.89,0,0,1-.36-.58c.13,0,.36,0,.38,0A.92.92,0,0,1,77.92,52.15Z"/><path class="cls-1" d="M79.93,54.52c-.13-.22-.21-.38-.29-.54a3.9,3.9,0,0,1,.49.28S80,54.47,79.93,54.52Z"/><path class="cls-1" d="M94.77,63.56a1,1,0,0,1-.63-.05s0-.1,0-.15A1.29,1.29,0,0,1,94.77,63.56Z"/><path class="cls-1" d="M230.49,32.88a1.41,1.41,0,0,1,.46.33s0,.19-.08.29A3.9,3.9,0,0,1,230.49,32.88Z"/><path class="cls-1" d="M310.64,86.5a1.52,1.52,0,0,1-.29.47l-.18-.22A.84.84,0,0,1,310.64,86.5Z"/></g></svg>