<svg xmlns="http://www.w3.org/2000/svg" viewBox="0 0 147.55 255.65"><defs><style>.cls-1{fill:#333;}</style></defs><g id="レイヤー_2" data-name="レイヤー 2"><g id="レイヤー_1-2" data-name="レイヤー 1"><g id="マップ02"><path class="cls-1" d="M122.8,20.37c.15,0,.4.11.44.24.33,1,.54,2.06,1,3,.22.52.53,1.5,1.48.56.08-.08.79.48,1.19.78,0,0-.22.34-.33.53a1.23,1.23,0,0,0-.11.28c.31.14.73.46.92.36,1-.51,1.41.22,1.9.75.18.2.11.61.18.91s.22.77.35,1.15A.25.25,0,0,0,130,29c1-.83,1.66-.56,1.95.79,0,.12-.28.31-.44.45s-.23.16-.35.25c.14.1.28.3.43.31,1,0,1.24.26,1.28,1.22,0,.08.17.24.22.22a1.24,1.24,0,0,0,.54-.3c.11-.14.1-.38.15-.57a3.59,3.59,0,0,1,.31.66c.31,1.53.6,3.06.92,4.59,0,.22.25.4.38.6.09-.19.19-.38.29-.57a1.75,1.75,0,0,0,.12-.32c.12-.38.23-.76.34-1.14.14.33.43.68.4,1a9.89,9.89,0,0,0,.76,3.72c.42,1.42.51,3,1.9,3.89-.46.83.32,1.32.55,2,.07.2.4.32.44.51a2.07,2.07,0,0,1-.05.89c0,.23-.34.46-.3.64a13.78,13.78,0,0,0,.58,1.71.21.21,0,0,0,.15.13c.25,0,.5,0,.75,0-.15.28-.48.61-.42.82a3.33,3.33,0,0,0,.85,1.61c.6.45.57.67.15,1.2a3.18,3.18,0,0,0-.35,1.19,5,5,0,0,0-.07.54l-.4-.3-.4-.26c-.09.23-.32.55-.24.67a14.59,14.59,0,0,0,1.08,1.3c.12-.23.23-.46.36-.69s.27-.41.41-.62c.13.18.41.44.36.52-.6,1.06.77,2.48-.62,3.43-.12.08.18.77.29,1.18s.26,1,.38,1.46c.05.19.08.39.12.59a2.35,2.35,0,0,0,.52-.47c.08-.13,0-.37,0-.55s.11-.53.17-.79c.17.24.45.46.48.72.17,1.51.58,3,.1,4.54-.09.3.2.71.26,1.07s.11.78,0,.89c-.7.52-.28,1.18-.27,1.74s.58.56,1.08.45c.13,0,.31.11.47.17a1.45,1.45,0,0,0-.4.14c-.15.12-.4.32-.37.43.28,1.23.62,2.45.92,3.68,0,.1-.22.25-.25.4-.07.4-.09.82-.14,1.23a33.94,33.94,0,0,0,.22,3.78c0,.21-.21.41-.33.62a6,6,0,0,0-.33-.54c-.16-.2-.35-.38-.52-.58a2.1,2.1,0,0,0,.08.72c.46.94,1.41,1.69,1.12,2.92-.05.22-.07.45-.13.67a10.43,10.43,0,0,1-.33,1.25,3.41,3.41,0,0,1-.5.92,1.4,1.4,0,0,0,.12,1.89c.13.17.11.46.16.7s.21.69.29,1.05.06.46.09.69,0,.56.11.6c.71.28.22.38,0,.57a2.32,2.32,0,0,0-.73.66,2,2,0,0,0-.13.82,3.49,3.49,0,0,1,.54-.12c.07,0,.14.15.2.23-1,.43-.3,1.39-.66,2C144,96,143.5,97.1,143,98.25c-.1.24,0,.58.05.88.1-.23.18-.46.3-.68s.36-.6.55-.9c.16.23.43.45.45.7a1.93,1.93,0,0,1-.13,1.2c-.4.56-1.09.94-1.42,1.53a2.74,2.74,0,0,0,0,1.51c.09.62.33,1.15-.52,1.53a.8.8,0,0,0-.15,1.42c.34.27.35.43,0,.7-.65.46-1.57.8-1.22,1.91,0,0-.1.11-.15.16a3.18,3.18,0,0,0-.83,2.93c0,.26-.22.57-.34.86a2.79,2.79,0,0,0-.25-.72c-.28-.39-.62-.73-.93-1.09,0,.34-.11.79.06,1,1,1.33-.29,2-.85,2.78a6,6,0,0,0-1,2.54c-.06.24.78,1.72-.7.72a2.34,2.34,0,0,0-.82,1c-.19.77-.1,1.6-.29,2.37-.1.41-.26,1.28-1.09.57a.89.89,0,0,0-.38-.11c0,.16,0,.31.08.47.09.56.22,1.12.27,1.68,0,.09-.34.27-.53.29-1,.15-1.11.48-.76,1.35a1.46,1.46,0,0,1-.25,1.2,7.05,7.05,0,0,1-1.57,1.36,1.37,1.37,0,0,0-.72,1.66,3.19,3.19,0,0,1,0,1.27c-.1.64-.18.64-.74.23a2,2,0,0,0-.54-.23,2.12,2.12,0,0,1-.07.57c-.21.5-.87.86-.46,1.54l-1.33.22c-.25,0-.51.05-.77.07.09.19.26.38.24.55a1.72,1.72,0,0,1-.29.84,9.57,9.57,0,0,1-1.16,1.13c-.06-.61-.48-.93-.86-.57s-1.52-.43-.8.77c.07.12-.18.43-.27.66a2.75,2.75,0,0,0-.37.85,2.67,2.67,0,0,1-2.25,2.6,12.14,12.14,0,0,0-2.2.94c-.17.08-.28.42-.3.64-.08,1.35-.2,2.65-1.75,3.21-.12,0-.12.4-.18.61,1.41.11-.15.43,0,.63l-1.39.72c-.13.06-.37.09-.37.16-.23,1.67-2,1.37-2.86,2.31a6.27,6.27,0,0,0-1.21,2.61,2,2,0,0,1-.45,1.24c-.24.25-.76.18-1.14.31-.12,0-.16.28-.26.41-.38.49.07,1.36-1,1.64-.6.16-1,.94-1.54,1.45a1.83,1.83,0,0,0-.13.16c1,.65-.39,1.53.2,2.23a.35.35,0,0,1,0,.33,3.81,3.81,0,0,1-.37.43,3.7,3.7,0,0,1-.07-.57c0-.25.06-.49.08-.74a3.55,3.55,0,0,0-.53.57,33,33,0,0,0-2.12,3.75,20.84,20.84,0,0,0-.82,3.38,2.39,2.39,0,0,1-.2.43c-.14-.13-.3-.24-.43-.38s-.48-.5-.72-.75a4.5,4.5,0,0,0,.88-.73c.12-.17,0-.52,0-.78,0-.1-.14-.19-.21-.29a2,2,0,0,0-.23.28c-.55,1-1.5,1.92-.36,3.14.11.12-.19.65-.34,1,0,.06-.34.08-.35.06a3,3,0,0,1-.29-.9,3.5,3.5,0,0,1,.08-.85c-.26.26-.62.49-.75.8s-.18.93,0,1.09c.84.73.08,1.06-.23,1.61-.76,1.37-1.33,2.84-2.09,4.21a12.2,12.2,0,0,0-.67,2.13c-.07.22-.36.36-.55.54a2.07,2.07,0,0,1-.32-.65c0-.39.11-.79.11-1.18a2.22,2.22,0,0,0-.21-.63c-.12.16-.24.31-.37.46-.68.78-.24,1.4.29,2a.56.56,0,0,1,.16.34c-.15.92-.31,1.83-.5,2.73,0,.1-.27.12-.38.22s-.69.5-.66.68c.23,1.11-.59,1.6-1.16,2.26a3.62,3.62,0,0,0-.42.91l.55-.37c.09.13.27.33.24.39-.84,1.3-.39,2.39.42,3.53.19.26-.25.94-.33,1.44s.13,1.11-.74.75c0,0-.15.13-.17.21-.16.73-.59,1.55-.39,2.16.31,1-.27,2.15.65,3a1,1,0,0,1,.17.7,2.31,2.31,0,0,1-.29.67c-.12-.19-.24-.39-.37-.57s-.33-.47-.51-.69c-.06-.06-.2,0-.3,0s0,.13,0,.15c.91.87-.09,1.65-.15,2.46a9.41,9.41,0,0,1-.61,2.22c-.16.48-.11,1.18-1,1-.17,0-.37.19-.55.29a2.91,2.91,0,0,0,.33.37,1.28,1.28,0,0,1,.05,1.72,1,1,0,0,1-.3.09c0-.1.09-.22.07-.31a2.34,2.34,0,0,0-.29-1c-.13-.16-.53-.11-.81-.15,0,1.31-1.36,1.49-1.91,2.34a4.1,4.1,0,0,0-.21.48,1.46,1.46,0,0,0,.48-.09c.33-.2.64-.46,1-.67a.41.41,0,0,1,.35.09.71.71,0,0,1,.15.47,1.19,1.19,0,0,1-1.35.81,3.62,3.62,0,0,0-2.88,1.12c-.36.32-1,.32-1.47.51s-1.17-.1-.69.79c0,.06-.07.27-.16.33-1.53,1-3.1,1.82-5,1.25-.26-.08-.78.19-.85.09-.37-.56-1.79.76-1.52-.87,0-.12-.49-.48-.54-.44a3.53,3.53,0,0,0-.69.82c-.38-.13-.74-.33-1.13-.5s-.65-.23-1-.35c.06.23.14.45.18.68s0,.29-.09.31a1.15,1.15,0,0,1-.6.09c-.1,0-.24-.26-.22-.37.2-1.13-.9-1.11-1.4-1.61a1,1,0,0,0-.1.28c0,.21,0,.41-.06.62-.16-.16-.4-.29-.46-.47-.39-1.1-.72-2.22-1.09-3.32a1,1,0,0,0-.34-.49c-1.42-.86-1.44-2.23-1.39-3.65a1.5,1.5,0,0,0,0-.67c-.71-1.39-.12-2.83-.2-4.24,0-.63-.3-1.4.64-1.79.14-.06,0-.91-.15-1.4.05-.22.19-.43.25-.66s0-.51,0-.52c-1-.2-.85-.77-.51-1.45,0-.09-.17-.29-.23-.45a5.75,5.75,0,0,1-.2-.71c1.2-.23.54-1.18.65-1.79.07-.43.42-1-.38-1.38-.29-.15-.35-1.31-.11-1.83a5.65,5.65,0,0,0,0-4.56c0-.11.2-.3.27-.47.33-.84.63-1.7,1-2.53a6.68,6.68,0,0,1,.65-1c.14-.21.46-.43.43-.6s-.34-.38-.55-.55-.63-.46-.91-.72c-.06-.05,0-.34,0-.35a1.06,1.06,0,0,1,.62-.09c.46.16.43.19.42-.31,0-.77,0-1.53,0-2.3a2,2,0,0,1,.28-.67c.13.17.27.34.39.52s.2.37.3.55a6.8,6.8,0,0,0,.18-.75c.13-1.12.23-2.25.37-3.37a9.14,9.14,0,0,0,.26-1.61,3.26,3.26,0,0,1,1.35-2.73c.46-.41,1.1-.88-.06-1.26a.51.51,0,0,1-.13-.46,2.93,2.93,0,0,1,.66-.55,4.68,4.68,0,0,1,.54-.3c.25-.15.4-.76.8-.17.13-.09.34-.17.37-.29.36-1.25.66-2.51,1-3.74,0-.11.56-.1.85-.05.13,0,.23.24.35.38.11-.18.35-.39.31-.53-.15-.63.22-.77.64-1.11s1.35-.64.79-1.68c-.23-.44.11-1.19.17-1.8a3.2,3.2,0,0,1,.05-.83c.12-.29.35-.72.57-.75,1.5-.18,1.88-.55,1.94-1.94,0-.22.3-.47.52-.6s.52,0,.73-.13a2.87,2.87,0,0,0,.63-.54c-.31,0-.62,0-.93,0a.8.8,0,0,0-.32.13c0-.13,0-.32.12-.38a8.3,8.3,0,0,1,1.34-.87c.42-.19.8-.28.34-.81,0,0,0-.28.06-.28a1.78,1.78,0,0,1,.39.07,1.88,1.88,0,0,0,.77.07c.15,0,.23-.33.34-.51a4.53,4.53,0,0,1-.53,0,1.81,1.81,0,0,1-.37-.09,1.88,1.88,0,0,1,.31-.32,17.62,17.62,0,0,0,2-1.15,14.84,14.84,0,0,0,1.68-1.59c.06-.07,0-.25,0-.38l-.47.15-.54.19c0-.27-.07-.67.08-.81a10.61,10.61,0,0,1,1.84-1.32,4.79,4.79,0,0,0,1.06.16s.07-.23.1-.36l-.88.14a1.62,1.62,0,0,1-.22,0A12.48,12.48,0,0,1,87.51,136c.14-.11.58,0,.8.18s.24.41.36.62a4.65,4.65,0,0,1,0-.92c0-.23.21-.58.38-.61,1.12-.22,1-1.32,1.42-2a2.8,2.8,0,0,1,.63-.47,2.82,2.82,0,0,0,.09.52.33.33,0,0,0,.28.15,5.73,5.73,0,0,0,.7-.23c-.07-.13-.11-.35-.21-.38-.63-.25-.63-.39,0-.52,0,0,.11-.22.07-.28s-.23-.35-.37-.36-.39.13-.59.2l-.42.12c.05-.13.07-.34.16-.38,1.06-.41,1.64-1.74,3-1.57.11,0,.38-.31.35-.37-.44-1,.21-1,.85-.95s1.3,0,1.42-.92c0-.31.48-.55.6-.87.37-1.07,1.71-1.3,2-2.43a5.74,5.74,0,0,1,.63-1.54c.9-1.41,2.47-1.44,3.88-1.78a.51.51,0,0,0,.17-.46c-.39-.87-.46-1.52.7-1.91.4-.13.62-.83.89-1.28a4,4,0,0,0,.22-.69c-.22,0-.44.1-.66.12a1.54,1.54,0,0,1-.42-.07c.08-.1.14-.25.24-.31.82-.48,1.66-.92,2.45-1.43.35-.23.86-.63.84-.92-.08-1.19.73-2,1.23-2.89.31-.54,1.18-.75,1.76-1.16a2.27,2.27,0,0,0,.66-.78,20.67,20.67,0,0,1,1-2.07c.78-1.19,1.69-2.3,2.51-3.46.1-.16,0-.46,0-.69a6.06,6.06,0,0,1,.13-1.21c.06-.23.33-.39.51-.59,0,.21-.12.43-.05.6a1.87,1.87,0,0,0,.45.53c.07-.19.13-.38.21-.56.61-1.52.93-3.29,1.93-4.47a9.08,9.08,0,0,0,1.74-3c.3-1,.26-2.21.55-3.32,0-.2-.27-.47-.38-.72-.49-1.09.92-1.49.9-2.45a8.32,8.32,0,0,1,.44-1.54c.07-.41,0-.85,0-1.28.06-1,.14-1.92.22-2.88,0-.15,0-.3,0-.44l.85,0c-.13-.24-.29-.46-.4-.71a4.43,4.43,0,0,1-.23-.73.33.33,0,0,1,0-.22c.12-.23.27-.46.4-.68-.26,0-.52.12-.78.15a.67.67,0,0,1-.29-.1,1.19,1.19,0,0,1,.16-.34c.3-.34.76-.61.89-1,.23-.68,1-1.59-.44-2a3.06,3.06,0,0,1,0-.65c.41,0,1,0,.64-.56-.17-.3-1-.58-1.23-.42-.56.41-.47.19-.52-.27-.1-.92.41-2-.44-2.75.88-.51.18-1,0-1.53,0,0,.26-.07.29-.14a4.26,4.26,0,0,0,.5-1.72,10.63,10.63,0,0,0-.83-2.58c-.08-.19-.44-.27-.66-.42a1.11,1.11,0,0,1-.22-.3c.12,0,.24-.1.36-.13l.75-.15c-.55-.43.45-1.45-.6-1.64-.12,0-.35.5-.5.78a2.74,2.74,0,0,0-.21.54c-.2-.08-.45-.1-.57-.24s0-.35.08-.53.19-.45.23-.69-.15-.87.58-.43c.13.08,1.06-.27.44-1.09s-.86-2.19-1.89-3c-.3-.22-.29-.84-.49-1.24a3.38,3.38,0,0,0-.6-.72c-.17-.2-.53-.47-.49-.57.54-1.24-.31-1.86-1-2.6-.54-.56-1.47-1.4-1.34-1.84.33-1.08-.88-1.71-.49-2.67a1.68,1.68,0,0,0,.07-.39,2.24,2.24,0,0,0-.39.27,1.61,1.61,0,0,0-.24.47c-.28.7-.54.82-1,.11-.38-.55-1-.85-.59-1.76.29-.65-1.33-2.14-2.09-2.09s-.81-.17-.58-.81.55-1.4-.2-2a.94.94,0,0,0-.38-.12c0,.1.15.24.12.31a1.18,1.18,0,0,1-.31.32c0-.12-.08-.24-.13-.36-.28-.66-.29-1.45-1.4-1.5-.37,0-.69-.91-1.07-1.36-.14-.17-.46-.38-.59-.32-1,.47-1.32.36-1.68-.76a2,2,0,0,0-2.07-.86c-.09,0-.12.21-.19.32a2.13,2.13,0,0,0,.62.28c.37,0,1.38.72,1.41,1.08a2.49,2.49,0,0,1-.07.53l-.47-.17a6.79,6.79,0,0,1-1.48-.5,5.05,5.05,0,0,1-.94-1c-.1-.11-.19-.27-.32-.31-1.46-.5-2.21-1.86-3.38-2.7a2.07,2.07,0,0,0-.91-.22c-.11,0-.24.13-.36.2-.57-1-1.66,0-1.75-.11-.51-.83-1.48-.39-2-.89a1.49,1.49,0,0,1-.25-1c0-.09.45-.17.68-.26a8.31,8.31,0,0,0,.87-.35.37.37,0,0,0,.11-.31c0-.09-.18-.24-.22-.22-.57.2-1.13.43-1.7.66l-1.07.39c-.13-.36-.26-.72-.37-1.09a1.93,1.93,0,0,1-.07-.43c-.1.11-.19.23-.3.34l-.54.54a4.07,4.07,0,0,1-.35-.6A4.42,4.42,0,0,1,88,31.3c-.16-.72-.6-.86-1.3-.8a15.88,15.88,0,0,1-2.28-.1,6.26,6.26,0,0,0-.73-.14,2.84,2.84,0,0,1-2.44-1c-.14-.17-.5-.16-.76-.23.09.2.2.41.28.62a2.73,2.73,0,0,1,0,.4c-.14,0-.3,0-.4-.09-.52-.36-1-.65-1.67-.23-.1.06-.45-.39-.73-.49s-.69-.05-1-.17c-.45-.18-.9-.65-1.11.23l-1.46-.54L74,28.57c-.29,1.68-1.52.73-2.3.73-1.19,0-2.38-.34-3.58-.36-.4,0-.82.53-1.21.85s-.5.7-1.06.17a1.55,1.55,0,0,0-1.45-.08c-.8.51-1.46.1-2.18,0a1.62,1.62,0,0,0-.75,0c-.22.09-.37.35-.56.54.22.11.43.23.66.33s.47.17.69.29c0,0,0,.3,0,.3-.31,0-.61,0-.92-.07-.07,0-.18,0-.19-.07-.41-1.29-1.82-.62-2.55-1.28-.07-.06-.54.14-.58.29a1.29,1.29,0,0,1-1.9,1.07c-.12,0-.43.23-.52.43-.31.62-.55,1-1.14.19-.12-.19-.63-.11-1-.14a1.72,1.72,0,0,1,.13.62c0,.15-.25.39-.36.38a7.52,7.52,0,0,1-1.14-.26c.2-.72-.55-.33-.73-.62-.13.19-.26.39-.4.57-.28.36-.56.74-.87,1.08s-1.11-.06-1,.78c-.21-.09-.5-.12-.61-.28a.85.85,0,0,0-1.47-.11.92.92,0,0,0-.08.38c.93.09.9.41.2.88,1,1.56-.93,1.57-1.35,2.38-.07.14-.61,0-.93,0,.2-.3-.43-.94.46-1,.24,0,.45-.49.67-.75a2,2,0,0,0-.86.13c-.36.25-.83.59-.91,1a3.13,3.13,0,0,1-2.72,2.41.73.73,0,0,0-.2.05,3,3,0,0,0,.31.39,7.11,7.11,0,0,1,.74.71c0,.05-.37.57-.44.54-1.15-.43-1.23.77-1.8,1.19A6.69,6.69,0,0,0,39,43.6c-.06.09-.1.23-.18.26-1.53.47-1.58,2.19-2.62,3.08a1.35,1.35,0,0,1-.46.24c-.44.13-.81.23-.38.8a1,1,0,0,1,.15.8c-.18.31.18,1.34-.83.76a1.31,1.31,0,0,0-.53-.09,4.82,4.82,0,0,1,.11.52c.08.66.16,1.32.22,2,0,.06-.16.21-.19.19a1,1,0,0,1-.43-.29,2.07,2.07,0,0,1-.2-.56,4.27,4.27,0,0,0-.12.7c0,.49,0,.69-.49.24,0,0-.49.12-.58.28a16.66,16.66,0,0,0-.74,1.61,1.69,1.69,0,0,0-.17.61A12.81,12.81,0,0,0,31.63,58c.21.85-.37,1.21-.57,1.8a1.13,1.13,0,0,1-.38-.1,11,11,0,0,1,0-1.28c0-.26.15-.53.1-.77s-.35-.17-.55-.25c0,.21.09.51,0,.63-1.08,1.15.13,2.39-.08,3.63-.12.74-.28,1.51-.44,2.27a3.53,3.53,0,0,0,0,.92c0,.17.16.46.1.5-1.16.83-.17,2.1-.6,3.11-.17.4.35,1.08.55,1.64.1.26.35.65.26.76-.72.88.13,1.37.45,2a2,2,0,0,1,.23,2A2.65,2.65,0,0,0,31,76.46,4.63,4.63,0,0,0,32,78.14c.81.71.63,1.59.67,2.45,0,.39-.24,1.07.65.71.09,0,.34.16.42.29.53.83.52.84.67.82.4,0,.88-.24,1.18-.08a1.4,1.4,0,0,1,.71,1c-.05.69,0,1.21.64,1.56.13.07.16.34.24.51a13.2,13.2,0,0,0,.62,1.32c.08.14.35.18.54.27a1.88,1.88,0,0,0-.19-.55c-.12-.19-.37-.3-.45-.5a1.38,1.38,0,0,1,0-.6,3.25,3.25,0,0,1,.46.22,1.37,1.37,0,0,1,.48,2,.9.9,0,0,0,0,.7c.21.48.52.9.74,1.37.38.83.65,1.7,1.09,2.49a2.88,2.88,0,0,1,.53,2.33c-.05.17.28.44.42.68a5.85,5.85,0,0,1,.63,1.18c0,.08-.51.32-.76.52a.46.46,0,0,0-.1.32c0,.76.24,1.65-.94,1.91-.2,0-.28.67-.41,1,.28-.06.56-.12.84-.16.09,0,.19.07.28.1a10.73,10.73,0,0,1-.93,1.18c-.08.07-.45-.15-.68-.26s-.37-.18-.55-.27a2.28,2.28,0,0,1-.1.52c-.11.28-.24.76-.4.77-.62.07-.65.2-.27.65.07.1-.13.56-.31.68a.79.79,0,0,1-.75,0c-.34-.36-.47-1.4-1.07-.18,0,.07-.29,0-.43,0a8.11,8.11,0,0,0-.78.28,2.89,2.89,0,0,1,.73.18.76.76,0,0,1,.33.37c-.25.32-.49.75-.83.88a9.28,9.28,0,0,1-1.76.33,1.64,1.64,0,0,0-.8.23c-.28.26-1.66-.85-.89.69,0,0-.13.13-.2.19s-.2-.17-.24-.28c-.18-.5-.34-.75-.92-.31a2.9,2.9,0,0,1-1.31.36c-.94.11-1.89.17-2.84.23-.53,0-1.09.07-1-.75,0-.12-.07-.35-.13-.36-.68-.08-1.37-.15-2.06-.17-.17,0-.34.21-.51.32.12.17.21.44.37.49s.61,0,.88.06.23.34.33.53a2.64,2.64,0,0,1-.56.11c-.69-.06-1.39-.12-2.08-.24-.25,0-.83-.15-.13-.53.06,0-.08-.43-.13-.66a2.11,2.11,0,0,1-.48.17c-.22,0-.58.11-.67,0-.9-1.14-2.25-.69-3.37-.95s-1.39-.33-1.17-1.53c0-.1-.1-.3-.18-.31a5.47,5.47,0,0,1-3.12-2,.67.67,0,0,0-.46-.22c-2,.11-2.36-1.93-3.56-2.85-.38-.3-.23-1.54,0-2.28s-.6-.87-.79-1.35a3.93,3.93,0,0,0-.85.49c-.16.15-.17.45-.24.68a4.73,4.73,0,0,1,.56-.35c.17-.07.48-.17.52-.11a1.16,1.16,0,0,1,.24.67c0,.11-.23.31-.37.33-1.27.21-1.45,0-1.2-1.28a2.16,2.16,0,0,0-.11-1c-.17-.61-.68-1.16-.13-1.86.1-.12-.2-.55-.31-.84a5.15,5.15,0,0,1-.2.7c-.07.16-.26.42-.33.4-.25-.07-.65-.21-.68-.38-.11-.71-.72-1.16-.61-2.12S2.6,87.08,2.11,86a5.11,5.11,0,0,1-.29-.63s.2-.17.31-.26a2.32,2.32,0,0,0,.32.65,4.25,4.25,0,0,0,.79.67s.28,0,.28-.07c0-.57,0-1.15,0-1.72a.26.26,0,0,0-.07-.19,4.18,4.18,0,0,1-1.31-3.13,8,8,0,0,0-.29-2.5C1.3,77.4.63,75.72,1.27,73.93a10.34,10.34,0,0,0,.26-2.64c0-.18.05-.47-.05-.53C.91,70.37.9,69.91,1,69.28c.05-.23-.36-.64-.64-.85C-.18,68,0,67.53.16,67c.29-1,.78-2.1.19-3.27A4.08,4.08,0,0,1,.2,62.06s.41-.1.45,0c.25.38.43.8.66,1.19a3.47,3.47,0,0,0,.4.46c.09-.15.24-.3.26-.46a1,1,0,0,0-.08-.64,3.76,3.76,0,0,1-.43-3.72c.15-.38-.09-.9-.12-1.36s0-1.07,0-1.61c0,0,.18-.07.28-.11,0,.15.12.31.16.47s.13.59.2.88c.19-.22.4-.44.58-.67s1-.49.6-1.26c-.26-.49-.4-.79-.9-.26-.11.13-.42.3-.45.27-.33-.33-.63-.7-.93-1.06l.67-.28c.13-.06.31-.07.37-.17.57-.81,1.14-1.61,1.66-2.45a3.33,3.33,0,0,0,.17-2.66,1,1,0,0,1,.11-.83,1.15,1.15,0,0,0,.21-1.57c0-.09.12-.3.19-.46a1.28,1.28,0,0,0,.24.35,2.79,2.79,0,0,0,.53.21,4.15,4.15,0,0,0,.3-1.05,6.09,6.09,0,0,0-.22-1c0-.13.15-.28.24-.42l.27.36c.14.2.26.42.42.61a.3.3,0,0,0,.3,0c.06-.06,0-.2,0-.31s0-.52,0-.78c.8.08.83-.49.77-1-.16-1.26,1.1-1.34,1.63-2,.15-.18.45-.26.59-.45s.07-.4.11-.6c-.21,0-.52-.08-.6,0-.34.47-.64.29-.78-.08-.06-.16.28-.66.41-.65.89.06,1.05-.49,1.27-1.17.08-.24.72-.26,1.06-.46a5.65,5.65,0,0,0,.85-.7c-.21-.11-.51-.16-.59-.33a2.53,2.53,0,0,1-.4-1.31c0-.28.56-.49.87-.72,0,0,.11,0,.16,0s0,.24,0,.3-.3.26-.38.41a4,4,0,0,0-.25.69c.19-.11.38-.22.56-.34a17.41,17.41,0,0,0,1.79-1.13c.62-.51,1.43-1,1.64-1.73a15.61,15.61,0,0,0,.68-2.11c.13-1,.27-1.52,1.28-1.82.45-.13,1-.17.65-1s.93-1.8,1.84-1.52a.84.84,0,0,0,.68-.17c.94-.82,1.88-1.66,2.76-2.54.3-.3,1-.68.12-1.16.23-.2.43-.53.69-.57,1.13-.2,1.37-.83,1.41-1.93,0-.5.9-1,1.39-1.47a4.32,4.32,0,0,0,.17.71,2.46,2.46,0,0,0,.32.53c1.05-.56,2.09-1.14,3.12-1.73a1.94,1.94,0,0,0,.32-.32,2,2,0,0,0-.52-.1c-.35.05-.69.16-1,.21a4,4,0,0,1-.6,0c.12-.19.2-.45.37-.55.81-.48,1.68-.86,2.46-1.39a4.88,4.88,0,0,0,1.34-1.34c.36-.58.45-.88,1.07-.14s.76-.12,1-.58.8-1.1,1.11-1.68A4.9,4.9,0,0,1,38,10.13a1.13,1.13,0,0,0,.75-.55c.47-1,.93-1.2,1.77-.76.09,0,.44-.16.49-.31.27-.81.38-.78,1.23-.47a2.45,2.45,0,0,0,1.56-.17c1.16-.46,2.28-1,3.43-1.53.08,0,.23.07.34.14s.34.22.52.34a9.07,9.07,0,0,0,.21-1c0-.21-.19-.58-.15-.6A1.91,1.91,0,0,1,49,5c.77,0,1.54,0,2.29,0a2.76,2.76,0,0,0,1.11-.58c.36-.27.6-.86,1.14-.19a1.42,1.42,0,0,0,.74-.35.9.9,0,0,1,1.22-.25,3,3,0,0,0,1.6,0c.16,0,.27-.38.4-.59a5.56,5.56,0,0,0-.7-.08,4.62,4.62,0,0,0-.63.11c0-.17,0-.41.05-.49a1.39,1.39,0,0,1,.67-.37c.55-.08,1.11-.09,1.67-.12.11,0,.31,0,.34.06a3.08,3.08,0,0,1,.14.6,3.62,3.62,0,0,0,.54-.57,2.78,2.78,0,0,1,2.52-.68c.8.27,1.63,1.48,2.56.16,0-.07.2-.06.3-.09s0-.14-.06-.15a1.49,1.49,0,0,0-.54-.14c-.26,0-.56.21-.77.13a3,3,0,0,1-.81-.6L63.84.53a1.66,1.66,0,0,1,.54,0c1,.17,1.94.34,2.89.57.14,0,.14.49.29.68a.67.67,0,0,0,.53.22c.6-.11,1.19-.27,1.78-.42-.07-.13-.12-.33-.23-.38a1,1,0,0,0-.62-.1c-.23,0-.44.24-.66.26s-.29-.2-.43-.31a6.23,6.23,0,0,1,1.28-1,1,1,0,0,1,.93.31c.26.73.67.48,1.2.45a17.89,17.89,0,0,1,2.83.14c.75.07,1.48.71,2.26,0,.13-.13.5,0,.77,0,.73,0,1.45,0,2.18,0a4.55,4.55,0,0,1,.74.11c-.18.19-.35.38-.54.56s-.24.18-.36.27c.07.06.14.16.22.18,1.81.32,3.6.85,5.48.13a1.7,1.7,0,0,1,1.42.62c.83,1.12,2,1,3.12,1.06.26,0,.59-.06.75.07.71.58,1.19.56,1.6-.33.18-.39.45-.37,1-.17.84.32,1.53,1.24,2.61.9.05,0,.15.15.23.23l.47.39a2.61,2.61,0,0,1-.14-.55A1.89,1.89,0,0,1,96,3.85l.46.2c.61.3,1.23.53.64,1.44-.28.44.41.77,1.26.5a5.72,5.72,0,0,1,3.28.1,2.27,2.27,0,0,1,.47.23c1,.58,2.07,1.17,3.12,1.74.1,0,.31-.06.46-.13a1.07,1.07,0,0,1,1.5.62,2.19,2.19,0,0,0,2.21,1.83,5.55,5.55,0,0,1,1.7.26c.35.14.8.63.79.95,0,1.14.45,1.65,1.59,1.42.52-.11.42-.09.51.42.14.83.91,1.09,1.58,1.2a7.16,7.16,0,0,0,1.82-.18,2.57,2.57,0,0,1,.83,0c.17,0,.31.22.47.34a2.67,2.67,0,0,1-.63.23c-.55.05-1.1.05-1.65.1-.07,0-.21.27-.17.32.19.28.43.77.65.76.86,0,1.15.46,1.38,1.14a1,1,0,0,0,.51.47,3.86,3.86,0,0,0,.78.18l-.44-.55a2.92,2.92,0,0,1-.39-.4,4,4,0,0,1-.25-.69,3.48,3.48,0,0,1,.56.34c.89.82,1.78,1.65,2.65,2.49a.91.91,0,0,1,.17.34c-.43,0-.87.08-1.31.08,0,0,0-.32-.08-.49s-.15-.52-.23-.77c-.18.06-.43.07-.53.2s-.37.64-.29.73a4.39,4.39,0,0,0,1.26,1c.5.23,1.21.08,1.3.9,0,0,.4.08.44,0a3.6,3.6,0,0,0,.35-.84M108.46,151.74a3,3,0,0,0,.47-.48,8.77,8.77,0,0,0,.45-.86,2.65,2.65,0,0,0-.9.47c-.16.19-.1.57-.24.87l-.3.84c.08,0,.21-.05.23-.1a2.64,2.64,0,0,1,.29-.74M76.17,2c.16.5.33.87,1,.47A7.73,7.73,0,0,1,78.53,2a1.67,1.67,0,0,0,.24-.16c-.08-.1-.17-.28-.23-.28A19.77,19.77,0,0,0,76.17,2m32.63,9.6-.15-.3c.07.36,0,.84.24,1.06a2.18,2.18,0,0,0,1.13.43c.2,0,.45-.09.68-.15-.11-.16-.17-.4-.31-.46-.48-.19-1-.32-1.59-.58m4.74,133.91c-.38.34-.78.67-1.15,1a2.22,2.22,0,0,0-.27.48c.23.05.57.2.67.11a17,17,0,0,0,1.36-1.57c.06-.07,0-.25,0-.37a3.7,3.7,0,0,0-.58.32M11.25,37.59,9.76,39.07c.09.07.23.22.27.2.6-.35,1.18-.73,1.76-1.1l-.54-.58M92.88,5c.16.07.33.23.46.21a3.65,3.65,0,0,0,.77-.31,3.91,3.91,0,0,0-.76-.54A6.74,6.74,0,0,0,92.27,4a1.65,1.65,0,0,0,.09.51c.08.14.27.23.52.46M104,9.25a6.48,6.48,0,0,0,.85.38c.1,0,.26-.09.39-.14l-.76-.92c-.24.23-.47.45-.48.68M70.07,162.13c-.47.39-.95.77-1.39,1.2-.09.09,0,.39,0,.59.18,0,.45,0,.52-.06a6.34,6.34,0,0,0,.85-1.73M98.53,126c-.34.42-.7.83-1,1.27-.08.1,0,.34.08.51,0,0,.26,0,.28,0a7.11,7.11,0,0,0,.64-1.75m-5.65,52.16.12.91a9,9,0,0,0,.65-1.12c.07-.19-.08-.46-.13-.69-.18.26-.35.53-.64.9M18.7,26.52a2.26,2.26,0,0,0,0,.45c.07.27.18.53.26.8l.81-.74c-.24-.13-.48-.25-.72-.4a.43.43,0,0,0-.35-.11m50.36,138c-.15.35-.31.7-.44,1.06l.42.18a8,8,0,0,0,.23-.84c0-.08-.06-.19-.21-.4M112.64,48l.1.55c.19-.25.58-.54.53-.72s-.43-.57-.67-.85c0,.26,0,.53,0,1m21-13.55a3.28,3.28,0,0,0,0,.77c0,.16.24.29.36.43.1-.11.29-.25.26-.31-.18-.5-.41-1-.63-1.46-.07.13-.14.25-.2.38l.19.19m-5.08,94.28c-.13.2-.26.4-.38.61s-.18.36-.27.54c.16,0,.37,0,.46,0a1.75,1.75,0,0,0,.44-.63c0-.08-.09-.24-.25-.48M144.93,74l-.86-.5,0,1a1.73,1.73,0,0,0,.84-.51M84.64,3.26l.9.12V2.8a1.74,1.74,0,0,0-.89.46M64.54,28.78,63.41,29l.09.3a2.43,2.43,0,0,0,1-.54m57.81,43.59-.28-.34c-.13.3-.28.6-.38.91,0,0,.25.14.38.22a2.75,2.75,0,0,0,.28-.79m21.23-2-.18-.11c-.07.44-.14.88-.19,1.32,0,.07.15.15.22.23l.15-1c0-.07,0-.15,0-.45M5.94,45.61a3.92,3.92,0,0,0-.1.83c0,.18.2.35.31.52a3.5,3.5,0,0,0,.12-.63.92.92,0,0,0-.33-.72m-1.13,42c0-.41-.07-.81-.12-1.21,0-.06-.17-.14-.25-.13s-.2.14-.18.2a2.4,2.4,0,0,0,.55,1.14M96.16,5.3,96,6.06l.68-.18a1.38,1.38,0,0,0-.54-.58M115.8,143.73l-.74-.57-.15.35a2.12,2.12,0,0,0,.89.22M24.23,22.57c.15,0,.34.06.44,0a2,2,0,0,0,.35-.49l-.8-.16a1.23,1.23,0,0,0,0,.66m13.32-12a8.22,8.22,0,0,0,.49.67s.2-.11.3-.18a1.87,1.87,0,0,0-.79-.49M67.7,166.53l.48.57.2-.74a2,2,0,0,0-.68.17M2.89,76l-.72-.41L2,75.94a1.22,1.22,0,0,0,.9,0M79.11,29.12l.56-.16c-.11-.1-.2-.24-.33-.28a4.79,4.79,0,0,0-.75-.17,1.18,1.18,0,0,0,.52.61m-76.67,46-.63-.73-.24.31a2.08,2.08,0,0,0,.87.42M121.22,90.43l.46.44.34-.54a2.26,2.26,0,0,0-.8.1m-35.11,48c0,.33-.11.65-.14,1l.22.07a1.73,1.73,0,0,0-.08-1.05M93.45,34.2l.69.21a1.7,1.7,0,0,0,0-.38.76.76,0,0,0-.7.17M28.63,73.5l.68-.38c-.14-.06-.33-.22-.42-.17a.6.6,0,0,0-.26.55m84.69-59.62-.68-.21.67.77a.94.94,0,0,0,0-.56m-7.45,25.06.82.31.08-.29a1.17,1.17,0,0,0-.9,0m-66.4,1.59-.53-.15-.07.67a1.27,1.27,0,0,0,.6-.52M144.71,83.21l-.31-.77-.32.26a1.39,1.39,0,0,0,.63.51M122.92,24.83l.38.16c.18.08.36.18.54.27,0-.06.1-.16.09-.17a1.76,1.76,0,0,0-.53-.43.44.44,0,0,0-.48.17M38.57,92.46l.46.22.2-.68c-.18.12-.36.23-.66.46M92.77,132l.38.52.28-.53a1.23,1.23,0,0,0-.66,0m-8.36,9.26.15.79.29-.09a1.53,1.53,0,0,0-.44-.7M3.79,82.75l-.52-.33c0,.09,0,.22,0,.27.18.22.39.42.6.63a1.29,1.29,0,0,0-.11-.57M66,183.58l-.47-.43.2.85a.56.56,0,0,0,.27-.42M30.67,56.11l.07.52.51-.62a1.27,1.27,0,0,0-.58.1M40.6,10,40,9.72l-.09.5A2.41,2.41,0,0,0,40.6,10M81.14,3.83c.25,0,.49.11.74.15a1,1,0,0,0,.05-.18,5,5,0,0,0-.63-.19c-.08,0-.18.07-.16.22M49.07,6.31l.54.14,0-.53a.92.92,0,0,0-.51.39M58.33,3.6,58,4h.82a1,1,0,0,0-.53-.38m-40,99.82-.52.38.54.28a1.36,1.36,0,0,0,0-.66m64-74.86-.6.15.23.38a1,1,0,0,0,.37-.53m60.86,34.89.16.83.31-.17a6.81,6.81,0,0,0-.47-.66m-141-5.54.51.34.17-.33a.71.71,0,0,0-.68,0M28.63,19.52l-.48-.34-.19.31a1.2,1.2,0,0,0,.67,0m-14,14.68-.28-.34-.17.45a.36.36,0,0,0,.45-.11m119.92,2.49-.15-.57-.31.2a.78.78,0,0,0,.46.37m-22.14,72.49.68,0V109a.79.79,0,0,0-.68.22m-6,43.92.25.43L107,153a1.08,1.08,0,0,0-.56.1m30-113.59c0,.22,0,.45,0,.68h.2a.78.78,0,0,0-.22-.68m4.75,63.91c0,.22,0,.45,0,.67h.2a.79.79,0,0,0-.21-.67M41.84,10.15l-.11-.45-.45.17a1.18,1.18,0,0,0,.56.28M28,68.53h-.68v.2a.81.81,0,0,0,.68-.21m36.92,126.8.24.43.32-.54a1.23,1.23,0,0,0-.56.11m1.35,7.45-.36-.45-.2.2a.89.89,0,0,0,.56.25m22.36-3.61.22-.46-.3-.14a.58.58,0,0,0,.08.6m-23.26,1.12-.34,0,.48.49a1,1,0,0,0-.14-.46M28.75,74.74l.32-.36-.38-.26a1.19,1.19,0,0,0,.06.62M22.31,24.49l.36.32.26-.37a1.27,1.27,0,0,0-.62,0m68.31,167.9.24.44.31-.31a.8.8,0,0,0-.55-.13M41.73,8.68l.06.51.37-.26a.56.56,0,0,0-.43-.25M5.6,49.11l-.26-.34-.15.6a2.19,2.19,0,0,0,.41-.26M91.19,187.76l.26.34.15-.6a2.19,2.19,0,0,0-.41.26M87.35,4.85l-.68-.2,0,.44a2.58,2.58,0,0,0,.66-.24m-22.13,177,.26.34.15-.6a2.19,2.19,0,0,0-.41.26M106.43,8.8l-.56.14.08.28a.87.87,0,0,0,.48-.42M85.2,4.05a.51.51,0,0,0,.07-.15s-.07-.07-.08-.07l-.71.41a2.33,2.33,0,0,0,.72-.19M36.2,44.7s-.06,0-.07.08a.23.23,0,0,0,0,.07,3.88,3.88,0,0,0,.59,0,1,1,0,0,0,0-.28,1.26,1.26,0,0,0-.55.12m68.65,112.46-.32.36.38.26a1.44,1.44,0,0,0-.06-.62M26.26,21,26,20.55l-.31.31a.82.82,0,0,0,.55.13m64.25,10.5a5.11,5.11,0,0,0,.48.33s.1-.1.15-.15A1,1,0,0,0,90.51,31.49Z"/><path class="cls-1" d="M83.79,251.33c-.42-.46-.77-.64-1.23-.09a1,1,0,0,1-.65.3c-.5,0-1-.06-.4.68.09.1-.21.76-.47.89-.94.48-2-.06-3,.24-1.24.38-2.5.67-3.76,1a1.5,1.5,0,0,1-.62-.07c-.23-.05-.47-.2-.68-.16s-.55.39-.7.32c-.7-.3-1.7-.55-2-1.11-.62-1.37-.8,0-1.23.06s.57-1.41-.65-.5a.69.69,0,0,1-1-.86c0-.09-.15-.23-.23-.35l-.21.17c-.15.14-.34.42-.43.39a3.73,3.73,0,0,1-1.13-.56c-.22-.17-.24-.62-.46-.75-.92-.53-1.81-1-1.85-2.29,0-.18-.55-.31-.82-.51-.64-.48-1.7-.79-.74-1.91a1,1,0,0,0,.11-.73,1.92,1.92,0,0,0-.33-.78c-.08-.1-.33-.09-.51-.12a5.51,5.51,0,0,1,.06.71,3.41,3.41,0,0,1,0,1,3,3,0,0,1-.55.76,3.23,3.23,0,0,1-.33-.64,12.22,12.22,0,0,0-1.46-4,2.36,2.36,0,0,1,0-2.25c.71-.74-1.47-1.16,0-1.87.68-.32.11-1.45-.1-2.22-.06-.21.21-.5.27-.77.14-.71.27-1.42.34-2.14,0-.11-.38-.24-.59-.37a6.11,6.11,0,0,0-.27.58,4.9,4.9,0,0,0-.13.55c0-.19-.07-.37-.11-.56s-.26-.56-.2-.8c.12-.55.12-1.32,1.08-1a.33.33,0,0,0,.24-.06c.19-1,1.21-1.08,1.83-1.57.22-.17.8.24,1-.29.09-.2.15-.42.22-.63a1.58,1.58,0,0,1-.49.2,11.11,11.11,0,0,1-1.15,0,4,4,0,0,1,.64-.77c.43-.3,1-.47,1.36-.78s1-.54.63-1.32c-.08-.17.56-.67.88-1,0,0,.23,0,.24.05s0,.27,0,.32a1,1,0,0,0,.46.25c.4.06.81.09,1.22.11.1,0,.28,0,.29-.05.38-1.38,1.53-.91,2.44-1.11.54-.12.13-.47-.07-.69l-.47-.54a3,3,0,0,1,.79-.29c1.1-.1,2.23-.1,3.32-.26.83-.12,1.74-.79,2.41-.58,1.41.46,2.59-.42,3.89-.29.34,0,1.05-.26.64.61,0,.09.14.4.26.43a4.19,4.19,0,0,0,1.93.26c1.45-.53,2.1.56,3,1.21.59.44,1.29.77,1.38,1.65,0,.13.32.28.52.34a8,8,0,0,0,1,.16l-.64-.72c-.16-.19-.39-.39-.43-.61-.16-.79-.79-1.07-1.38-1.43a2.69,2.69,0,0,1-.43-.46c.25,0,.6-.18.73-.07a19,19,0,0,1,1.51,1.47c.08.09.12.27.21.3,1.33.5,1,1.61.94,2.59,0,.13,0,.33.13.38.79.39.7,1.53,1.58,1.85.14.05.19.34.28.52l-.55-.14a2.71,2.71,0,0,0-.4,0A1.63,1.63,0,0,0,89,231a14.89,14.89,0,0,1,1.23,1.42c.15.25.09.93,0,1-1.19.48-.46,1.22-.2,1.73.65,1.22.35,2.46.27,3.7,0,.3-.13.71,0,.88,1,1.23-.58,2-.48,3.08,0,.06-.19.13-.29.21,0-.09-.13-.17-.14-.26s0-.43,0-.65c-.1.31-.34.66-.27.93a4.6,4.6,0,0,1-1,3.6.6.6,0,0,1-.44.17c-.88-1.06-.87.18-1,.45-.6,1.63-2,2.7-2.91,4.11m-10.33,1.81c-.59-.23-1.14-.86-1.84-.23a2.15,2.15,0,0,1-.24.18,5.09,5.09,0,0,0,1.38.65c.28,0,.62-.39.7-.6M59.68,231.46a7,7,0,0,1,0,.92c0,.36-.16.71-.24,1.07a7,7,0,0,0,.69-.86,3.23,3.23,0,0,0,.36-1,3.34,3.34,0,0,0,0-.71c-.23.15-.46.29-.81.55m5.65,18.74-.34,0c.05.16.06.43.15.46a6.47,6.47,0,0,0,1.22.33s.18-.22.19-.34-.19-.14-.3-.19a4.45,4.45,0,0,0-.92-.23m14.11,1.92.4.51.26-.76a2.69,2.69,0,0,0-.66.25M60,242.64c-.14-.19-.27-.38-.43-.56a1.26,1.26,0,0,0-.22.13,1.36,1.36,0,0,0,.65.43m.34-1.47.29-.62c-.13,0-.34,0-.36,0a.79.79,0,0,0,.07.58M65,227.05h.68v-.2a.81.81,0,0,0-.68.21m10.84-3.16-.48-.34-.2.31a1.25,1.25,0,0,0,.68,0m5.87,26.2.15-.3-.6.15A.53.53,0,0,0,81.7,250.09Z"/><path class="cls-1" d="M119.13,141.52a3.49,3.49,0,0,1-.84-.15c.17-.23.4-.68.51-.66a1.75,1.75,0,0,0,1.74-.58.58.58,0,0,1,.38-.08s.08.19.07.29A1.8,1.8,0,0,1,119.13,141.52Z"/><path class="cls-1" d="M69,253.36c-.54.55-1.08,1.55-1.89.21-.06-.1-.24-.14-.36-.21l-.63-.33a3.85,3.85,0,0,1,1-.12C67.73,253,68.34,253.21,69,253.36Z"/><path class="cls-1" d="M116.65,56.5c.53.51,1.11.93.72,1.71-.09.2-.32.33-.48.49a2,2,0,0,1-.4-.58c-.14-.54-.23-1.1-.32-1.65,0-.08,0-.17.07-.25Z"/><path class="cls-1" d="M64.71,191.94a1.88,1.88,0,0,1,0,.78c0,.07-.29.12-.44.11s-.28-.19-.37-.16c-.52.21-.53.22-.52-.3a8.14,8.14,0,0,1,.08-.85A2.32,2.32,0,0,0,64,192C64.21,192.05,64.45,192,64.71,191.94Z"/><path class="cls-1" d="M83.68,251.33c.66.9-.09,1.23-.66,1.56-.2.11-.56,0-.85-.07a3.37,3.37,0,0,0,.57-.39C83.05,252.08,83.33,251.7,83.68,251.33Z"/><path class="cls-1" d="M69.28,29.8a1.79,1.79,0,0,1,.45.54l-.52-.05c-.1,0-.21,0-.31,0l-1.2-.2c.34-.1.68-.21,1-.29A3.4,3.4,0,0,1,69.28,29.8Z"/><path class="cls-1" d="M95.76,127.18a2,2,0,0,0,.38-.58c.07-.24,0-.53.1-.77,0-.06.33,0,.5,0a3,3,0,0,1-.15.86,6.75,6.75,0,0,1-.61.93A1,1,0,0,1,95.76,127.18Z"/><path class="cls-1" d="M34,11.56c.7.77-.45.75-.42,1.21-.14-.1-.39-.19-.41-.3C33.08,11.9,33.18,11.42,34,11.56Z"/><path class="cls-1" d="M21,24c-.18.27-.3.48-.45.67a.32.32,0,0,1-.3,0,.31.31,0,0,1-.08-.3,2.41,2.41,0,0,1,.47-.69,8.69,8.69,0,0,1,.92-.62C21.4,23.36,21.24,23.64,21,24Z"/><path class="cls-1" d="M27.28,17.6c.06-.3.12-.49.17-.67.15.09.44.2.43.28a4.87,4.87,0,0,1-.28,1.06c0,.06-.24.05-.38.07C27.24,18.13,27.26,17.92,27.28,17.6Z"/><path class="cls-1" d="M110.66,108.22a6.62,6.62,0,0,1,.74-.28,9.69,9.69,0,0,1-.13,1.22c0,.14-.26.24-.39.35-.09-.11-.24-.22-.26-.35A3.39,3.39,0,0,1,110.66,108.22Z"/><path class="cls-1" d="M13.56,32.23a3.82,3.82,0,0,1,.45-.85c.16.14.42.26.46.43a1.81,1.81,0,0,1-.16.68A7.58,7.58,0,0,1,13.56,32.23Z"/><path class="cls-1" d="M78.48,31c-.73.58-1.3.41-1.51-.42,0-.07.14-.24.16-.24C77.57,30.51,78,30.72,78.48,31Z"/><path class="cls-1" d="M124.55,135.26a3.81,3.81,0,0,1-.57.94c-.12.13-.38.13-.58.19a1.31,1.31,0,0,1,0-.44.85.85,0,0,1,.33-.45A3,3,0,0,1,124.55,135.26Z"/><path class="cls-1" d="M85.09,31.61a2.8,2.8,0,0,1,.68-.52l-.06,1.14A3.29,3.29,0,0,1,85.09,31.61Z"/><path class="cls-1" d="M101.8,168.68a2.53,2.53,0,0,1-.76.45c0-.12-.14-.26-.11-.36.14-.39.31-.77.47-1.16a1.28,1.28,0,0,1,.17.26A4.51,4.51,0,0,1,101.8,168.68Z"/><path class="cls-1" d="M108.12,44.25c-.4.72-.47.07-.62-.08a2.76,2.76,0,0,1-.37-.6c.19-.07.51-.26.55-.2A2.49,2.49,0,0,1,108.12,44.25Z"/><path class="cls-1" d="M35.8,10.1a6.34,6.34,0,0,1-.81.2l.54-.61.08-.07.7-.49C36.16,9.43,36,9.74,35.8,10.1Z"/><path class="cls-1" d="M94.86,36a.43.43,0,0,1,.27-.05l1,.25-.19.42A6,6,0,0,1,94.86,36Z"/><path class="cls-1" d="M107.22,158.07a1.2,1.2,0,0,1-.22-.62c0-.32-.08-.64-.12-1,.08,0,.21,0,.22,0a8.25,8.25,0,0,1,.33,1.07A.62.62,0,0,1,107.22,158.07Z"/><path class="cls-1" d="M74.53,210.85a5.15,5.15,0,0,1-.25-.76l.75.13A2.57,2.57,0,0,1,74.53,210.85Z"/><path class="cls-1" d="M75.83,254.94c.15.15.24.42.2.44a5.91,5.91,0,0,1-.74.27A3,3,0,0,1,75.83,254.94Z"/><path class="cls-1" d="M120.6,16.19a1.53,1.53,0,0,1-.07.51c-.15-.06-.34-.09-.42-.2s0-.29,0-.44,0-.47-.07-.71c.12.21.24.42.37.63A2,2,0,0,0,120.6,16.19Z"/><path class="cls-1" d="M142.67,59.38a2,2,0,0,1,.71-.31c0,.11.11.25.07.31-.18.24-.4.46-.6.68A5.79,5.79,0,0,1,142.67,59.38Z"/><path class="cls-1" d="M73.63,152c.29-.21.51-.36.74-.5,0,.15,0,.37,0,.44a9.88,9.88,0,0,1-.91.64A3.35,3.35,0,0,1,73.63,152Z"/><path class="cls-1" d="M44.72,38.77a2.85,2.85,0,0,1-.06.74L44,39.19A3.32,3.32,0,0,1,44.72,38.77Z"/><path class="cls-1" d="M84.92,206.34a1.89,1.89,0,0,1,.72-.4,3,3,0,0,1,.25.44A5.46,5.46,0,0,1,84.92,206.34Z"/><path class="cls-1" d="M115.86,55.15a3.09,3.09,0,0,1-.5-.77,3.53,3.53,0,0,1,.3-.19A4.52,4.52,0,0,1,115.86,55.15Z"/><path class="cls-1" d="M42.24,98.39c-.06-.09-.07-.13-.05-.17.13-.3.27-.6.41-.9l.26.15A5.92,5.92,0,0,1,42.24,98.39Z"/><path class="cls-1" d="M145.22,96.25a2.24,2.24,0,0,1-.44.13c.13-.33.26-.66.41-1a1.08,1.08,0,0,1,.28.11A4.38,4.38,0,0,1,145.22,96.25Z"/><path class="cls-1" d="M93.67,182a2.92,2.92,0,0,1,.68-.54l-.16.81A1.13,1.13,0,0,1,93.67,182Z"/><path class="cls-1" d="M90.79,234a7.14,7.14,0,0,1,.68-.34l0,.53A2.55,2.55,0,0,1,90.79,234Z"/><path class="cls-1" d="M133.87,30.19c0,.06-.08.07-.11.06l-.8-.42.15-.26A8.28,8.28,0,0,1,133.87,30.19Z"/><path class="cls-1" d="M145.55,86.08a1.22,1.22,0,0,1,.2-.48,4.4,4.4,0,0,1,.29.76c0,.1-.16.23-.26.35A4.17,4.17,0,0,0,145.55,86.08Z"/><path class="cls-1" d="M4.53,41.94a4.12,4.12,0,0,1,0-1,.34.34,0,0,1,.28-.08.28.28,0,0,1,.13.25A2.87,2.87,0,0,1,4.53,41.94Z"/><path class="cls-1" d="M65,173.65a.21.21,0,0,1,.24-.1c.29,0,.57.12.86.18-.06.08-.13.23-.17.22A2.41,2.41,0,0,1,65,173.65Z"/><path class="cls-1" d="M77.64,210.46c-.42-.77.23-.36.45-.44s.28.08.42.13A7.65,7.65,0,0,1,77.64,210.46Z"/><path class="cls-1" d="M118.29,142.94a.89.89,0,0,1-.46-.22l.6-.43A4.42,4.42,0,0,0,118.29,142.94Z"/><path class="cls-1" d="M120.6,68a7.33,7.33,0,0,0-.23.85c-.09-.08-.28-.21-.26-.24.16-.3.35-.6.53-.89l.08.06A.54.54,0,0,1,120.6,68Z"/><path class="cls-1" d="M59.85,31.44a3,3,0,0,1-.71-.19l.54-.32A1.46,1.46,0,0,1,59.85,31.44Z"/><path class="cls-1" d="M105,41.25a1.19,1.19,0,0,1-.31-.48h.62A1.09,1.09,0,0,1,105,41.25Z"/><path class="cls-1" d="M147,75.87a3,3,0,0,1,.37-.64,2.43,2.43,0,0,1,.21.36A1.08,1.08,0,0,1,147,75.87Z"/><path class="cls-1" d="M145.67,87.67a2.91,2.91,0,0,1,.37.75l-.28.09A3.61,3.61,0,0,1,145.67,87.67Z"/><path class="cls-1" d="M119,93.31a3.3,3.3,0,0,1,.38.75l-.29.1A3.76,3.76,0,0,1,119,93.31Z"/><path class="cls-1" d="M66.18,224.74a2.63,2.63,0,0,1-.67-.1l.26-.39A1.78,1.78,0,0,1,66.18,224.74Z"/><path class="cls-1" d="M134.94,121.54a6,6,0,0,1-.08,1.07l-.29-.08A5.5,5.5,0,0,1,134.94,121.54Z"/><path class="cls-1" d="M54.89,1.63a2,2,0,0,1,.62.22l-.58.39A2,2,0,0,1,54.89,1.63Z"/><path class="cls-1" d="M62.11,197.42a1.63,1.63,0,0,1,.57.34l-.45.28A2,2,0,0,1,62.11,197.42Z"/><path class="cls-1" d="M120.54,86.93a1.15,1.15,0,0,1,.61,0l-.24.38A1.44,1.44,0,0,1,120.54,86.93Z"/><path class="cls-1" d="M119.36,94.67a2.75,2.75,0,0,1-.57.56c0-.14-.1-.37,0-.41A1.1,1.1,0,0,1,119.36,94.67Z"/><path class="cls-1" d="M114.05,104l.14.13-.78.58c.15-.28.29-.56.43-.84h.08S114,104,114.05,104Z"/><path class="cls-1" d="M89,2.42c-.13-.21-.2-.37-.28-.52l.55.11A1.09,1.09,0,0,1,89,2.42Z"/><path class="cls-1" d="M73.35,221.52a1.5,1.5,0,0,1,.11-.68l.34.17A1.87,1.87,0,0,1,73.35,221.52Z"/><path class="cls-1" d="M122.8,20.26a3.26,3.26,0,0,1-.67-.38,2.08,2.08,0,0,1,.14-.24A4.87,4.87,0,0,1,122.8,20.26Z"/><path class="cls-1" d="M88.2,135a.91.91,0,0,1-.17-.5s.23-.06.36-.1A4.44,4.44,0,0,1,88.2,135Z"/><path class="cls-1" d="M89.15,134.58a1.76,1.76,0,0,1-.45-.28l.45-.17A.59.59,0,0,1,89.15,134.58Z"/><path class="cls-1" d="M81.93,1.34a1.29,1.29,0,0,1-.45-.28l.44-.17A.63.63,0,0,1,81.93,1.34Z"/><path class="cls-1" d="M132.34,127a1.77,1.77,0,0,1,.35.56c-.13,0-.34,0-.37,0A.85.85,0,0,1,132.34,127Z"/><path class="cls-1" d="M126.47,23.19a1.07,1.07,0,0,1,.32-.35l.21.39A1.7,1.7,0,0,1,126.47,23.19Z"/><path class="cls-1" d="M34.51,13.26a4.28,4.28,0,0,1-.81.27c0-.08,0-.22,0-.23A2.48,2.48,0,0,1,34.51,13.26Z"/><path class="cls-1" d="M143.58,103.19a1.46,1.46,0,0,1-.45-.28l.44-.17A.63.63,0,0,1,143.58,103.19Z"/><path class="cls-1" d="M57.71,240.55a5.26,5.26,0,0,1,.27.74c-.08,0-.22,0-.23,0A2.54,2.54,0,0,1,57.71,240.55Z"/><path class="cls-1" d="M121.45,81.29a1.36,1.36,0,0,1-.1-.68h.2A1.36,1.36,0,0,1,121.45,81.29Z"/><path class="cls-1" d="M36.31,48.09a.63.63,0,0,1,.45,0l-.17.44A1.68,1.68,0,0,1,36.31,48.09Z"/><path class="cls-1" d="M121.28,77.28a3.16,3.16,0,0,1,.59-.2c0,.13-.07.37-.1.36A.8.8,0,0,1,121.28,77.28Z"/><path class="cls-1" d="M87.35,224.23a1.33,1.33,0,0,1,.68-.1v.2A1.33,1.33,0,0,1,87.35,224.23Z"/><path class="cls-1" d="M30.21,68a1.22,1.22,0,0,1-.45.34L29.62,68A1.19,1.19,0,0,1,30.21,68Z"/><path class="cls-1" d="M72.22,208.93a2.71,2.71,0,0,1,.68.09l-.2.31A3.39,3.39,0,0,1,72.22,208.93Z"/><path class="cls-1" d="M65.73,205.32a1.7,1.7,0,0,1,.36.54l-.28.08A2,2,0,0,1,65.73,205.32Z"/><path class="cls-1" d="M63.58,190.19a2,2,0,0,1-.07-.5c.1,0,.28,0,.28.05a3.75,3.75,0,0,1,0,.58.16.16,0,0,1-.07,0A1.43,1.43,0,0,1,63.58,190.19Z"/><path class="cls-1" d="M33,54.13a1.19,1.19,0,0,1-.18.49l-.31-.31A1.19,1.19,0,0,1,33,54.13Z"/><path class="cls-1" d="M93.5,184a1.19,1.19,0,0,1-.18.49l-.31-.31A1.19,1.19,0,0,1,93.5,184Z"/><path class="cls-1" d="M89.1,227.45a3.76,3.76,0,0,1,.27.52,4.34,4.34,0,0,1-.46-.28S89,227.5,89.1,227.45Z"/><path class="cls-1" d="M145.78,80.78a1.19,1.19,0,0,1,.49.18l-.31.31A1.19,1.19,0,0,1,145.78,80.78Z"/><path class="cls-1" d="M41.45,91.05a1.81,1.81,0,0,1,0,.57l-.38-.27A1.13,1.13,0,0,1,41.45,91.05Z"/><path class="cls-1" d="M66.12,166.65a1.83,1.83,0,0,1,.6.42A2.19,2.19,0,0,1,66.12,166.65Z"/><path class="cls-1" d="M142.17,111.94a1.13,1.13,0,0,1-.39-.42s.1-.1.15-.15A1.63,1.63,0,0,1,142.17,111.94Z"/><path class="cls-1" d="M135.45,34.09a.41.41,0,0,1,.44,0c.05,0,0,.26-.06.39A1.34,1.34,0,0,1,135.45,34.09Z"/><path class="cls-1" d="M133.87,30.31a1.27,1.27,0,0,1,.44.31s-.05.18-.07.28A4.61,4.61,0,0,1,133.87,30.31Z"/><path class="cls-1" d="M124.21,21.27a1,1,0,0,1,.27.41l-.31.12A2.07,2.07,0,0,1,124.21,21.27Z"/></g></g></g></svg>