<svg width="78" height="65" viewBox="0 0 78 65" fill="none" xmlns="http://www.w3.org/2000/svg">
<path d="M4.5305 53.771C3.6335 53.771 2.5805 53.771 1.6965 53.68C1.7225 54.161 1.7745 54.616 1.8525 55.071C1.8785 55.227 1.9175 55.305 2.0865 55.305C2.7885 55.24 3.7505 55.214 4.5045 55.214L9.9775 55.188C9.0155 56.306 8.0665 57.307 6.9745 58.256C6.4285 57.749 5.8045 57.294 5.1285 56.8C5.0505 56.748 4.9985 56.709 4.9465 56.709C4.9075 56.709 4.8555 56.735 4.8035 56.774C4.5695 56.982 4.1275 57.398 3.8675 57.645C5.4665 58.789 6.7795 60.063 8.0405 61.688C8.0925 61.766 8.1445 61.805 8.1965 61.805C8.2485 61.805 8.3005 61.779 8.3655 61.74C8.6645 61.506 8.9505 61.233 9.2105 60.973C9.2885 60.895 9.3275 60.83 9.3275 60.765C9.3275 60.7 9.3015 60.648 9.2365 60.57C8.8595 60.089 8.5085 59.686 8.0925 59.27C9.2625 58.23 10.4715 57.021 11.5895 55.786C11.7585 55.604 11.9405 55.487 12.2135 55.292C12.3305 55.214 12.3825 55.123 12.3825 55.019C12.3825 54.928 12.3435 54.837 12.2785 54.733C11.9925 54.33 11.6935 54.005 11.3425 53.693C11.2775 53.628 11.1995 53.589 11.1215 53.589C11.0695 53.589 11.0045 53.615 10.9395 53.654C10.7705 53.732 10.6145 53.771 9.8605 53.771H4.5305ZM15.6715 55.877C16.1915 56.501 16.5945 57.216 16.8935 57.97C16.9585 58.152 17.0365 58.217 17.2185 58.152C17.5175 58.035 17.7385 57.931 18.0505 57.749C18.1545 57.684 18.2065 57.645 18.2065 57.567C18.2065 57.515 18.1805 57.463 18.1545 57.372C17.9075 56.683 17.4915 56.02 17.0365 55.448C16.9325 55.305 16.8415 55.292 16.6985 55.357C16.4255 55.487 16.1135 55.63 15.6715 55.877ZM18.2845 55.214C18.7785 55.903 19.0775 56.527 19.3765 57.294C19.4415 57.476 19.4935 57.541 19.6365 57.489C20.0005 57.359 20.2865 57.229 20.5335 57.086C20.7025 56.995 20.7285 56.93 20.6635 56.735C20.4555 56.111 20.0135 55.292 19.6625 54.837C19.5585 54.681 19.4675 54.668 19.3245 54.733C19.1035 54.824 18.8045 54.967 18.2845 55.214ZM22.3795 54.902C22.3275 55.513 22.2495 55.799 22.0805 56.28C21.7035 57.294 20.9755 58.568 20.3255 59.413C19.5455 60.427 18.7655 61.09 17.2055 62.117C17.6865 62.26 17.9855 62.403 18.3105 62.663C18.3755 62.728 18.4535 62.754 18.5185 62.754C18.6225 62.754 18.7265 62.689 18.8305 62.611C19.9355 61.883 20.6505 61.194 21.5085 60.102C22.2365 59.153 22.9125 57.97 23.4715 56.644C23.5755 56.41 23.6665 56.15 23.8615 55.981C23.9655 55.89 24.0045 55.825 24.0045 55.747C24.0045 55.669 23.9395 55.604 23.8355 55.526C23.5105 55.305 22.9255 55.071 22.3795 54.902ZM34.7555 54.603C34.2355 56.046 33.5725 57.151 32.5585 58.308C31.3625 59.699 30.2055 60.596 28.3075 61.558C28.7885 61.753 29.2175 61.987 29.5165 62.273C29.6205 62.377 29.7375 62.416 29.8415 62.416C29.9585 62.416 30.0755 62.377 30.1925 62.299C31.5055 61.558 32.7665 60.479 33.8845 59.205C34.9765 57.944 35.7695 56.514 36.4065 54.98C36.5235 54.72 36.5885 54.59 36.7055 54.473C36.7965 54.382 36.8355 54.304 36.8355 54.226C36.8355 54.135 36.7965 54.057 36.7315 53.966C36.5105 53.654 36.1855 53.342 35.8475 53.069C35.7825 53.004 35.7045 52.978 35.6265 52.978C35.5615 52.978 35.4835 53.004 35.4055 53.056C35.2235 53.16 35.0805 53.186 34.6905 53.186H30.0495C28.8275 53.186 28.1385 53.16 27.5535 53.095C27.5795 53.472 27.6315 54.148 27.6705 54.408C27.6965 54.59 27.7485 54.681 27.9175 54.668C28.4765 54.642 29.2175 54.603 30.0625 54.603H34.7555ZM37.6415 50.716C36.8615 50.716 36.2375 51.301 36.2375 52.107C36.2375 52.887 36.8615 53.498 37.6415 53.498C38.4215 53.498 39.0455 52.887 39.0455 52.107C39.0455 51.327 38.4215 50.716 37.6415 50.716ZM37.6415 51.34C38.0835 51.34 38.4085 51.665 38.4085 52.107C38.4085 52.549 38.0835 52.874 37.6415 52.874C37.1995 52.874 36.8745 52.549 36.8745 52.107C36.8745 51.665 37.1995 51.34 37.6415 51.34ZM46.8065 58.035C47.9115 57.58 48.7565 57.294 49.6015 56.995C49.8615 56.904 50.1215 56.839 50.3945 56.8C50.5245 56.774 50.5895 56.722 50.5895 56.618C50.5895 56.54 50.5635 56.449 50.4855 56.332C50.3425 56.098 50.0045 55.643 49.5755 55.188C49.2505 55.526 48.8345 55.76 48.5875 55.89C47.9245 56.228 47.1835 56.566 46.6765 56.8C46.5465 55.786 45.9485 55.396 45.0905 55.396C44.7395 55.396 44.2065 55.526 43.7905 55.799L43.7775 55.773C44.1675 55.292 44.4535 54.811 44.7525 54.33C45.7015 54.226 46.8195 54.083 47.7945 53.94C47.9765 53.914 48.0285 53.862 48.0155 53.732C48.0025 53.355 47.9505 53.056 47.8855 52.796C47.8595 52.679 47.8205 52.64 47.6775 52.666C46.8975 52.848 46.1045 52.978 45.3115 53.069C45.4675 52.718 45.5325 52.549 45.6105 52.367C45.6755 52.237 45.7535 52.12 45.8315 52.055C45.8965 52.003 45.9225 51.925 45.9225 51.86C45.9225 51.769 45.8705 51.678 45.7665 51.639C45.4285 51.509 44.8565 51.366 44.2845 51.275C44.2845 51.626 44.2455 51.847 44.1935 52.068C44.0635 52.523 43.9465 52.835 43.8035 53.186C42.8155 53.238 41.8015 53.251 40.8135 53.199C40.8525 53.589 40.9045 54.07 40.9435 54.278C40.9695 54.421 41.0085 54.486 41.1255 54.486C41.8925 54.486 42.5945 54.473 43.2055 54.447C42.4515 55.747 41.4895 56.774 40.4885 57.671C40.4235 57.723 40.3975 57.762 40.3975 57.814C40.3975 57.84 40.4105 57.879 40.4495 57.931C40.6185 58.204 41.0085 58.607 41.1905 58.789C41.2425 58.841 41.2945 58.88 41.3335 58.88C41.3855 58.88 41.4245 58.841 41.4895 58.763C41.9055 58.269 42.2305 57.892 42.7895 57.346C43.3875 56.826 43.9725 56.436 44.5835 56.41C45.1685 56.384 45.3245 56.644 45.3635 57.307C43.4005 58.321 42.6205 59.231 42.6205 60.479C42.6205 61.987 43.7515 62.624 45.8835 62.624C47.1445 62.624 47.9895 62.598 49.1075 62.455C49.2115 62.455 49.2635 62.364 49.2505 62.208C49.2505 61.896 49.1985 61.441 49.1335 61.142C49.1205 61.025 49.0685 60.986 48.9515 60.999C47.9505 61.142 46.9105 61.259 45.7145 61.259C44.3495 61.259 43.9075 60.908 43.9075 60.362C43.9075 59.738 44.3235 59.231 45.4805 58.633C45.4675 59.101 45.4675 59.751 45.4675 60.219C45.4675 60.349 45.5195 60.427 45.6365 60.427C46.0005 60.427 46.3905 60.388 46.5595 60.362C46.7285 60.336 46.8065 60.271 46.8065 60.128V58.035ZM57.8695 56.93V55.916H61.0025C62.0555 55.916 62.5495 55.942 62.6275 55.942C62.7575 55.942 62.7705 55.929 62.7705 55.799C62.7705 55.721 62.7445 55.409 62.7445 54.733V53.693C62.7445 53.017 62.7705 52.718 62.7705 52.64C62.7705 52.497 62.7575 52.484 62.6275 52.484C62.5495 52.484 62.0555 52.51 61.0025 52.51H59.9495C60.0795 52.276 60.1835 52.055 60.2745 51.86C60.3265 51.756 60.4045 51.665 60.5085 51.587C60.5865 51.535 60.6125 51.483 60.6125 51.392C60.6125 51.327 60.5475 51.262 60.4435 51.236C60.0925 51.145 59.5205 51.067 59.1045 51.028C59.0785 51.249 59.0005 51.483 58.9225 51.678C58.7925 52.003 58.6625 52.25 58.5195 52.51H58.4415C57.3105 52.51 56.7385 52.484 56.6605 52.484C56.5305 52.484 56.5175 52.497 56.5175 52.64C56.5175 52.718 56.5435 53.316 56.5435 54.46V58.542C56.5435 59.686 56.5175 60.245 56.5175 60.336C56.5175 60.466 56.5305 60.479 56.6605 60.479C56.7385 60.479 57.3365 60.453 58.4805 60.453H61.3665C62.4975 60.453 63.0175 60.479 63.0955 60.479C63.2255 60.479 63.2385 60.466 63.2385 60.336C63.2385 60.258 63.2125 59.959 63.2125 59.257V58.139C63.2125 57.45 63.2385 57.138 63.2385 57.06C63.2385 56.917 63.2255 56.904 63.0955 56.904C63.0175 56.904 62.4975 56.93 61.3665 56.93H57.8695ZM61.8995 59.348H57.8695V58.035H61.8995V59.348ZM61.4315 54.811H57.8695V53.602H61.4315V54.811ZM55.3605 57.32C55.3605 56.527 55.3865 56.163 55.3865 56.085C55.3865 55.955 55.3735 55.942 55.2435 55.942C55.1655 55.942 54.9575 55.968 54.2685 55.968H53.4495C52.7475 55.968 52.5655 55.942 52.5005 55.942C52.3575 55.942 52.3445 55.955 52.3445 56.085V57.073C52.3445 57.216 52.3575 57.229 52.5005 57.229C52.5655 57.229 52.7475 57.203 53.4495 57.203H54.0865V60.076C53.7615 60.388 53.3195 60.687 52.9425 60.921C52.6955 61.077 52.5135 61.168 52.1755 61.324C52.3575 61.792 52.5265 62.208 52.7085 62.546C52.7605 62.65 52.8385 62.702 52.8905 62.702C52.9685 62.702 53.0335 62.663 53.0855 62.585C53.1375 62.507 53.2025 62.442 53.3455 62.325C53.7615 61.987 54.2555 61.558 54.6585 61.168C54.9445 61.623 55.4385 62.065 56.0105 62.351C56.5435 62.624 57.7005 62.702 59.0395 62.702C60.3915 62.702 61.9385 62.663 63.5895 62.585C64.0055 62.559 64.0055 62.559 64.0705 62.143C64.1225 61.779 64.2395 61.376 64.4215 61.116C62.4845 61.311 60.5085 61.415 58.8315 61.415C57.7005 61.415 56.8945 61.35 56.4395 61.168C55.9065 60.947 55.6335 60.622 55.3605 60.076V57.32ZM52.7475 52.068C52.6045 52.172 52.5785 52.211 52.6825 52.302C53.2285 52.809 53.8785 53.654 54.2685 54.33C54.3075 54.395 54.3335 54.434 54.3855 54.434C54.4245 54.434 54.4635 54.408 54.5415 54.343L55.2825 53.719C55.4255 53.615 55.4385 53.589 55.3605 53.485C54.8925 52.744 54.3335 52.107 53.7355 51.548C53.6835 51.509 53.6445 51.483 53.6055 51.483C53.5665 51.483 53.5275 51.509 53.4495 51.561L52.7475 52.068ZM76.5375 55.526C76.5375 53.511 76.5635 52.796 76.5635 52.718C76.5635 52.588 76.5505 52.575 76.4205 52.575C76.3425 52.575 76.0175 52.601 75.0685 52.601H73.4175C72.4685 52.601 72.1435 52.575 72.0655 52.575C71.9225 52.575 71.9095 52.588 71.9095 52.718C71.9095 52.809 71.9355 53.524 71.9355 55.903V58.269C71.9355 61.701 71.9095 62.39 71.9095 62.468C71.9095 62.611 71.9225 62.624 72.0655 62.624H73.1185C73.2615 62.624 73.2745 62.611 73.2745 62.468V61.48H75.1985V62.364C75.1985 62.507 75.2115 62.52 75.3285 62.52H76.4205C76.5505 62.52 76.5635 62.507 76.5635 62.364C76.5635 62.286 76.5375 61.61 76.5375 58.217V55.526ZM75.1985 53.849V60.245H73.2745V53.849H75.1985ZM69.7385 54.954C69.6995 57.515 69.5825 59.387 69.4005 60.518C69.2965 61.181 69.1405 61.324 68.7765 61.324C68.4255 61.324 68.1005 61.298 67.6975 61.22C67.8145 61.506 67.8925 61.818 67.9315 62.156C67.9705 62.572 67.9705 62.572 68.3085 62.598C68.5555 62.624 68.7635 62.624 69.0235 62.624C69.9985 62.624 70.5055 62.182 70.6745 61.168C70.9085 59.738 71.0255 57.671 71.0515 55.11C71.0515 54.694 71.0515 54.317 71.0775 53.875C71.0775 53.745 71.0515 53.732 70.9215 53.732C70.8435 53.732 70.4665 53.745 69.3485 53.745H68.5035C68.5165 53.498 68.5165 53.251 68.5165 52.991C68.5165 52.198 68.5425 51.873 68.5815 51.704C68.6075 51.574 68.6725 51.431 68.6725 51.34C68.6725 51.275 68.6075 51.223 68.4775 51.197C68.0095 51.158 67.5415 51.132 67.0735 51.119C67.1385 51.743 67.1645 52.146 67.1645 52.952C67.1645 53.238 67.1645 53.498 67.1515 53.745H66.9435C65.8385 53.745 65.4615 53.732 65.3835 53.732C65.2535 53.732 65.2405 53.732 65.2405 53.862V54.837C65.2405 54.967 65.2535 54.98 65.3835 54.98C65.4615 54.98 65.8385 54.954 66.9435 54.954H67.1125C67.0475 56.241 66.9045 57.255 66.6315 58.243C66.2805 59.556 65.7865 60.518 64.9025 61.558C65.1885 61.792 65.4615 62.078 65.7215 62.481C65.8255 62.637 65.8775 62.702 65.9425 62.702C66.0075 62.702 66.0725 62.624 66.1895 62.481C67.0865 61.324 67.5935 60.063 67.9315 58.724C68.2045 57.645 68.3735 56.371 68.4645 54.954H69.7385Z" fill="#17B942"/>
<path d="M27.7652 5.29298C27.9862 4.98709 28.1582 4.68463 28.5512 4.5838C28.9443 4.48298 29.0573 4.04893 29.2917 3.76697C29.4131 3.59724 29.5774 3.46382 29.7674 3.38076C30.0322 3.27311 30.2279 2.99456 30.464 2.80317C30.5264 2.7519 30.6327 2.76045 30.7103 2.72627C30.852 2.66646 31.0476 2.63228 31.1168 2.52121C31.4204 2.01709 31.9399 1.9026 32.4223 1.71633C32.5147 1.66669 32.6171 1.63945 32.7216 1.63678C32.8261 1.63412 32.9298 1.65608 33.0245 1.70095C33.1159 1.74192 33.2181 1.75106 33.3151 1.72695C33.4122 1.70283 33.4986 1.64682 33.5609 1.56766C33.6573 1.45178 33.7803 1.3616 33.9191 1.305C34.0579 1.2484 34.2082 1.22711 34.357 1.24298C34.4001 1.25507 34.4455 1.25507 34.4886 1.24298C35.0064 0.954183 35.59 1.15754 36.145 1.02254C36.5521 0.891968 36.969 0.794819 37.3915 0.732031C37.7737 0.678198 38.1607 0.66788 38.5452 0.701271C38.7814 0.735448 39.0293 0.639752 39.2604 0.771335C39.2916 0.797392 39.3279 0.816356 39.3669 0.826938C39.4059 0.837521 39.4467 0.839474 39.4866 0.832667C39.5264 0.825859 39.5643 0.810449 39.5978 0.787483C39.6312 0.764517 39.6594 0.734532 39.6804 0.699562C39.7023 0.667094 39.8204 0.6876 39.8879 0.708107C40.1797 0.795258 40.4209 0.949056 40.7818 0.764499C41.023 0.639752 41.4093 0.812347 41.7332 0.83798C42.1498 0.872157 42.5664 0.906334 42.9847 0.911461C43.3875 0.885927 43.7875 0.993246 44.125 1.21735C44.5855 1.53861 45.0426 1.89235 45.6346 2.00171C45.972 2.06323 46.2806 2.25975 46.5977 2.40671C46.76 2.46658 46.9112 2.55382 47.0447 2.66475C47.1623 2.81174 47.2641 2.97099 47.3483 3.13982C47.4091 3.23722 47.4765 3.3295 47.5423 3.42349C47.6351 3.5602 47.711 3.54653 47.8291 3.43203C47.8594 3.39956 48.018 3.43203 48.0669 3.49355C48.3047 3.75842 48.5206 4.04551 48.7568 4.31209C48.835 4.41706 48.9408 4.4976 49.0621 4.5445C49.2111 4.57737 49.3471 4.65438 49.4528 4.76574C49.5586 4.87711 49.6292 5.0178 49.6558 5.16994C49.6794 5.27418 49.843 5.38184 49.892 5.40064C50.0944 5.47925 50.1416 5.65013 50.3423 5.61766C50.7353 5.91159 50.6965 6.14399 50.904 6.25336C51.2026 6.65665 51.4623 7.0514 51.7474 7.44956C52.2315 8.13311 52.245 8.7107 52.7594 9.5002L53.3346 10.5255L53.6163 11.6397C53.6689 11.7746 53.7392 11.9016 53.8255 12.0173C53.8828 12.1233 53.9722 12.2361 53.9216 12.3455C53.7999 12.5789 53.7424 12.8412 53.7551 13.1049C53.7679 13.3685 53.8504 13.6239 53.9941 13.8441C54.3315 14.3192 54.2218 14.8899 54.2016 15.4334C54.2016 15.4932 54.1071 15.5496 54.0549 15.6042C54.0455 15.5338 54.0292 15.4645 54.0059 15.3975C53.9385 15.2437 53.8609 15.095 53.7883 14.9429C53.7512 14.9839 53.6753 15.0318 53.6804 15.0642C53.7394 15.4231 53.8491 15.7786 53.6804 16.1357C53.7243 16.1511 53.7833 16.1921 53.8069 16.1767C53.8727 16.1357 53.9132 16.0571 53.9756 16.0195C54.0127 15.9973 54.0768 16.0195 54.1291 16.0298C54.1071 16.0605 54.0869 16.0947 54.0633 16.1237C53.8204 16.4125 53.8052 17.0123 54.0009 17.39C54.2151 17.8001 54.4462 18.2103 54.404 18.7075C54.3997 18.7568 54.3865 18.8049 54.3652 18.8494C54.2438 19.043 54.1431 19.2492 54.065 19.4646C54.0161 19.6765 54.1409 19.9448 54.065 20.131C53.8923 20.4796 53.6885 20.8113 53.4561 21.1222C53.3667 21.2555 53.1912 21.3614 53.5067 21.4144C53.5488 21.4144 53.6197 21.5357 53.6062 21.5579C53.5428 21.648 53.4735 21.7336 53.3987 21.8142C53.3616 21.8554 53.3385 21.9075 53.3329 21.9629C53.3818 22.6208 53.5421 23.2805 53.2806 23.9298C53.1998 24.0981 53.1348 24.2737 53.0867 24.4544C53.0394 24.7142 53.0445 24.9842 53.0124 25.2473C52.9925 25.5825 52.9411 25.9149 52.859 26.2402C52.7223 26.664 52.643 27.1288 52.2838 27.4501C52.204 27.515 52.1375 27.5951 52.0881 27.6859C52.0375 27.7901 51.9633 27.9354 51.9987 28.0277C52.1387 28.378 52.0122 28.6275 51.83 28.9385C51.5652 29.4136 51.4168 29.9553 51.2059 30.4611C50.9496 31.0729 50.6999 31.6932 50.005 31.9495C49.9324 31.9768 49.8818 32.1631 49.8818 32.2759C49.8818 32.8091 49.5833 33.2705 49.5175 33.7729C49.4517 34.2753 48.9676 34.3351 48.75 34.6598C48.7332 34.6854 48.6775 34.6871 48.6387 34.7008C48.6387 34.6632 48.6303 34.6239 48.6286 34.5863C48.6269 34.5487 48.6286 34.4855 48.6286 34.4342C48.578 34.4581 48.5071 34.4684 48.4835 34.5077C48.4139 34.5987 48.3685 34.7064 48.352 34.8204C48.3546 35.3258 48.2725 35.8279 48.1091 36.3054C47.9657 36.7189 47.8459 37.1239 47.5777 37.4674C47.3922 37.7067 47.1712 37.922 46.9756 38.151C46.925 38.2125 46.8643 38.3218 46.8879 38.3765C47.0734 38.7969 46.7951 39.0601 46.5893 39.3489C46.3563 39.6493 46.1406 39.9632 45.9433 40.2887C45.8303 40.4921 45.8151 40.7501 45.7443 40.9723C45.7274 41.0253 45.6616 41.0612 45.6177 41.1056C45.5941 41.0543 45.5722 41.0048 45.5469 40.9552C45.5216 40.9056 45.503 40.8749 45.4794 40.8356C45.4457 40.8595 45.3951 40.8766 45.3799 40.9091C45.3377 40.9928 45.272 41.0919 45.2888 41.1705C45.3799 41.6029 45.1741 41.8763 44.8604 42.1224C44.7301 42.218 44.6252 42.3448 44.5551 42.4915C44.405 42.8332 44.0491 43.0178 43.9462 43.4143C43.8062 43.9132 43.312 43.9662 42.8768 43.9987C42.7627 43.9931 42.6498 44.0241 42.5541 44.0873C42.4584 44.1505 42.3848 44.2427 42.3438 44.3507C42.1009 44.8993 41.8816 44.9864 41.2811 44.8907C41.1447 44.8786 41.0082 44.9128 40.8932 44.9881C40.6908 45.118 40.4883 45.2803 40.2539 45.1453C40.0282 45.0014 39.8175 44.8348 39.6247 44.648C39.4406 44.4895 39.2676 44.3182 39.1069 44.1354C38.9382 43.932 38.7847 43.7048 38.6194 43.4946C38.552 43.4091 38.4508 43.2587 38.39 43.2741C38.0375 43.3647 37.9481 43.093 37.8267 42.8811C37.7676 42.7786 37.7727 42.6914 37.6209 42.8008C37.5652 42.8401 37.3864 42.7478 37.2835 42.676C37.1537 42.5752 37.0592 42.3343 36.9462 42.3343C36.4402 42.3018 36.3862 41.8387 36.1146 41.5858C35.7566 41.2892 35.3808 41.0153 34.9896 40.7655C34.939 40.7296 34.8344 40.6972 34.8361 40.6698C34.8799 40.2118 34.4447 40.2546 34.2339 40.0649C34.1057 39.947 33.9843 39.8205 33.8662 39.6906C33.8021 39.6206 33.7717 39.4993 33.6975 39.4634C33.1156 39.1882 32.925 38.6089 32.6197 38.1082C32.457 37.8262 32.2509 37.5724 32.0091 37.3563C31.5671 36.9804 31.4238 36.4216 31.0965 35.9773C30.9279 35.7586 30.8047 35.5142 30.6496 35.2937C30.3358 34.8392 29.9749 34.4154 29.71 33.9267C29.4874 33.5114 29.3862 33.0295 29.2293 32.5784C29.2111 32.4859 29.1725 32.3989 29.1163 32.3237C28.779 32.023 28.6238 31.6265 28.4804 31.2027C28.3994 30.9635 28.143 30.7858 27.9946 30.5636C27.9031 30.4132 27.8263 30.2541 27.7652 30.0886C27.7072 29.9215 27.6391 29.7583 27.5611 29.5998C27.3924 29.3179 27.1664 29.0615 27.2238 28.6924C27.2238 28.6599 27.239 28.6104 27.2238 28.5933C26.8004 28.1661 26.77 27.5885 26.6452 27.0553C26.6047 26.8844 26.5946 26.6948 26.5575 26.517C26.5488 26.4228 26.511 26.3337 26.4496 26.2624C26.124 25.989 26.0464 25.6079 25.957 25.2217C25.8862 24.9175 25.7698 24.6236 25.6973 24.3211C25.6001 23.9865 25.5351 23.6431 25.5033 23.2958C25.4797 22.6584 25.2773 22.0706 25.1373 21.4605C25.0428 21.0521 24.8539 20.6283 25.0158 20.1703C25.0698 20.0165 24.9871 19.8098 24.9602 19.6286C24.8961 19.1963 24.8151 18.7639 24.7645 18.3299C24.7071 17.8172 24.6532 17.3046 24.6363 16.8005C24.644 16.4929 24.6728 16.1863 24.7223 15.8828C24.7223 15.8213 24.7712 15.7495 24.751 15.7017C24.4761 15.066 24.7105 14.4439 24.7915 13.8219C24.8269 13.5553 24.8623 13.2887 24.923 13.0273C25.063 12.4377 25.0917 11.7935 25.3127 11.2398C25.5994 10.5563 25.5859 9.81121 25.8339 9.13108C25.9164 8.95498 26.0308 8.79616 26.1712 8.66285C26.598 8.19292 26.625 7.54526 26.9016 7.01039C26.9961 6.82583 27.0855 6.63785 27.1799 6.4533C27.3756 6.07393 27.5712 5.69627 27.7669 5.28444L27.7652 5.29298ZM32.9283 34.3077C33.3686 34.6102 33.3804 35.2937 33.9505 35.4834C33.9826 35.4937 34.0045 35.5467 34.0264 35.5825C34.3317 36.0849 34.6404 36.5839 34.939 37.0898C35.1953 37.5255 35.7975 37.628 35.951 38.168C35.951 38.1954 36.0235 38.2022 36.059 38.2227C36.4476 38.4233 36.8023 38.6852 37.1098 38.9986C37.4134 39.3506 37.7052 39.7231 38.1438 39.9316C38.2939 40.0034 38.4052 40.1572 38.552 40.2426C38.7999 40.3879 39.0681 40.5006 39.3177 40.6459C39.4535 40.7331 39.5776 40.8377 39.6871 40.9569C39.7226 40.9911 39.7192 41.0782 39.7091 41.1381C39.6936 41.1981 39.6697 41.2557 39.6382 41.3089C39.6959 41.278 39.7579 41.2561 39.8221 41.244C39.8456 41.2482 39.8677 41.258 39.8868 41.2726C39.9058 41.2871 39.9212 41.306 39.9317 41.3277C39.9536 41.3722 39.9216 41.4576 39.9503 41.485C40.264 41.7669 40.571 42.0591 40.905 42.312C41.1023 42.4607 41.5797 42.2129 41.6977 41.9703C41.8664 41.6199 42.0486 41.2867 42.2274 40.9449C42.2443 40.9125 42.2712 40.8578 42.2898 40.8595C42.5428 40.8817 42.5462 40.7074 42.563 40.5297C42.563 40.4596 42.6069 40.3451 42.6474 40.3366C43.1298 40.2426 43.0522 39.7043 43.3457 39.4446C43.5683 39.248 43.6712 38.9148 43.8399 38.6499C43.9996 38.4404 44.1482 38.2225 44.2852 37.9972C44.5517 37.4589 44.7676 36.8949 45.0392 36.3584C45.3934 35.6629 45.7847 34.9913 46.1541 34.2958C46.4098 33.8682 46.6353 33.4227 46.8288 32.9629C46.9955 32.4893 47.2439 32.0495 47.5626 31.6641C47.8017 31.3561 47.9981 31.0163 48.1462 30.6542C48.3149 30.3124 48.4447 29.9706 48.6067 29.6289C48.7551 29.3196 48.9541 29.0308 49.0722 28.7112C49.2088 28.3404 49.2712 27.9405 49.3843 27.5594C49.5226 27.0912 49.7014 26.6332 49.8211 26.1599C49.9173 25.7788 49.9544 25.3806 50.0134 24.991C50.0724 24.6014 50.2496 24.1964 50.0859 23.7794C50.0623 23.7213 50.1096 23.6359 50.1264 23.5641C50.177 23.3608 50.2276 23.1574 50.2799 22.9541C50.3457 22.7114 50.4182 22.4722 50.479 22.2278C50.5429 22.0267 50.5859 21.8194 50.6071 21.6092C50.6257 21.0555 50.6071 20.5001 50.619 19.9448C50.6433 19.6314 50.6861 19.3199 50.7471 19.0117C50.8083 18.7602 50.85 18.5042 50.872 18.2461C50.872 17.6446 50.8433 17.0499 50.8112 16.4416C50.8046 15.847 50.7561 15.2537 50.6662 14.6661C50.4992 13.8892 50.2875 13.1229 50.032 12.3711C49.8414 11.7918 49.5749 11.2364 49.3573 10.6622C49.2594 10.4127 49.1886 10.1496 49.0857 9.90007C48.831 9.34298 48.5898 8.77564 48.2828 8.2476C47.9042 7.59945 47.492 6.97199 47.0481 6.36785C46.8335 6.10537 46.583 5.87521 46.3043 5.68431C45.9028 5.37842 45.4811 5.09817 45.0645 4.81108C44.9867 4.74118 44.8917 4.69393 44.7896 4.67437C44.3443 4.67437 44.0558 4.36507 43.7505 4.12754C43.5541 3.96433 43.311 3.86964 43.0573 3.85754C42.9825 3.86033 42.9079 3.85051 42.8363 3.82849C42.5411 3.70887 42.2577 3.54994 41.9558 3.45937C41.3604 3.28849 40.7549 3.13469 40.1527 2.9826C39.758 2.88349 39.3633 2.78096 38.972 2.72115C38.8055 2.72667 38.6416 2.76498 38.4896 2.83393C38.4423 2.8476 38.4002 2.91083 38.3563 2.91083C37.7659 2.89374 37.1756 2.85785 36.5852 2.85102C36.2866 2.85275 35.9885 2.87502 35.6929 2.91766C35.5513 2.94564 35.4132 2.98978 35.2814 3.04925C35.0137 3.12302 34.7559 3.22976 34.5139 3.36709C34.1765 3.60975 33.8729 3.83703 33.4158 3.66615C33.1982 3.58583 32.9874 3.70032 32.8406 3.91906C32.7462 4.04399 32.6322 4.1525 32.5033 4.24032C32.3177 4.37703 32.112 4.4864 31.9315 4.62823C31.751 4.77007 31.5385 4.97001 31.3394 5.14089C31.2386 5.2042 31.1437 5.27686 31.0561 5.35792C30.6934 5.80906 30.3308 6.2619 29.99 6.72501C29.6679 7.15564 29.3018 7.55209 29.145 8.0169C28.9645 8.52956 28.8616 9.07811 28.6508 9.59931C28.4247 10.1564 28.3303 10.7682 28.1667 11.3526C28.0671 11.7149 27.944 12.0686 27.8293 12.4275C27.6606 13.0153 27.7467 13.6613 27.4464 14.2252C27.4192 14.3329 27.4134 14.445 27.4296 14.555C27.4296 14.7259 27.4194 14.8968 27.4093 15.0677C27.3791 15.231 27.3661 15.3971 27.3705 15.5632C27.4059 15.7991 27.5392 16.0246 27.551 16.2587C27.5763 16.9423 27.5662 17.6361 27.551 18.3265C27.551 18.4751 27.4818 18.6238 27.492 18.7708C27.5493 19.5073 27.61 20.2455 27.6927 20.9803C27.7365 21.3699 27.8226 21.7544 27.8968 22.1406C27.9541 22.4311 28.0317 22.7165 28.0857 23.0053C28.17 23.4667 28.2139 23.9367 28.3269 24.3895C28.4618 24.9244 28.6373 25.449 28.8329 25.9685C28.9881 26.3974 29.1703 26.8229 29.3643 27.2296C29.43 27.3715 29.5616 27.4843 29.6223 27.6261C29.791 28.0174 29.9259 28.4224 30.0963 28.8103C30.2667 29.1982 30.4893 29.6101 30.6765 30.0065C30.8638 30.403 31.0341 30.8234 31.2214 31.2267C31.3529 31.5103 31.4929 31.7906 31.6464 32.0606C31.8724 32.4622 32.1204 32.8501 32.3481 33.2568C32.537 33.5986 32.7108 33.9403 32.925 34.3094L32.9283 34.3077ZM49.6761 7.82209C49.7756 7.99298 49.8683 8.16387 49.978 8.3245C50.0275 8.3784 50.0843 8.42499 50.1467 8.46292C50.1669 8.39798 50.2175 8.32108 50.199 8.26811C50.131 8.04347 50.0406 7.82646 49.9291 7.62045C49.8616 7.50596 49.7857 7.29747 49.5833 7.40684C49.6057 7.54905 49.6379 7.68951 49.6794 7.82722L49.6761 7.82209ZM53.2756 12.8837L53.4274 13.1196C53.4274 13.0512 53.4139 12.9811 53.4088 12.9111C53.4114 12.8781 53.4114 12.845 53.4088 12.812C53.3953 12.7351 53.3751 12.6582 53.3582 12.5796C53.3231 12.6785 53.296 12.7803 53.2773 12.8837H53.2756ZM52.0847 27.122L52.105 26.8861L51.9565 26.9152C51.9793 26.9949 52.0237 27.0666 52.0847 27.122V27.122ZM52.9838 20.7445C53.0108 20.6787 53.0301 20.6099 53.0411 20.5394C53.0411 20.5241 52.9568 20.5018 52.9112 20.4813C52.9245 20.5718 52.9488 20.6602 52.9838 20.7445V20.7445ZM52.4187 25.232L52.552 25.1978L52.5014 25.0645C52.4584 25.1124 52.4297 25.1716 52.4187 25.2354V25.232ZM49.1549 34.0753L49.111 33.9044L49.0216 33.9643C49.0476 34.0154 49.0925 34.054 49.1464 34.0719L49.1549 34.0753Z" fill="#17B942"/>
<path d="M33.7104 10.4382C33.8896 10.2331 34.0829 10.0412 34.289 9.86402C34.4661 9.75959 34.6539 9.6748 34.849 9.61111C35.0548 9.51883 35.2555 9.40946 35.468 9.33598C35.7649 9.23345 36.1056 9.21807 36.3637 9.05915C36.981 8.67978 37.7131 8.84383 38.354 8.54649C38.548 8.45421 38.8213 8.54649 39.0574 8.5294C39.3492 8.51573 39.6393 8.48497 39.9295 8.46446C39.9851 8.46446 40.0526 8.44225 40.0981 8.46446C40.7087 8.82503 41.4273 8.78231 42.075 9.00105C42.134 9.01984 42.2133 9.02839 42.2437 9.07111C42.5524 9.50174 43.1275 9.51199 43.4733 9.8794C43.5283 9.94633 43.5769 10.0184 43.6184 10.0947C43.6774 10.187 43.4598 10.6467 43.868 10.2878C43.8815 10.2776 43.981 10.3408 44.0181 10.3869C44.2408 10.6569 44.4516 10.9355 44.4854 11.3046C44.4929 11.3457 44.503 11.3862 44.5157 11.4259C44.5461 11.3969 44.5731 11.3541 44.6102 11.3388C44.7114 11.2978 44.8177 11.267 44.9222 11.2328C44.9203 11.3115 44.9311 11.39 44.9543 11.4652C45.0707 11.684 45.1584 11.9608 45.3422 12.0872C45.4524 12.1463 45.5479 12.2298 45.6215 12.3316C45.6951 12.4335 45.745 12.5509 45.7673 12.6751C45.8078 12.887 46.0152 13.0596 46.1249 13.2647C46.2936 13.5945 46.4487 13.9379 46.6191 14.2695C46.6953 14.4197 46.7839 14.5632 46.8839 14.6984C47.2111 15.1427 47.1285 15.6912 47.1909 16.1817C47.2854 16.9302 47.2179 17.7009 47.2128 18.4613C47.2054 18.5343 47.1872 18.6057 47.1589 18.6732C46.9319 19.3544 46.6375 20.0105 46.2801 20.6316C46.1721 20.8247 46.0203 20.8981 45.8449 20.6743C45.7853 20.6204 45.7175 20.5765 45.6442 20.5444C45.6138 20.6333 45.5345 20.7392 45.5581 20.8059C45.661 21.0759 45.6003 21.1323 45.3456 21.016C45.3456 21.016 45.3051 21.0793 45.2798 21.1083C45.2043 21.2199 45.116 21.322 45.0167 21.4125C44.7367 21.6142 44.4483 21.8055 44.1514 21.9833C44.0291 22.0383 43.9013 22.0795 43.7702 22.1063C43.5155 22.19 43.2439 22.3797 43.0128 22.337C42.6384 22.2686 42.441 22.4395 42.2184 22.66C42.1644 22.7147 42.0581 22.7164 42.0025 22.7711C41.9468 22.8257 41.5858 22.6173 41.876 22.9283C41.876 22.9283 41.8473 22.9898 41.8254 22.9949C41.5993 23.0428 41.3328 23.1846 41.1507 23.1094C40.7998 22.9573 40.5418 23.0598 40.2601 23.2273C40.056 23.3486 39.8552 23.5229 39.6343 23.5571C39.4133 23.5913 39.1873 23.4871 38.9596 23.4204C38.656 23.3264 38.3574 23.2085 38.0572 23.1043C37.7569 23 37.3825 23.0616 37.1851 22.7164C37.1542 22.6735 37.1139 22.6386 37.0674 22.6142C37.0208 22.5899 36.9693 22.5769 36.9169 22.5762C36.4868 22.6241 36.2018 22.3114 35.8475 22.1712C35.6789 22.1029 35.4528 22.1576 35.2842 22.0824C34.7781 21.8585 34.2856 21.6005 33.7948 21.3441C33.7206 21.3048 33.6818 21.1972 33.6261 21.122C33.3343 20.7409 33.0425 20.3581 32.749 19.9788C32.7307 19.9554 32.7051 19.9391 32.6765 19.9326C32.1215 19.8267 32.0018 19.2662 31.6644 18.9347C31.6256 18.8954 31.6408 18.8082 31.6087 18.7638C31.5532 18.6786 31.4912 18.5981 31.4232 18.5228C31.3793 18.4698 31.2883 18.4254 31.2849 18.3741C31.2714 18.0888 31.2731 17.8034 31.2849 17.5197C31.2967 17.236 31.2967 16.9746 31.3237 16.7046C31.4013 15.9629 31.4755 15.2196 31.5801 14.4831C31.6184 14.0941 31.7511 13.7207 31.9663 13.3962C32.0338 13.3022 31.9984 13.1348 32.0169 13.0032C32.0271 12.9193 32.0481 12.8372 32.0793 12.7588C32.3222 12.1966 32.5601 11.6327 32.8232 11.0807C32.8496 11.0086 32.895 10.9451 32.9545 10.8973C33.014 10.8494 33.0852 10.8189 33.1606 10.809C33.3461 10.7817 33.4979 10.5817 33.6952 10.4416L33.7104 10.4382ZM37.9155 10.6962C37.8767 10.7355 37.8413 10.8039 37.7974 10.8107C37.4601 10.8586 37.2273 11.0739 37.0114 11.3234C36.8972 11.4639 36.7455 11.5683 36.5745 11.6241C36.254 11.7096 36.0516 11.8429 36.0685 12.2154C36.0594 12.2638 36.0394 12.3095 36.0102 12.3489C35.9809 12.3883 35.9432 12.4204 35.8998 12.4427C35.7608 12.5116 35.6164 12.5688 35.468 12.6136C35.5136 12.5042 35.5642 12.3983 35.6046 12.2872C35.6451 12.1761 35.694 12.0121 35.7379 11.8736C35.6063 11.8521 35.473 11.8441 35.3398 11.8497C34.9806 11.901 35.2454 12.2598 35.0868 12.4273C35.0531 12.4632 35.1374 12.617 35.1728 12.7161C35.1728 12.7161 35.215 12.7161 35.2352 12.7161C35.5018 12.7007 35.4377 12.8323 35.3432 12.9707C35.1442 13.2578 34.8659 13.5176 34.7579 13.8371C34.4206 14.8283 33.8133 15.734 33.8656 16.8533C33.8825 17.2224 33.8471 17.5693 34.0765 17.8974C34.1557 18.0102 34.1675 18.3246 34.1119 18.3536C33.9078 18.4579 34.0309 18.545 34.1119 18.5775C34.4492 18.7142 34.4863 19.2867 34.9805 19.2012C35.0059 19.2012 35.0379 19.3055 35.0801 19.3192C35.3381 19.4029 35.1087 20.0027 35.6046 19.8318C35.6181 19.8318 35.6687 19.8728 35.6704 19.8985C35.7177 20.4812 36.4733 20.2607 36.6049 20.7529C36.6049 20.7529 36.6471 20.7529 36.669 20.7529C37.1278 20.7529 37.5866 20.7529 38.0454 20.7529C38.1969 20.7595 38.3473 20.7824 38.494 20.8212C38.6239 20.852 38.7437 20.9255 38.8736 20.9494C39.1933 20.9797 39.511 21.0293 39.8249 21.0981C40.196 21.2109 40.4675 21.1716 40.6986 20.8349C40.8525 20.6217 41.0258 20.4238 41.2165 20.2436C41.2755 20.1838 41.429 20.1206 41.4644 20.1514C41.6989 20.3513 42.1087 20.2778 42.2302 20.664C42.242 20.7016 42.4393 20.7341 42.4883 20.6931C42.9774 20.271 43.5256 19.8899 43.922 19.3875C44.5832 18.5502 44.6355 17.5624 44.2897 16.5628C44.1058 16.0347 43.8714 15.5238 43.674 15.0009C43.5593 14.7001 43.5054 14.3754 43.3687 14.0832C43.2001 13.7124 42.9842 13.3672 42.8087 13.0015C42.7075 12.793 42.6603 12.564 42.3736 12.5128C42.2842 12.4974 42.188 12.376 42.1442 12.2803C42.0345 12.0377 41.9552 11.7797 41.8557 11.5319C41.814 11.4245 41.7572 11.3237 41.6871 11.2328C41.655 11.1918 41.574 11.1918 41.5184 11.173C41.5394 11.2175 41.558 11.2632 41.574 11.3097C41.5892 11.3644 41.5977 11.4208 41.6078 11.4806C41.5319 11.4926 41.4256 11.5421 41.3834 11.5079C41.2722 11.4021 41.169 11.2879 41.0748 11.1662C40.8116 10.8859 40.5333 10.6262 40.1386 10.5681C40.0796 10.5681 40.0087 10.6262 39.948 10.6638C39.9555 10.7001 39.9704 10.7345 39.9919 10.7646C40.0302 10.8099 40.0707 10.8533 40.1133 10.8945C40.0344 10.8795 39.959 10.85 39.8907 10.8073C39.6981 10.5921 39.4907 10.3911 39.2699 10.2058C39.1924 10.1507 39.104 10.1134 39.0107 10.0966C38.9175 10.0797 38.8217 10.0838 38.7302 10.1084C38.4536 10.2519 38.2242 10.4946 37.9104 10.6979L37.9155 10.6962ZM46.5365 16.1971C46.6225 16.4636 46.7051 16.7336 46.7979 16.9985C46.8227 17.046 46.8633 17.0829 46.9126 17.1028C46.9295 17.1028 46.9986 17.0669 46.9986 17.0464C47.022 16.7618 47.018 16.4757 46.9868 16.1919C46.9666 16.0757 46.7743 15.9903 46.6613 15.8895C46.6076 15.9853 46.5657 16.0875 46.5365 16.1936V16.1971ZM45.8027 20.1069L45.8483 19.9514L45.6796 19.9668C45.7061 20.0279 45.7542 20.0767 45.8145 20.1035L45.8027 20.1069Z" fill="#17B942"/>
</svg>
